{"glyphs":{"0":{"ha":878,"x_min":0,"x_max":0,"o":"m 826 486 b 439 -14 826 206 663 -14 b 51 486 215 -14 51 206 b 439 986 51 767 215 986 b 826 486 663 986 826 767 m 685 486 b 439 956 685 756 606 956 b 193 486 272 956 193 756 b 439 17 193 217 272 17 b 685 486 606 17 685 217 "},"1":{"ha":486,"x_min":0,"x_max":0,"o":"m 461 0 b 43 0 461 0 43 0 b 43 6 43 0 43 6 b 190 117 158 44 190 46 b 190 850 190 117 190 850 b 32 967 190 919 157 921 b 32 972 32 967 32 972 b 315 972 32 972 315 972 b 315 117 315 972 315 117 b 461 6 315 46 351 44 b 461 0 461 6 461 0 "},"2":{"ha":731,"x_min":0,"x_max":0,"o":"m 332 963 b 150 774 213 963 150 878 b 267 640 150 696 192 640 b 319 653 294 640 307 644 b 322 653 319 653 322 653 b 203 572 303 604 264 572 b 43 743 108 572 43 643 b 332 986 43 875 157 986 b 657 726 519 986 657 892 b 151 110 657 553 514 411 b 378 110 151 110 378 110 b 679 244 543 110 603 117 b 682 244 679 244 682 244 b 640 0 682 244 640 0 b 4 0 640 0 4 0 b 4 3 4 0 4 3 b 521 724 431 382 521 542 b 332 963 521 856 471 963 "},"3":{"ha":710,"x_min":0,"x_max":0,"o":"m 313 13 b 539 269 447 13 539 122 b 260 518 539 442 436 518 b 260 529 260 518 260 529 b 490 761 440 536 490 629 b 322 960 490 876 442 960 b 167 824 218 960 167 892 b 240 742 167 775 194 742 b 276 747 256 742 267 743 b 279 747 276 747 279 747 b 172 678 260 696 218 678 b 61 794 110 678 61 722 b 322 986 61 896 164 986 b 625 761 517 986 625 890 b 372 532 625 626 521 553 b 672 269 540 525 672 421 b 313 -14 672 85 513 -14 b 10 203 156 -14 10 65 b 135 339 10 286 68 339 b 233 267 186 339 218 315 b 231 267 233 267 231 267 b 193 274 219 272 208 274 b 125 189 151 274 125 238 b 313 13 125 76 206 13 "},"4":{"ha":807,"x_min":0,"x_max":0,"o":"m 457 303 b 457 849 457 303 457 849 b 75 303 457 849 75 303 b 457 303 75 303 457 303 m 457 178 b 457 265 457 178 457 265 b 7 265 457 265 7 265 b 7 268 7 265 7 268 b 515 986 7 268 515 986 b 582 986 515 986 582 986 b 582 303 582 986 582 303 b 642 303 582 303 642 303 b 771 408 719 303 740 324 b 774 408 771 408 774 408 b 774 160 774 408 774 160 b 771 160 774 160 771 160 b 642 265 740 244 719 265 b 582 265 642 265 582 265 b 582 178 582 265 582 178 b 661 3 582 86 594 31 b 661 0 661 3 661 0 b 378 0 661 0 378 0 b 378 3 378 0 378 3 b 457 178 444 31 457 86 "},"5":{"ha":731,"x_min":0,"x_max":0,"o":"m 317 13 b 550 313 478 13 550 149 b 325 567 550 469 468 567 b 118 460 235 567 158 506 b 117 460 118 460 117 460 b 167 979 117 460 167 979 b 432 954 258 964 356 954 b 639 1021 532 954 589 957 b 642 1021 639 1021 642 1021 b 432 828 642 921 600 828 b 190 860 339 828 240 847 b 158 526 190 860 158 526 b 376 615 200 571 276 615 b 682 321 563 615 682 504 b 317 -14 682 124 514 -14 b 14 203 160 -14 14 65 b 139 339 14 294 72 339 b 238 267 190 339 222 315 b 235 267 238 267 235 267 b 197 274 224 272 213 274 b 129 189 156 274 129 238 b 317 13 129 76 210 13 "},"6":{"ha":781,"x_min":0,"x_max":0,"o":"m 457 986 b 721 796 604 986 721 911 b 610 675 721 724 672 675 b 500 749 564 675 515 696 b 503 749 500 749 503 749 b 546 739 517 740 532 739 b 615 824 588 739 615 775 b 457 960 615 907 550 960 b 179 493 264 960 179 736 b 183 421 179 471 181 439 b 446 601 218 524 306 601 b 736 301 582 601 736 524 b 413 -14 736 122 607 -14 b 51 467 167 -14 51 229 b 457 986 51 757 203 986 m 607 300 b 408 565 607 460 546 565 b 208 300 283 565 208 453 b 417 15 208 149 269 15 b 607 300 546 15 607 136 "},"7":{"ha":688,"x_min":0,"x_max":0,"o":"m 151 972 b 701 972 151 972 701 972 b 701 969 701 972 701 969 b 571 775 701 969 571 775 b 367 13 408 532 367 314 b 218 -1 367 13 218 -1 b 550 789 251 321 378 547 b 601 861 550 789 601 861 b 239 861 601 861 239 861 b 25 733 118 861 72 839 b 22 733 25 733 22 733 b 51 986 22 733 51 986 b 151 972 76 975 110 972 "},"8":{"ha":760,"x_min":0,"x_max":0,"o":"m 453 535 b 722 249 642 467 722 375 b 385 -14 722 99 596 -14 b 38 240 190 -14 38 72 b 286 479 38 361 146 451 b 89 732 178 525 89 617 b 381 986 89 893 213 986 b 678 763 544 986 678 899 b 453 535 678 624 547 558 m 201 767 b 354 576 201 668 261 615 b 439 540 354 576 439 540 b 564 763 506 578 564 649 b 381 961 564 869 503 961 b 201 767 263 961 201 874 m 299 472 b 156 242 203 428 156 339 b 385 14 156 107 236 14 b 604 213 517 14 604 90 b 415 426 604 314 540 378 b 299 472 415 426 299 472 "},"9":{"ha":781,"x_min":0,"x_max":0,"o":"m 174 672 b 372 407 174 513 235 407 b 572 672 497 407 572 519 b 364 957 572 824 511 957 b 174 672 235 957 174 836 m 324 -14 b 60 176 176 -14 60 61 b 171 297 60 249 108 297 b 281 224 217 297 265 276 b 278 224 281 224 278 224 b 235 233 264 232 249 233 b 165 149 193 233 165 197 b 324 13 165 65 231 13 b 601 479 517 13 601 236 b 597 551 601 501 600 533 b 335 371 563 449 475 371 b 44 671 199 371 44 449 b 368 986 44 850 174 986 b 729 506 614 986 729 743 b 324 -14 729 215 578 -14 "},"\u0000":{"ha":656,"x_min":0,"x_max":0,"o":"m 0 0 b 0 972 0 0 0 972 b 600 972 0 972 600 972 b 600 0 600 972 600 0 b 0 0 600 0 0 0 m 69 903 b 69 69 69 903 69 69 b 531 69 69 69 531 69 b 531 903 531 69 531 903 b 69 903 531 903 69 903 "}," ":{"ha":278,"x_min":0,"x_max":0,"o":""},"!":{"ha":361,"x_min":0,"x_max":0,"o":"m 93 972 b 268 972 93 972 268 972 b 185 283 268 972 185 283 b 178 283 185 283 178 283 b 93 972 178 283 93 972 m 275 82 b 181 -12 275 29 233 -12 b 86 82 129 -12 86 29 b 181 178 86 136 129 178 b 275 82 233 178 275 136 "},"\"":{"ha":514,"x_min":0,"x_max":0,"o":"m 363 599 b 360 599 363 599 360 599 b 285 936 360 599 329 832 b 361 986 299 963 328 986 b 438 936 394 986 424 963 b 363 599 393 832 363 599 m 154 599 b 151 599 154 599 151 599 b 76 936 151 599 121 832 b 153 986 90 963 119 986 b 229 936 186 986 215 963 b 154 599 185 832 154 599 "},"#":{"ha":882,"x_min":0,"x_max":0,"o":"m 525 338 b 567 635 525 338 567 635 b 357 635 567 635 357 635 b 315 338 357 635 315 338 b 525 338 315 338 525 338 m 476 0 b 521 310 476 0 521 310 b 311 310 521 310 311 310 b 267 0 311 310 267 0 b 240 0 267 0 240 0 b 285 310 240 0 285 310 b 58 310 285 310 58 310 b 63 338 58 310 63 338 b 289 338 63 338 289 338 b 331 635 289 338 331 635 b 85 635 331 635 85 635 b 89 663 85 635 89 663 b 335 663 89 663 335 663 b 379 972 335 663 379 972 b 406 972 379 972 406 972 b 361 663 406 972 361 663 b 571 663 361 663 571 663 b 615 972 571 663 615 972 b 643 972 615 972 643 972 b 599 663 643 972 599 663 b 824 663 599 663 824 663 b 819 635 824 663 819 635 b 594 635 819 635 594 635 b 553 338 594 635 553 338 b 799 338 553 338 799 338 b 793 310 799 338 793 310 b 549 310 793 310 549 310 b 504 0 549 310 504 0 b 476 0 504 0 476 0 "},"$":{"ha":797,"x_min":0,"x_max":0,"o":"m 401 961 b 356 957 385 961 369 960 b 356 582 356 957 356 582 b 446 554 356 582 446 554 b 446 958 446 554 446 958 b 401 961 432 960 417 961 m 190 771 b 335 589 190 664 243 619 b 335 953 335 589 335 953 b 190 771 243 931 190 860 m 386 11 b 446 15 407 11 428 13 b 446 429 446 15 446 429 b 356 454 446 429 356 454 b 356 13 356 454 356 13 b 386 11 365 11 375 11 m 467 424 b 467 19 467 424 467 19 b 639 231 578 43 639 121 b 467 424 639 331 583 392 m 386 -14 b 356 -14 386 -14 356 -14 b 356 -158 356 -14 356 -158 b 335 -158 356 -158 335 -158 b 335 -12 335 -158 335 -12 b 50 182 163 1 50 83 b 156 289 50 250 99 289 b 235 256 192 289 215 275 b 165 172 193 257 165 231 b 335 15 165 93 232 31 b 335 460 335 15 335 460 b 83 724 186 506 83 575 b 335 982 83 861 183 960 b 335 1125 335 982 335 1125 b 356 1125 335 1125 356 1125 b 356 983 356 1125 356 983 b 401 986 371 985 386 986 b 446 985 417 986 432 986 b 446 1125 446 985 446 1125 b 467 1125 446 1125 467 1125 b 467 983 467 1125 467 983 b 711 811 611 968 711 901 b 614 719 711 744 664 719 b 538 743 585 719 550 729 b 606 826 569 743 606 774 b 467 956 606 892 551 939 b 467 549 467 956 467 549 b 488 542 467 549 488 542 b 742 271 636 497 742 432 b 467 -7 742 115 617 18 b 467 -158 467 -7 467 -158 b 446 -158 467 -158 446 -158 b 446 -10 446 -158 446 -10 b 386 -14 426 -12 406 -14 "},"%":{"ha":871,"x_min":0,"x_max":0,"o":"m 196 0 b 146 0 196 0 146 0 b 657 931 146 0 657 931 b 497 871 624 901 572 871 b 392 890 458 871 425 878 b 422 783 410 860 422 821 b 225 581 422 675 336 581 b 28 783 114 581 28 675 b 225 986 28 892 114 986 b 499 897 339 986 353 897 b 700 999 600 897 638 938 b 717 986 700 999 717 986 b 196 0 717 986 196 0 m 225 604 b 321 783 296 604 321 688 b 225 963 321 879 296 963 b 129 783 154 963 129 879 b 225 604 129 688 154 604 m 646 -7 b 449 196 535 -7 449 88 b 646 399 449 304 535 399 b 843 196 757 399 843 304 b 646 -7 843 88 757 -7 m 646 17 b 742 196 717 17 742 100 b 646 375 742 292 717 375 b 550 196 575 375 550 292 b 646 17 550 100 575 17 "},"&":{"ha":976,"x_min":0,"x_max":0,"o":"m 361 597 b 413 543 361 597 413 543 b 569 775 504 586 569 657 b 410 960 569 872 514 960 b 251 796 308 960 251 892 b 361 597 251 713 297 663 m 413 33 b 654 122 506 33 589 65 b 300 486 654 122 300 486 b 176 261 208 433 176 356 b 413 33 176 128 281 33 m 772 0 b 676 99 772 0 676 99 b 374 -14 600 28 499 -14 b 53 238 200 -14 53 72 b 288 499 53 351 133 439 b 239 549 288 499 239 549 b 149 749 186 601 149 672 b 410 986 149 894 268 986 b 678 775 592 986 678 890 b 428 528 678 649 565 571 b 729 215 428 528 729 215 b 785 388 758 265 776 322 b 685 521 793 457 774 489 b 685 524 685 521 685 524 b 928 524 685 524 928 524 b 928 521 928 524 928 521 b 829 388 850 494 842 454 b 753 192 814 315 789 249 b 825 117 753 192 825 117 b 985 3 878 61 918 31 b 985 0 985 3 985 0 b 772 0 985 0 772 0 "},"'":{"ha":306,"x_min":0,"x_max":0,"o":"m 154 599 b 151 599 154 599 151 599 b 76 936 151 599 121 832 b 153 986 90 963 119 986 b 229 936 186 986 215 963 b 154 599 185 832 154 599 "},"(":{"ha":463,"x_min":0,"x_max":0,"o":"m 68 435 b 421 1040 68 721 231 924 b 443 1040 421 1040 443 1040 b 196 435 297 915 196 686 b 443 -171 196 183 297 -46 b 421 -171 443 -171 421 -171 b 68 435 231 -54 68 149 "},")":{"ha":463,"x_min":0,"x_max":0,"o":"m 42 1040 b 394 435 232 924 394 721 b 42 -171 394 149 232 -54 b 19 -171 42 -171 19 -171 b 267 435 165 -46 267 183 b 19 1040 267 686 165 915 b 42 1040 19 1040 42 1040 "},"*":{"ha":533,"x_min":0,"x_max":0,"o":"m 204 1040 b 329 1040 204 1040 329 1040 b 276 851 307 1019 282 926 b 439 961 347 881 426 932 b 478 842 439 961 478 842 b 282 833 450 857 356 851 b 436 711 332 775 404 717 b 335 638 436 711 335 638 b 267 821 342 669 307 885 b 199 638 226 757 192 669 b 97 711 199 638 97 711 b 251 833 129 717 201 775 b 56 842 178 851 83 857 b 94 961 56 842 94 961 b 257 851 107 932 186 881 b 204 1040 251 926 226 1019 "},"+":{"ha":665,"x_min":0,"x_max":0,"o":"m 604 429 b 350 429 604 429 350 429 b 350 176 350 429 350 176 b 314 176 350 176 314 176 b 314 429 314 176 314 429 b 61 429 314 429 61 429 b 61 465 61 429 61 465 b 314 465 61 465 314 465 b 314 718 314 465 314 718 b 350 718 314 718 350 718 b 350 465 350 718 350 465 b 604 465 350 465 604 465 b 604 429 604 465 604 429 "},",":{"ha":306,"x_min":0,"x_max":0,"o":"m 196 33 b 133 6 183 14 161 6 b 57 82 90 6 57 39 b 149 168 57 132 93 168 b 258 28 215 168 258 114 b 17 -192 258 -93 157 -187 b 17 -171 17 -192 17 -171 b 196 33 128 -157 211 -83 "},"-":{"ha":440,"x_min":0,"x_max":0,"o":"m 47 364 b 47 406 47 364 47 406 b 393 406 47 406 393 406 b 393 364 393 406 393 364 b 47 364 393 364 47 364 "},".":{"ha":306,"x_min":0,"x_max":0,"o":"m 247 82 b 153 -12 247 29 204 -12 b 58 82 100 -12 58 29 b 153 178 58 136 100 178 b 247 82 204 178 247 136 "},"/":{"ha":476,"x_min":0,"x_max":0,"o":"m 0 -171 b 408 1040 0 -171 408 1040 b 449 1040 408 1040 449 1040 b 40 -171 449 1040 40 -171 b 0 -171 40 -171 0 -171 "},":":{"ha":306,"x_min":0,"x_max":0,"o":"m 247 521 b 153 426 247 468 204 426 b 58 521 100 426 58 468 b 153 617 58 575 100 617 b 247 521 204 617 247 575 m 247 82 b 153 -12 247 29 204 -12 b 58 82 100 -12 58 29 b 153 178 58 136 100 178 b 247 82 204 178 247 136 "},";":{"ha":306,"x_min":0,"x_max":0,"o":"m 247 521 b 153 426 247 468 204 426 b 58 521 100 426 58 468 b 153 617 58 575 100 617 b 247 521 204 617 247 575 m 196 33 b 133 6 183 14 161 6 b 57 82 90 6 57 39 b 149 168 57 132 93 168 b 258 28 215 168 258 114 b 17 -192 258 -93 157 -187 b 17 -171 17 -192 17 -171 b 196 33 128 -157 211 -83 "},"<":{"ha":488,"x_min":0,"x_max":0,"o":"m 39 438 b 39 451 39 438 39 451 b 433 681 39 451 433 681 b 433 638 433 681 433 638 b 96 444 433 638 96 444 b 433 251 96 444 433 251 b 433 208 433 251 433 208 b 39 438 433 208 39 438 "},"=":{"ha":672,"x_min":0,"x_max":0,"o":"m 64 519 b 64 556 64 519 64 556 b 608 556 64 556 608 556 b 608 519 608 556 608 519 b 64 519 608 519 64 519 m 64 343 b 64 379 64 343 64 379 b 608 379 64 379 608 379 b 608 343 608 379 608 343 b 64 343 608 343 64 343 "},">":{"ha":488,"x_min":0,"x_max":0,"o":"m 449 451 b 449 438 449 451 449 438 b 54 208 449 438 54 208 b 54 251 54 208 54 251 b 392 444 54 251 392 444 b 54 638 392 444 54 638 b 54 681 54 638 54 681 b 449 451 54 681 449 451 "},"?":{"ha":682,"x_min":0,"x_max":0,"o":"m 331 957 b 146 790 215 957 146 879 b 235 688 146 731 183 688 b 292 704 249 688 275 692 b 294 704 292 704 294 704 b 172 615 272 646 232 615 b 38 763 97 615 38 672 b 331 986 38 885 153 986 b 644 722 521 986 644 867 b 325 383 644 544 492 428 b 325 279 325 383 325 279 b 297 279 325 279 297 279 b 297 510 297 279 297 510 b 531 757 438 539 531 617 b 331 957 531 858 461 957 m 313 178 b 407 82 365 178 407 136 b 313 -12 407 29 365 -12 b 218 82 261 -12 218 29 b 313 178 218 136 261 178 "},"@":{"ha":1268,"x_min":0,"x_max":0,"o":"m 949 635 b 850 235 949 635 850 235 b 936 110 828 149 871 110 b 1150 453 1031 110 1150 219 b 671 900 1150 731 931 900 b 146 322 385 900 146 644 b 663 -190 146 19 363 -190 b 1101 -50 836 -190 972 -153 b 1107 -57 1101 -50 1107 -57 b 663 -228 994 -175 838 -228 b 56 324 314 -228 56 -21 b 671 931 56 681 335 931 b 1213 453 960 931 1213 760 b 924 63 1213 175 1056 63 b 750 210 825 63 750 113 b 543 63 711 126 640 63 b 360 269 435 63 360 140 b 671 636 360 465 494 636 b 826 524 761 636 814 582 b 949 635 851 567 907 619 m 765 314 b 790 422 765 314 790 422 b 694 603 821 547 769 603 b 472 268 567 603 472 432 b 575 107 472 178 508 107 b 765 314 669 107 738 192 "},"A":{"ha":971,"x_min":0,"x_max":0,"o":"m 435 801 b 247 361 435 801 247 361 b 632 361 247 361 632 361 b 435 801 632 361 435 801 m 218 3 b 218 0 218 3 218 0 b -1 0 218 0 -1 0 b -1 3 -1 0 -1 3 b 129 188 53 31 89 96 b 478 986 129 188 478 986 b 482 986 478 986 482 986 b 858 156 482 986 858 156 b 971 3 900 65 917 31 b 971 0 971 3 971 0 b 682 0 971 0 682 0 b 682 3 682 0 682 3 b 746 76 722 19 746 43 b 722 160 746 99 738 126 b 649 325 722 160 649 325 b 232 325 649 325 232 325 b 175 192 232 325 175 192 b 151 96 163 163 151 131 b 218 3 151 54 179 19 "},"B":{"ha":901,"x_min":0,"x_max":0,"o":"m 488 0 b 64 0 488 0 64 0 b 64 3 64 0 64 3 b 143 178 131 31 143 86 b 143 794 143 178 143 794 b 64 969 143 886 131 942 b 64 972 64 969 64 972 b 458 972 64 972 458 972 b 806 724 658 972 806 907 b 546 501 806 590 686 514 b 858 256 686 496 858 419 b 488 0 858 69 713 0 m 268 511 b 443 511 268 511 443 511 b 676 724 586 511 676 583 b 443 936 676 864 586 936 b 268 936 443 936 268 936 b 268 511 268 936 268 511 m 268 36 b 467 36 268 36 467 36 b 725 256 626 36 725 106 b 467 475 725 406 626 475 b 268 475 467 475 268 475 b 268 36 268 475 268 36 "},"C":{"ha":944,"x_min":0,"x_max":0,"o":"m 865 986 b 876 681 865 986 876 681 b 874 681 876 681 874 681 b 546 954 817 840 700 954 b 194 486 322 954 194 756 b 547 49 194 211 358 49 b 893 281 707 49 824 113 b 901 278 893 281 901 278 b 526 -14 868 100 729 -14 b 50 486 256 -14 50 186 b 546 986 50 772 272 986 b 775 938 657 986 732 938 b 865 986 821 938 847 965 "},"D":{"ha":1022,"x_min":0,"x_max":0,"o":"m 64 0 b 64 3 64 0 64 3 b 143 178 131 31 143 86 b 143 794 143 178 143 794 b 64 969 143 886 131 942 b 64 972 64 969 64 972 b 401 972 64 972 401 972 b 972 497 736 972 972 811 b 435 0 972 160 726 0 b 64 0 435 0 64 0 m 268 36 b 410 36 268 36 410 36 b 835 497 639 36 835 160 b 389 936 835 790 640 936 b 268 936 389 936 268 936 b 268 36 268 936 268 36 "},"E":{"ha":892,"x_min":0,"x_max":0,"o":"m 64 972 b 696 972 64 972 696 972 b 763 982 721 972 747 974 b 810 742 763 982 810 742 b 807 742 810 742 807 742 b 500 936 735 874 656 936 b 268 936 500 936 268 936 b 268 511 268 936 268 511 b 464 511 268 511 464 511 b 658 665 576 511 611 536 b 661 665 658 665 661 665 b 661 342 661 665 661 342 b 658 342 661 342 658 342 b 464 475 611 469 576 475 b 268 475 464 475 268 475 b 268 36 268 475 268 36 b 529 36 268 36 529 36 b 849 256 685 36 775 108 b 851 256 849 256 851 256 b 807 0 851 256 807 0 b 64 0 807 0 64 0 b 64 3 64 0 64 3 b 143 178 131 31 143 86 b 143 794 143 178 143 794 b 64 969 143 886 131 942 b 64 972 64 969 64 972 "},"F":{"ha":851,"x_min":0,"x_max":0,"o":"m 268 465 b 268 167 268 465 268 167 b 382 3 268 79 285 36 b 382 0 382 3 382 0 b 64 0 382 0 64 0 b 64 3 64 0 64 3 b 143 178 131 31 143 86 b 143 794 143 178 143 794 b 64 969 143 886 131 942 b 64 972 64 969 64 972 b 690 972 64 972 690 972 b 757 982 715 972 742 974 b 804 742 757 982 804 742 b 801 742 804 742 801 742 b 494 936 729 874 650 936 b 268 936 494 936 268 936 b 268 501 268 936 268 501 b 458 501 268 501 458 501 b 653 656 571 501 606 526 b 656 656 653 656 656 656 b 656 332 656 656 656 332 b 653 332 656 332 653 332 b 458 465 606 460 571 465 b 268 465 458 465 268 465 "},"G":{"ha":1032,"x_min":0,"x_max":0,"o":"m 547 954 b 194 472 322 954 194 758 b 543 39 194 210 338 39 b 796 264 692 39 796 119 b 796 279 796 264 796 279 b 717 454 796 371 783 426 b 717 457 717 454 717 457 b 1000 457 717 457 1000 457 b 1000 454 1000 457 1000 454 b 921 279 933 426 921 371 b 921 -14 921 279 921 -14 b 918 -14 921 -14 918 -14 b 807 163 918 -14 807 163 b 526 -14 775 75 674 -14 b 50 474 251 -14 50 192 b 547 986 50 775 272 986 b 776 938 658 986 733 938 b 867 986 822 938 849 965 b 878 681 867 986 878 681 b 875 681 878 681 875 681 b 547 954 818 840 701 954 "},"H":{"ha":1101,"x_min":0,"x_max":0,"o":"m 143 178 b 143 794 143 178 143 794 b 64 969 143 886 131 942 b 64 972 64 969 64 972 b 347 972 64 972 347 972 b 347 969 347 972 347 969 b 268 794 281 942 268 886 b 268 513 268 794 268 513 b 833 513 268 513 833 513 b 833 794 833 513 833 794 b 754 969 833 886 821 942 b 754 972 754 969 754 972 b 1038 972 754 972 1038 972 b 1038 969 1038 972 1038 969 b 958 794 971 942 958 886 b 958 178 958 794 958 178 b 1038 3 958 86 971 31 b 1038 0 1038 3 1038 0 b 754 0 1038 0 754 0 b 754 3 754 0 754 3 b 833 178 821 31 833 86 b 833 476 833 178 833 476 b 268 476 833 476 268 476 b 268 178 268 476 268 178 b 347 3 268 86 281 31 b 347 0 347 3 347 0 b 64 0 347 0 64 0 b 64 3 64 0 64 3 b 143 178 131 31 143 86 "},"I":{"ha":411,"x_min":0,"x_max":0,"o":"m 268 178 b 347 3 268 86 281 31 b 347 0 347 3 347 0 b 64 0 347 0 64 0 b 64 3 64 0 64 3 b 143 178 131 31 143 86 b 143 794 143 178 143 794 b 64 969 143 886 131 942 b 64 972 64 969 64 972 b 347 972 64 972 347 972 b 347 969 347 972 347 969 b 268 794 281 942 268 886 b 268 178 268 794 268 178 "},"J":{"ha":738,"x_min":0,"x_max":0,"o":"m 490 253 b 490 794 490 253 490 794 b 411 969 490 886 478 942 b 411 972 411 969 411 972 b 694 972 411 972 694 972 b 694 969 694 972 694 969 b 615 794 628 942 615 886 b 615 261 615 794 615 261 b 315 -14 615 83 486 -14 b 29 192 147 -14 29 69 b 158 318 29 269 81 318 b 240 290 189 318 219 308 b 156 182 182 283 156 242 b 315 13 156 88 214 13 b 490 253 443 13 490 111 "},"K":{"ha":964,"x_min":0,"x_max":0,"o":"m 347 0 b 64 0 347 0 64 0 b 64 3 64 0 64 3 b 143 178 131 31 143 86 b 143 794 143 178 143 794 b 64 969 143 886 131 942 b 64 972 64 969 64 972 b 347 972 64 972 347 972 b 347 969 347 972 347 969 b 268 794 281 942 268 886 b 268 461 268 794 268 461 b 658 836 268 461 658 836 b 699 907 683 860 699 885 b 649 969 699 933 681 956 b 649 972 649 969 649 972 b 921 972 649 972 921 972 b 921 969 921 972 921 969 b 704 831 821 932 769 890 b 439 579 704 831 439 579 b 792 156 439 579 792 156 b 971 3 851 86 915 26 b 971 0 971 3 971 0 b 656 0 971 0 656 0 b 656 3 656 0 656 3 b 692 57 682 17 692 29 b 654 132 692 83 678 103 b 356 499 654 132 356 499 b 268 415 356 499 268 415 b 268 178 268 415 268 178 b 347 3 268 86 281 31 b 347 0 347 3 347 0 "},"L":{"ha":843,"x_min":0,"x_max":0,"o":"m 64 972 b 347 972 64 972 347 972 b 347 969 347 972 347 969 b 268 794 281 942 268 886 b 268 36 268 794 268 36 b 493 36 268 36 493 36 b 813 269 649 36 739 122 b 815 269 813 269 815 269 b 771 0 815 269 771 0 b 64 0 771 0 64 0 b 64 3 64 0 64 3 b 143 178 131 31 143 86 b 143 794 143 178 143 794 b 64 969 143 886 131 942 b 64 972 64 969 64 972 "},"M":{"ha":1226,"x_min":0,"x_max":0,"o":"m 182 199 b 286 3 182 93 219 31 b 286 0 286 3 286 0 b 39 0 286 0 39 0 b 39 3 39 0 39 3 b 143 199 106 31 143 93 b 143 794 143 199 143 794 b 64 969 143 886 131 942 b 64 972 64 969 64 972 b 283 972 64 972 283 972 b 632 185 283 972 632 185 b 957 972 632 185 957 972 b 1163 972 957 972 1163 972 b 1163 969 1163 972 1163 969 b 1083 794 1096 942 1083 886 b 1083 182 1083 794 1083 182 b 1176 3 1083 90 1110 31 b 1176 0 1176 3 1176 0 b 869 0 1176 0 869 0 b 869 3 869 0 869 3 b 963 182 936 31 963 90 b 963 892 963 182 963 892 b 589 -15 963 892 589 -15 b 583 -15 589 -15 583 -15 b 182 892 583 -15 182 892 b 182 199 182 892 182 199 "},"N":{"ha":1019,"x_min":0,"x_max":0,"o":"m 990 969 b 886 774 924 942 886 879 b 886 -12 886 774 886 -12 b 883 -12 886 -12 883 -12 b 182 879 883 -12 182 879 b 182 199 182 879 182 199 b 286 3 182 93 219 31 b 286 0 286 3 286 0 b 39 0 286 0 39 0 b 39 3 39 0 39 3 b 143 199 106 31 143 93 b 143 794 143 199 143 794 b 64 969 143 886 131 942 b 64 972 64 969 64 972 b 269 972 64 972 269 972 b 847 228 269 972 847 228 b 847 774 847 228 847 774 b 743 969 847 879 810 942 b 743 972 743 969 743 972 b 990 972 743 972 990 972 b 990 969 990 972 990 969 "},"O":{"ha":1053,"x_min":0,"x_max":0,"o":"m 1003 486 b 526 -14 1003 194 785 -14 b 50 486 268 -14 50 194 b 526 986 50 778 268 986 b 1003 486 785 986 1003 778 m 858 486 b 526 954 858 753 744 954 b 194 486 308 954 194 753 b 526 18 194 219 308 18 b 858 486 744 18 858 219 "},"P":{"ha":865,"x_min":0,"x_max":0,"o":"m 476 403 b 268 403 476 403 268 403 b 268 167 268 403 268 167 b 382 3 268 79 285 36 b 382 0 382 3 382 0 b 64 0 382 0 64 0 b 64 3 64 0 64 3 b 143 178 131 31 143 86 b 143 794 143 178 143 794 b 64 969 143 886 131 942 b 64 972 64 969 64 972 b 476 972 64 972 476 972 b 842 688 688 972 842 878 b 476 403 842 497 688 403 m 268 439 b 453 439 268 439 453 439 b 707 688 632 439 707 539 b 453 936 707 836 632 936 b 268 936 453 936 268 936 b 268 439 268 936 268 439 "},"Q":{"ha":1053,"x_min":0,"x_max":0,"o":"m 899 -200 b 669 7 785 -200 724 -97 b 526 -15 625 -7 576 -15 b 50 485 268 -15 50 193 b 526 985 50 776 268 985 b 1003 485 785 985 1003 776 b 764 50 1003 290 906 133 b 953 -104 817 -31 869 -104 b 1043 -24 1001 -104 1033 -78 b 1047 -24 1043 -24 1047 -24 b 899 -200 1049 -125 1000 -200 m 194 485 b 340 82 194 308 244 161 b 524 260 353 176 408 260 b 732 100 619 260 679 183 b 858 485 815 183 858 321 b 526 953 858 751 744 953 b 194 485 308 953 194 751 m 526 17 b 651 43 572 17 615 26 b 482 217 604 135 558 217 b 363 64 418 217 369 150 b 526 17 408 33 463 17 "},"R":{"ha":957,"x_min":0,"x_max":0,"o":"m 268 936 b 268 493 268 936 268 493 b 461 493 268 493 461 493 b 704 710 604 493 704 546 b 461 936 704 864 617 936 b 268 936 461 936 268 936 m 64 972 b 479 972 64 972 479 972 b 842 717 679 972 842 906 b 522 469 842 539 678 475 b 767 290 664 458 733 389 b 806 174 767 290 806 174 b 969 3 842 65 885 33 b 969 0 969 3 969 0 b 757 0 969 0 757 0 b 678 150 728 24 701 83 b 635 275 678 150 635 275 b 436 457 600 374 557 457 b 268 457 436 457 268 457 b 268 178 268 457 268 178 b 347 3 268 86 281 31 b 347 0 347 3 347 0 b 64 0 347 0 64 0 b 64 3 64 0 64 3 b 143 178 131 31 143 86 b 143 794 143 178 143 794 b 64 969 143 886 131 942 b 64 972 64 969 64 972 "},"S":{"ha":793,"x_min":0,"x_max":0,"o":"m 372 954 b 174 760 269 954 174 892 b 397 558 174 633 278 592 b 735 261 554 515 735 475 b 403 -14 735 69 569 -14 b 161 38 292 -14 215 38 b 74 -14 122 38 100 14 b 58 292 74 -14 58 292 b 61 292 58 292 61 292 b 403 18 138 117 263 18 b 624 226 525 18 624 92 b 363 439 624 365 496 400 b 69 718 219 481 69 528 b 372 986 69 882 208 986 b 599 938 483 986 556 938 b 681 986 644 938 663 965 b 686 704 681 986 686 704 b 683 704 686 704 683 704 b 372 954 621 842 522 954 "},"T":{"ha":994,"x_min":0,"x_max":0,"o":"m 138 972 b 857 972 138 972 857 972 b 924 982 882 972 908 974 b 971 700 924 982 971 700 b 968 700 971 700 968 700 b 675 938 879 856 831 938 b 560 938 675 938 560 938 b 560 167 560 938 560 167 b 646 3 560 75 579 31 b 646 0 646 3 646 0 b 349 0 646 0 349 0 b 349 3 349 0 349 3 b 435 167 415 31 435 75 b 435 938 435 167 435 938 b 319 938 435 938 319 938 b 26 700 164 938 115 856 b 24 700 26 700 24 700 b 71 982 24 700 71 982 b 138 972 86 974 113 972 "},"U":{"ha":1019,"x_min":0,"x_max":0,"o":"m 883 774 b 883 372 883 774 883 372 b 517 -14 883 124 725 -14 b 122 375 264 -14 122 121 b 122 794 122 375 122 794 b 43 969 122 886 110 942 b 43 972 43 969 43 972 b 326 972 43 972 326 972 b 326 969 326 972 326 969 b 247 794 260 942 247 886 b 247 388 247 794 247 388 b 528 44 247 174 333 44 b 844 381 711 44 844 163 b 844 774 844 381 844 774 b 740 969 844 879 807 942 b 740 972 740 969 740 972 b 988 972 740 972 988 972 b 988 969 988 972 988 969 b 883 774 921 942 883 879 "},"V":{"ha":971,"x_min":0,"x_max":0,"o":"m 799 781 b 822 876 811 810 822 842 b 756 969 822 918 794 953 b 756 972 756 969 756 972 b 975 972 756 972 975 972 b 975 969 975 972 975 969 b 844 785 921 942 885 876 b 494 -14 844 785 494 -14 b 490 -14 494 -14 490 -14 b 113 817 490 -14 113 817 b 0 969 71 907 54 942 b 0 972 0 969 0 972 b 289 972 0 972 289 972 b 289 969 289 972 289 969 b 225 896 249 953 225 929 b 249 813 225 874 233 846 b 536 174 249 813 536 174 b 799 781 536 174 799 781 "},"W":{"ha":1303,"x_min":0,"x_max":0,"o":"m 893 -14 b 661 638 893 -14 661 638 b 421 -14 661 638 421 -14 b 417 -14 421 -14 417 -14 b 101 817 417 -14 101 817 b 0 969 67 907 46 942 b 0 972 0 969 0 972 b 274 972 0 972 274 972 b 274 969 274 972 274 969 b 215 896 240 953 215 929 b 235 813 215 874 222 846 b 461 203 235 813 461 203 b 640 697 461 203 640 697 b 597 817 640 697 597 817 b 496 969 563 907 542 942 b 496 972 496 969 496 972 b 765 972 496 972 765 972 b 765 969 765 972 765 969 b 707 896 732 953 707 929 b 726 813 707 874 714 846 b 935 200 726 813 935 200 b 1147 788 935 200 1147 788 b 1160 856 1156 811 1160 835 b 1094 969 1160 904 1138 946 b 1094 972 1094 969 1094 972 b 1311 972 1094 972 1311 972 b 1311 969 1311 972 1311 969 b 1197 803 1264 942 1228 886 b 897 -14 1197 803 897 -14 b 893 -14 897 -14 893 -14 "},"X":{"ha":979,"x_min":0,"x_max":0,"o":"m 224 3 b 224 0 224 3 224 0 b 6 0 224 0 6 0 b 6 3 6 0 6 3 b 176 161 71 32 122 89 b 432 499 176 161 432 499 b 197 817 432 499 197 817 b 54 969 143 890 99 933 b 54 972 54 969 54 972 b 326 972 54 972 326 972 b 326 969 326 972 326 969 b 296 915 306 954 296 939 b 333 831 296 885 314 857 b 522 575 333 831 522 575 b 707 822 522 575 707 822 b 738 901 725 847 738 875 b 699 969 738 928 726 951 b 699 972 699 969 699 972 b 917 972 699 972 917 972 b 917 969 917 972 917 969 b 746 811 851 940 800 883 b 543 546 746 811 543 546 b 831 156 543 546 831 156 b 974 3 885 82 929 39 b 974 0 974 3 974 0 b 701 0 974 0 701 0 b 701 3 701 0 701 3 b 732 57 722 18 732 33 b 694 142 732 88 714 115 b 453 469 694 142 453 469 b 225 164 453 469 225 164 b 186 68 200 131 186 97 b 224 3 188 43 199 21 "},"Y":{"ha":904,"x_min":0,"x_max":0,"o":"m 500 451 b 726 818 500 451 726 818 b 747 886 740 842 747 865 b 694 969 747 922 728 953 b 694 972 694 969 694 972 b 904 972 694 972 904 972 b 904 969 904 972 904 969 b 774 825 847 935 811 886 b 513 404 774 825 513 404 b 513 167 513 404 513 167 b 599 3 513 75 532 31 b 599 0 599 3 599 0 b 306 0 599 0 306 0 b 306 3 306 0 306 3 b 392 167 372 31 392 75 b 392 404 392 167 392 404 b 122 838 392 404 122 838 b 0 969 85 899 54 933 b 0 972 0 969 0 972 b 293 972 0 972 293 972 b 293 969 293 972 293 969 b 243 894 263 953 243 931 b 264 831 243 878 247 857 b 500 451 264 831 500 451 "},"Z":{"ha":908,"x_min":0,"x_max":0,"o":"m 806 0 b 50 0 806 0 50 0 b 50 3 50 0 50 3 b 668 936 50 3 668 936 b 376 936 668 936 376 936 b 83 714 221 936 156 846 b 81 714 83 714 81 714 b 128 982 81 714 128 982 b 194 972 143 974 169 972 b 832 972 194 972 832 972 b 832 969 832 972 832 969 b 218 36 832 969 218 36 b 542 36 218 36 542 36 b 847 283 697 36 753 99 b 850 283 847 283 850 283 b 806 0 850 283 806 0 "},"[":{"ha":435,"x_min":0,"x_max":0,"o":"m 107 -171 b 107 1040 107 -171 107 1040 b 414 1040 107 1040 414 1040 b 414 1035 414 1040 414 1035 b 224 992 414 1035 224 992 b 224 -121 224 992 224 -121 b 414 -165 224 -121 414 -165 b 414 -171 414 -165 414 -171 b 107 -171 414 -171 107 -171 "},"\\":{"ha":476,"x_min":0,"x_max":0,"o":"m 68 1040 b 476 -171 68 1040 476 -171 b 436 -171 476 -171 436 -171 b 28 1040 436 -171 28 1040 b 68 1040 28 1040 68 1040 "},"]":{"ha":435,"x_min":0,"x_max":0,"o":"m 328 1040 b 328 -171 328 1040 328 -171 b 21 -171 328 -171 21 -171 b 21 -165 21 -171 21 -165 b 211 -121 21 -165 211 -121 b 211 992 211 -121 211 992 b 21 1035 211 992 21 1035 b 21 1040 21 1035 21 1040 b 328 1040 21 1040 328 1040 "},"^":{"ha":625,"x_min":0,"x_max":0,"o":"m 310 986 b 315 986 310 986 315 986 b 569 572 315 986 569 572 b 522 572 569 572 522 572 b 313 917 522 572 313 917 b 103 572 313 917 103 572 b 56 572 103 572 56 572 b 310 986 56 572 310 986 "},"_":{"ha":440,"x_min":0,"x_max":0,"o":"m 47 -136 b 47 -94 47 -136 47 -94 b 393 -94 47 -94 393 -94 b 393 -136 393 -94 393 -136 b 47 -136 393 -136 47 -136 "},"`":{"ha":694,"x_min":0,"x_max":0,"o":"m 368 1040 b 467 779 378 950 410 876 b 461 779 467 779 461 779 b 226 1040 354 865 282 949 b 368 1040 226 1040 368 1040 "},"a":{"ha":718,"x_min":0,"x_max":0,"o":"m 733 50 b 733 47 733 50 733 47 b 608 -11 710 14 665 -11 b 485 111 533 -11 492 38 b 482 178 485 117 482 163 b 250 -10 467 81 367 -10 b 53 163 140 -10 53 46 b 375 376 53 311 210 346 b 481 396 375 376 481 396 b 481 475 481 396 481 475 b 319 663 481 576 433 663 b 178 549 217 663 178 610 b 242 475 178 506 203 475 b 260 479 247 475 254 476 b 181 417 253 438 221 417 b 79 518 124 417 79 454 b 319 689 79 608 176 689 b 608 454 500 689 608 619 b 604 154 608 331 604 239 b 692 39 604 78 633 39 b 733 50 707 39 722 43 m 481 369 b 388 351 481 369 388 351 b 183 176 250 325 183 275 b 301 51 183 85 235 51 b 478 254 389 51 475 125 b 481 369 478 254 481 369 "},"b":{"ha":840,"x_min":0,"x_max":0,"o":"m 486 -14 b 228 174 356 -14 256 67 b 93 -14 219 107 169 14 b 113 294 113 68 113 172 b 113 889 113 294 113 889 b 26 1038 113 968 93 1010 b 26 1040 26 1038 26 1040 b 235 1040 26 1040 235 1040 b 235 488 235 1040 235 488 b 486 689 263 594 356 689 b 796 343 657 689 796 561 b 486 -14 796 126 657 -14 m 661 343 b 446 629 661 521 578 629 b 235 389 346 629 235 540 b 235 288 235 389 235 288 b 446 46 235 136 346 46 b 661 343 578 46 661 164 "},"c":{"ha":676,"x_min":0,"x_max":0,"o":"m 396 661 b 179 346 265 661 179 528 b 410 49 179 158 281 49 b 647 221 519 49 607 106 b 656 218 647 221 656 218 b 369 -14 629 69 519 -14 b 44 325 208 -14 44 106 b 396 689 44 551 208 689 b 640 518 546 689 640 608 b 538 414 640 454 594 414 b 453 478 489 414 453 444 b 478 474 461 475 471 474 b 542 549 517 474 542 501 b 396 661 542 610 499 661 "},"d":{"ha":849,"x_min":0,"x_max":0,"o":"m 394 46 b 606 286 494 46 606 135 b 606 388 606 286 606 388 b 394 629 606 539 494 629 b 179 332 263 629 179 511 b 394 46 179 154 263 46 m 606 488 b 606 889 606 488 606 889 b 519 1038 606 968 586 1010 b 519 1040 519 1038 519 1040 b 728 1040 519 1040 728 1040 b 728 151 728 1040 728 151 b 814 3 728 72 747 31 b 814 0 814 3 814 0 b 606 0 814 0 606 0 b 606 188 606 0 606 188 b 354 -14 578 81 485 -14 b 44 332 183 -14 44 114 b 354 689 44 549 183 689 b 606 488 485 689 578 594 "},"e":{"ha":701,"x_min":0,"x_max":0,"o":"m 368 689 b 656 365 568 689 656 556 b 169 365 656 365 169 365 b 418 50 169 181 263 50 b 651 221 522 50 611 106 b 660 218 651 221 660 218 b 372 -14 633 69 525 -14 b 44 338 194 -14 44 115 b 368 689 44 546 193 689 m 172 394 b 524 394 172 394 524 394 b 367 661 524 536 499 661 b 172 394 268 661 179 558 "},"f":{"ha":419,"x_min":0,"x_max":0,"o":"m 125 151 b 125 639 125 151 125 639 b 28 639 125 639 28 639 b 28 647 28 639 28 647 b 125 678 28 647 125 678 b 125 760 125 678 125 760 b 375 1044 125 963 232 1044 b 564 926 483 1044 564 1003 b 475 844 564 881 531 844 b 411 874 447 844 425 854 b 461 940 438 882 461 896 b 375 1022 461 993 426 1022 b 247 803 271 1022 247 924 b 247 675 247 803 247 675 b 433 675 247 675 433 675 b 426 639 433 675 426 639 b 247 639 426 639 247 639 b 247 151 247 639 247 151 b 368 3 247 60 289 26 b 368 0 368 3 368 0 b 46 0 368 0 46 0 b 46 3 46 0 46 3 b 125 151 113 31 125 60 "},"g":{"ha":760,"x_min":0,"x_max":0,"o":"m 725 -75 b 338 -326 725 -231 550 -326 b 8 -149 188 -326 8 -275 b 207 1 8 -65 89 -12 b 56 136 129 10 56 51 b 190 269 56 206 122 251 b 74 463 114 311 74 385 b 343 689 74 588 169 689 b 567 599 442 689 519 656 b 697 706 593 642 633 706 b 788 626 756 706 788 675 b 674 535 788 557 725 535 b 674 538 674 535 674 538 b 699 588 692 550 699 564 b 649 632 699 614 681 632 b 575 588 617 632 590 607 b 614 463 601 551 614 508 b 343 236 614 338 518 236 b 210 260 290 236 247 244 b 135 181 174 247 135 219 b 243 114 135 133 172 114 b 464 114 243 114 464 114 b 725 -75 632 114 725 44 m 343 665 b 203 463 249 665 203 572 b 343 260 203 353 249 260 b 485 463 439 260 485 353 b 343 665 485 572 439 665 m 336 -300 b 618 -132 511 -300 618 -233 b 450 0 618 -39 560 0 b 297 0 450 0 297 0 b 119 -140 186 0 119 -46 b 336 -300 119 -239 213 -300 "},"h":{"ha":818,"x_min":0,"x_max":0,"o":"m 35 1040 b 243 1040 35 1040 243 1040 b 243 482 243 1040 243 482 b 488 689 281 613 368 689 b 704 447 615 689 704 607 b 704 151 704 447 704 151 b 783 3 704 60 717 31 b 783 0 783 3 783 0 b 503 0 783 0 503 0 b 503 3 503 0 503 3 b 582 151 569 31 582 60 b 582 436 582 151 582 436 b 435 619 582 535 544 619 b 243 356 324 619 243 514 b 243 151 243 356 243 151 b 322 3 243 60 256 31 b 322 0 322 3 322 0 b 42 0 322 0 42 0 b 42 3 42 0 42 3 b 121 151 108 31 121 60 b 121 889 121 151 121 889 b 35 1038 121 968 101 1010 b 35 1040 35 1038 35 1040 "},"i":{"ha":361,"x_min":0,"x_max":0,"o":"m 90 913 b 178 999 90 961 128 999 b 265 913 228 999 265 961 b 178 826 265 864 228 826 b 90 913 128 826 90 864 m 247 675 b 247 151 247 675 247 151 b 326 3 247 60 260 31 b 326 0 326 3 326 0 b 46 0 326 0 46 0 b 46 3 46 0 46 3 b 125 151 113 31 125 60 b 125 524 125 151 125 524 b 39 672 125 603 106 644 b 39 675 39 672 39 675 b 247 675 39 675 247 675 "},"j":{"ha":325,"x_min":0,"x_max":0,"o":"m 72 913 b 160 999 72 961 110 999 b 247 913 210 999 247 961 b 160 826 247 864 210 826 b 72 913 110 826 72 864 m -17 -326 b -207 -201 -126 -326 -207 -278 b -118 -122 -207 -156 -174 -122 b -53 -144 -93 -122 -68 -131 b -103 -212 -82 -153 -103 -175 b -10 -304 -103 -272 -69 -304 b 107 -85 76 -304 107 -235 b 107 524 107 -85 107 524 b 21 672 107 603 88 644 b 21 675 21 672 21 675 b 229 675 21 675 229 675 b 229 -75 229 675 229 -75 b -17 -326 229 -257 119 -326 "},"k":{"ha":753,"x_min":0,"x_max":0,"o":"m 243 389 b 285 389 243 389 285 389 b 396 438 326 389 356 396 b 511 563 396 438 511 563 b 536 618 528 581 536 597 b 490 672 536 640 521 661 b 490 675 490 672 490 675 b 744 675 490 675 744 675 b 744 672 744 675 744 672 b 553 556 664 653 611 617 b 410 403 553 556 410 403 b 621 128 410 403 621 128 b 789 3 674 58 721 24 b 789 0 789 3 789 0 b 550 0 789 0 550 0 b 494 100 542 36 519 68 b 322 329 494 100 322 329 b 269 358 306 351 293 358 b 243 358 269 358 243 358 b 243 151 243 358 243 151 b 322 3 243 60 256 31 b 322 0 322 3 322 0 b 42 0 322 0 42 0 b 42 3 42 0 42 3 b 121 151 108 31 121 60 b 121 889 121 151 121 889 b 35 1038 121 968 101 1010 b 35 1040 35 1038 35 1040 b 243 1040 35 1040 243 1040 b 243 389 243 1040 243 389 "},"l":{"ha":357,"x_min":0,"x_max":0,"o":"m 243 1040 b 243 151 243 1040 243 151 b 322 3 243 60 256 31 b 322 0 322 3 322 0 b 42 0 322 0 42 0 b 42 3 42 0 42 3 b 121 151 108 31 121 60 b 121 889 121 151 121 889 b 35 1038 121 968 101 1010 b 35 1040 35 1038 35 1040 b 243 1040 35 1040 243 1040 "},"m":{"ha":1228,"x_min":0,"x_max":0,"o":"m 679 482 b 913 689 710 613 793 689 b 1114 447 1040 689 1114 607 b 1114 151 1114 447 1114 151 b 1193 3 1114 60 1126 31 b 1193 0 1193 3 1193 0 b 913 0 1193 0 913 0 b 913 3 913 0 913 3 b 992 151 979 31 992 60 b 992 436 992 151 992 436 b 860 619 992 535 969 619 b 681 356 749 619 681 514 b 681 151 681 356 681 151 b 760 3 681 60 693 31 b 760 0 760 3 760 0 b 479 0 760 0 479 0 b 479 3 479 0 479 3 b 558 151 546 31 558 60 b 558 436 558 151 558 436 b 426 619 558 535 536 619 b 247 356 315 619 247 514 b 247 151 247 356 247 151 b 326 3 247 60 260 31 b 326 0 326 3 326 0 b 46 0 326 0 46 0 b 46 3 46 0 46 3 b 125 151 113 31 125 60 b 125 524 125 151 125 524 b 39 672 125 603 106 644 b 39 675 39 672 39 675 b 247 675 39 675 247 675 b 247 482 247 675 247 482 b 479 689 278 613 360 689 b 679 482 597 689 669 618 "},"n":{"ha":822,"x_min":0,"x_max":0,"o":"m 39 675 b 247 675 39 675 247 675 b 247 482 247 675 247 482 b 492 689 285 613 372 689 b 708 447 619 689 708 607 b 708 151 708 447 708 151 b 788 3 708 60 721 31 b 788 0 788 3 788 0 b 507 0 788 0 507 0 b 507 3 507 0 507 3 b 586 151 574 31 586 60 b 586 436 586 151 586 436 b 439 619 586 535 549 619 b 247 356 328 619 247 514 b 247 151 247 356 247 151 b 326 3 247 60 260 31 b 326 0 326 3 326 0 b 46 0 326 0 46 0 b 46 3 46 0 46 3 b 125 151 113 31 125 60 b 125 524 125 151 125 524 b 39 672 125 603 106 644 b 39 675 39 672 39 675 "},"o":{"ha":769,"x_min":0,"x_max":0,"o":"m 385 -14 b 44 338 186 -14 44 135 b 385 689 44 540 186 689 b 725 338 583 689 725 540 b 385 -14 725 135 583 -14 m 385 14 b 588 338 513 14 588 157 b 385 661 588 518 513 661 b 182 338 257 661 182 518 b 385 14 182 157 257 14 "},"p":{"ha":847,"x_min":0,"x_max":0,"o":"m 453 629 b 242 389 353 629 242 540 b 242 288 242 389 242 288 b 453 46 242 136 353 46 b 668 343 585 46 668 164 b 453 629 668 521 585 629 m 242 188 b 242 -161 242 188 242 -161 b 321 -310 242 -253 254 -282 b 321 -312 321 -310 321 -312 b 40 -312 321 -312 40 -312 b 40 -310 40 -312 40 -310 b 119 -161 107 -282 119 -253 b 119 524 119 -161 119 524 b 33 672 119 603 100 644 b 33 675 33 672 33 675 b 242 675 33 675 242 675 b 242 488 242 675 242 488 b 493 689 269 594 363 689 b 803 343 664 689 803 561 b 493 -14 803 126 664 -14 b 242 188 363 -14 269 81 "},"q":{"ha":826,"x_min":0,"x_max":0,"o":"m 728 379 b 728 -161 728 379 728 -161 b 807 -310 728 -253 740 -282 b 807 -312 807 -310 807 -312 b 526 -312 807 -312 526 -312 b 526 -310 526 -312 526 -310 b 606 -161 593 -282 606 -253 b 606 188 606 -161 606 188 b 354 -14 578 81 485 -14 b 44 332 183 -14 44 114 b 354 689 44 549 183 689 b 618 501 485 689 590 604 b 744 689 626 579 694 661 b 747 689 744 689 747 689 b 728 379 728 607 728 501 m 606 286 b 606 388 606 286 606 388 b 394 629 606 539 494 629 b 179 332 263 629 179 511 b 394 46 179 154 263 46 b 606 286 494 46 606 135 "},"r":{"ha":617,"x_min":0,"x_max":0,"o":"m 457 486 b 499 549 482 496 499 518 b 424 613 499 586 471 613 b 247 313 329 613 247 475 b 247 151 247 313 247 151 b 368 3 247 60 289 26 b 368 0 368 3 368 0 b 46 0 368 0 46 0 b 46 3 46 0 46 3 b 125 151 113 31 125 60 b 125 524 125 151 125 524 b 39 672 125 603 106 644 b 39 675 39 672 39 675 b 247 675 39 675 247 675 b 247 442 247 675 247 442 b 474 689 278 572 350 689 b 603 578 547 689 603 644 b 503 468 603 501 547 468 b 457 486 482 468 464 476 "},"s":{"ha":638,"x_min":0,"x_max":0,"o":"m 296 661 b 164 542 210 661 164 606 b 332 407 164 474 190 440 b 581 190 517 364 581 301 b 329 -14 581 53 458 -14 b 132 22 233 -14 175 22 b 72 -14 106 22 89 6 b 57 250 72 -14 57 250 b 60 250 57 250 60 250 b 329 14 119 106 201 14 b 481 153 413 14 481 65 b 285 292 481 235 406 264 b 68 500 125 329 68 396 b 296 689 68 622 176 689 b 472 651 382 689 425 651 b 542 689 499 651 518 668 b 542 460 542 689 542 460 b 539 460 542 460 539 460 b 296 661 489 571 407 661 "},"t":{"ha":500,"x_min":0,"x_max":0,"o":"m 460 218 b 471 218 460 218 471 218 b 285 -14 460 85 410 -14 b 108 189 176 -14 108 54 b 108 639 108 189 108 639 b 11 639 108 639 11 639 b 11 647 11 639 11 647 b 219 914 128 671 200 776 b 231 914 219 914 231 914 b 231 675 231 914 231 675 b 447 675 231 675 447 675 b 440 639 447 675 440 639 b 231 639 440 639 231 639 b 231 193 231 639 231 193 b 326 57 231 103 264 57 b 460 218 394 57 442 114 "},"u":{"ha":797,"x_min":0,"x_max":0,"o":"m 563 319 b 563 524 563 319 563 524 b 476 672 563 603 543 644 b 476 675 476 672 476 675 b 685 675 476 675 685 675 b 685 138 685 675 685 138 b 785 3 685 51 719 24 b 785 0 785 3 785 0 b 563 0 785 0 563 0 b 563 201 563 0 563 201 b 313 -14 529 64 435 -14 b 101 228 190 -14 101 68 b 101 524 101 228 101 524 b 15 672 101 603 82 644 b 15 675 15 672 15 675 b 224 675 15 675 224 675 b 224 243 224 675 224 243 b 365 58 224 150 261 58 b 563 319 474 58 563 161 "},"v":{"ha":706,"x_min":0,"x_max":0,"o":"m 397 157 b 560 515 397 157 560 515 b 581 596 574 544 581 572 b 525 672 581 631 565 657 b 525 675 525 672 525 675 b 713 675 525 675 713 675 b 713 672 713 675 713 672 b 604 518 667 640 649 615 b 361 -14 604 518 361 -14 b 358 -14 361 -14 358 -14 b 99 525 358 -14 99 525 b -7 672 53 621 39 640 b -7 675 -7 672 -7 675 b 246 675 -7 675 246 675 b 246 672 246 675 246 672 b 204 611 211 657 204 639 b 228 525 204 590 214 556 b 397 157 228 525 397 157 "},"w":{"ha":1036,"x_min":0,"x_max":0,"o":"m 719 -14 b 531 458 719 -14 531 458 b 331 -14 531 458 331 -14 b 328 -14 331 -14 328 -14 b 99 525 328 -14 99 525 b -7 672 57 622 39 640 b -7 675 -7 672 -7 675 b 242 675 -7 675 242 675 b 242 672 242 675 242 672 b 200 611 207 657 200 639 b 224 525 200 590 213 557 b 369 174 224 525 369 174 b 510 508 369 174 510 508 b 503 525 510 508 503 525 b 397 672 461 622 443 640 b 397 675 397 672 397 675 b 642 675 397 675 642 675 b 642 672 642 675 642 672 b 600 611 607 657 600 639 b 624 525 600 590 613 557 b 757 175 624 525 757 175 b 890 515 757 175 890 515 b 906 588 900 540 906 565 b 847 672 906 626 888 658 b 847 675 847 672 847 675 b 1043 675 847 675 1043 675 b 1043 672 1043 675 1043 672 b 936 521 997 640 976 619 b 722 -14 936 521 722 -14 b 719 -14 722 -14 719 -14 "},"x":{"ha":710,"x_min":0,"x_max":0,"o":"m 174 3 b 174 0 174 3 174 0 b -8 0 174 0 -8 0 b -8 3 -8 0 -8 3 b 167 167 65 44 101 83 b 303 340 167 167 303 340 b 193 508 303 340 193 508 b 25 672 136 596 97 629 b 25 675 25 672 25 675 b 282 675 25 675 282 675 b 282 672 282 675 282 672 b 263 636 267 663 263 650 b 315 525 261 601 292 561 b 388 414 315 525 388 414 b 472 524 388 414 472 524 b 524 631 500 560 524 599 b 497 672 524 649 515 661 b 497 675 497 672 497 675 b 679 675 497 675 679 675 b 679 672 679 675 679 672 b 504 508 606 631 569 590 b 407 385 504 508 407 385 b 549 167 407 385 549 167 b 718 3 607 79 646 46 b 718 0 718 3 718 0 b 461 0 718 0 461 0 b 461 3 461 0 461 3 b 481 39 476 13 481 25 b 428 150 479 72 451 114 b 322 310 428 150 322 310 b 200 151 322 310 200 151 b 147 49 175 119 147 82 b 174 3 147 32 154 15 "},"y":{"ha":706,"x_min":0,"x_max":0,"o":"m 285 -122 b 344 11 285 -122 344 11 b 99 525 344 11 99 525 b -7 672 53 621 39 640 b -7 675 -7 672 -7 675 b 243 675 -7 675 243 675 b 243 672 243 675 243 672 b 201 611 208 657 201 639 b 225 525 201 590 211 556 b 403 147 225 525 403 147 b 563 518 403 147 563 518 b 579 590 574 543 579 568 b 524 672 579 626 563 657 b 524 675 524 672 524 675 b 713 675 524 675 713 675 b 713 672 713 675 713 672 b 601 511 664 640 644 608 b 319 -135 601 511 319 -135 b 114 -326 264 -262 207 -326 b -14 -217 39 -326 -14 -285 b 81 -122 -14 -157 31 -122 b 132 -133 100 -122 115 -125 b 86 -199 100 -143 86 -165 b 154 -267 86 -239 113 -267 b 285 -122 210 -267 240 -221 "},"z":{"ha":688,"x_min":0,"x_max":0,"o":"m 474 643 b 293 643 474 643 293 643 b 63 463 186 643 154 600 b 60 463 63 463 60 463 b 79 683 60 463 79 683 b 163 675 100 679 121 675 b 631 675 163 675 631 675 b 631 672 631 675 631 672 b 190 31 631 672 190 31 b 357 32 190 31 357 32 b 643 235 497 33 551 82 b 646 235 643 235 646 235 b 604 0 646 235 604 0 b 33 0 604 0 33 0 b 33 3 33 0 33 3 b 474 643 33 3 474 643 "},"{":{"ha":499,"x_min":0,"x_max":0,"o":"m 17 431 b 17 439 17 431 17 439 b 182 640 106 442 182 492 b 161 832 182 700 161 760 b 417 1040 161 953 263 1040 b 485 1035 439 1040 463 1039 b 485 1029 485 1035 485 1029 b 279 832 372 1029 279 957 b 303 632 279 775 303 693 b 113 435 303 489 178 442 b 303 238 178 428 303 381 b 279 38 303 176 279 94 b 485 -160 279 -87 372 -160 b 485 -165 485 -160 485 -165 b 417 -171 463 -169 439 -171 b 161 38 263 -171 161 -83 b 182 229 161 110 182 169 b 17 431 182 378 106 428 "},"|":{"ha":260,"x_min":0,"x_max":0,"o":"m 111 -171 b 111 1040 111 -171 111 1040 b 149 1040 111 1040 149 1040 b 149 -171 149 1040 149 -171 b 111 -171 149 -171 111 -171 "},"}":{"ha":499,"x_min":0,"x_max":0,"o":"m 482 439 b 482 431 482 439 482 431 b 317 229 393 428 317 378 b 338 38 317 169 338 110 b 82 -171 338 -83 236 -171 b 14 -165 60 -171 36 -169 b 14 -160 14 -165 14 -160 b 219 38 126 -160 219 -87 b 196 238 219 94 196 176 b 386 435 196 381 321 428 b 196 632 321 442 196 489 b 219 832 196 693 219 775 b 14 1029 219 957 126 1029 b 14 1035 14 1029 14 1035 b 82 1040 36 1039 60 1040 b 338 832 236 1040 338 953 b 317 640 338 760 317 700 b 482 439 317 492 393 442 "},"~":{"ha":692,"x_min":0,"x_max":0,"o":"m 72 342 b 69 342 72 342 69 342 b 240 510 101 454 164 510 b 479 439 326 510 396 439 b 619 517 538 439 589 465 b 622 517 619 517 622 517 b 453 349 590 406 528 349 b 214 419 365 349 297 419 b 72 342 156 419 101 393 "}," ":{"ha":278,"x_min":0,"x_max":0,"o":""},"¡":{"ha":361,"x_min":0,"x_max":0,"o":"m 181 778 b 275 683 233 778 275 736 b 181 588 275 629 233 588 b 86 683 129 588 86 629 b 181 778 86 736 129 778 m 268 -207 b 93 -207 268 -207 93 -207 b 178 482 93 -207 178 482 b 185 482 178 482 185 482 b 268 -207 185 482 268 -207 "},"¢":{"ha":693,"x_min":0,"x_max":0,"o":"m 185 346 b 350 58 185 190 251 88 b 399 661 350 58 399 661 b 185 346 264 660 185 526 m 375 -14 b 368 -14 375 -14 368 -14 b 357 -158 368 -14 357 -158 b 333 -158 357 -158 333 -158 b 344 -12 333 -158 344 -12 b 50 325 188 0 50 117 b 401 689 50 551 206 689 b 413 828 401 689 413 828 b 436 828 413 828 436 828 b 425 688 436 828 425 688 b 646 518 561 681 646 604 b 543 417 646 454 600 417 b 449 482 500 417 464 440 b 485 474 463 475 472 474 b 547 549 522 474 547 506 b 422 660 547 606 510 654 b 374 53 422 660 374 53 b 415 49 388 50 401 49 b 653 221 525 49 613 106 b 661 218 653 221 661 218 b 375 -14 635 69 525 -14 "},"£":{"ha":885,"x_min":0,"x_max":0,"o":"m 657 -35 b 335 124 508 -35 431 60 b 142 -14 282 29 210 -14 b 21 92 71 -14 21 28 b 157 208 21 163 76 208 b 285 179 200 208 242 196 b 297 321 293 221 297 268 b 289 475 297 367 293 419 b 131 475 289 475 131 475 b 131 500 131 475 131 500 b 286 500 131 500 286 500 b 278 671 282 558 278 617 b 579 986 278 861 392 986 b 822 808 740 986 822 906 b 714 696 822 736 772 696 b 611 738 668 696 625 714 b 713 839 668 735 713 769 b 579 965 713 915 668 965 b 417 706 461 965 417 842 b 417 526 417 706 417 526 b 417 500 417 526 417 500 b 639 500 417 500 639 500 b 639 475 639 500 639 475 b 415 475 639 475 415 475 b 349 151 411 336 386 229 b 604 81 426 118 507 81 b 767 190 721 81 767 119 b 746 244 767 210 761 226 b 840 119 804 228 840 179 b 657 -35 840 28 763 -35 m 142 10 b 279 156 210 10 256 64 b 157 183 243 172 204 183 b 54 92 94 183 54 147 b 142 10 54 43 89 10 "},"¥":{"ha":849,"x_min":0,"x_max":0,"o":"m 571 3 b 571 0 571 3 571 0 b 278 0 571 0 278 0 b 278 3 278 0 278 3 b 364 167 344 31 364 75 b 364 350 364 167 364 350 b 110 350 364 350 110 350 b 110 375 110 350 110 375 b 364 375 110 375 364 375 b 364 404 364 375 364 404 b 324 476 364 404 324 476 b 110 476 324 476 110 476 b 110 501 110 476 110 501 b 310 501 110 501 310 501 b 122 838 310 501 122 838 b 0 969 89 899 54 933 b 0 972 0 969 0 972 b 293 972 0 972 293 972 b 293 969 293 972 293 969 b 243 896 263 953 243 931 b 264 831 243 878 249 858 b 472 447 264 831 472 447 b 676 824 472 447 676 824 b 694 890 689 847 694 869 b 642 969 693 925 674 953 b 642 972 642 969 642 972 b 849 972 642 972 849 972 b 849 969 849 972 849 969 b 722 831 794 933 758 896 b 539 501 722 831 539 501 b 739 501 539 501 739 501 b 739 476 739 501 739 476 b 525 476 739 476 525 476 b 485 404 525 476 485 404 b 485 375 485 404 485 375 b 739 375 485 375 739 375 b 739 350 739 375 739 350 b 485 350 739 350 485 350 b 485 167 485 350 485 167 b 571 3 485 75 504 31 "},"§":{"ha":756,"x_min":0,"x_max":0,"o":"m 238 354 b 475 163 238 354 475 163 b 581 50 518 129 557 89 b 607 156 597 75 607 117 b 518 319 607 219 586 264 b 281 511 518 319 281 511 b 175 624 238 544 199 585 b 149 518 158 599 149 557 b 238 354 149 454 169 410 m 360 -312 b 122 -149 226 -312 122 -243 b 215 -49 122 -85 164 -49 b 282 -68 238 -49 267 -54 b 229 -157 253 -81 229 -101 b 360 -290 229 -236 278 -290 b 522 -119 467 -290 522 -218 b 411 79 522 -22 483 22 b 199 247 411 79 199 247 b 83 451 119 310 83 378 b 168 633 83 522 119 589 b 140 754 150 669 140 708 b 396 986 140 882 243 986 b 633 822 529 986 633 917 b 540 722 633 758 592 722 b 474 742 518 722 489 728 b 526 831 503 754 526 775 b 396 964 526 910 478 964 b 233 793 289 964 233 892 b 344 594 233 696 272 651 b 557 426 344 594 557 426 b 672 222 636 364 672 296 b 588 40 672 151 636 85 b 615 -81 606 4 615 -35 b 360 -312 615 -208 513 -312 "},"¨":{"ha":694,"x_min":0,"x_max":0,"o":"m 222 806 b 140 889 175 806 140 843 b 222 971 140 933 175 971 b 304 889 268 971 304 933 b 222 806 304 843 268 806 m 472 806 b 389 889 426 806 389 843 b 472 971 389 933 426 971 b 554 889 518 971 554 933 b 472 806 554 843 518 806 "},"©":{"ha":1125,"x_min":0,"x_max":0,"o":"m 1063 486 b 563 -14 1063 196 839 -14 b 63 486 286 -14 63 196 b 563 986 63 776 286 986 b 1063 486 839 986 1063 776 m 1035 486 b 563 958 1035 760 824 958 b 90 486 301 958 90 760 b 563 14 90 213 301 14 b 1035 486 824 14 1035 213 m 585 757 b 397 492 471 757 397 642 b 614 239 397 331 494 239 b 811 364 697 239 765 271 b 815 364 811 364 815 364 b 575 182 788 254 703 182 b 288 483 410 182 288 306 b 585 786 288 660 415 786 b 736 757 656 786 693 757 b 788 786 760 757 775 772 b 788 608 788 786 788 608 b 785 608 788 608 785 608 b 585 757 746 690 681 757 "},"ª":{"ha":569,"x_min":0,"x_max":0,"o":"m 551 544 b 551 538 551 544 551 538 b 458 496 535 514 501 496 b 364 582 401 496 369 531 b 363 628 364 586 363 618 b 203 497 351 560 285 497 b 64 618 126 497 64 536 b 290 768 64 722 175 746 b 361 781 290 768 361 781 b 361 831 361 781 361 831 b 251 963 361 901 331 963 b 157 890 188 963 157 935 b 203 835 157 858 174 835 b 217 838 207 835 213 836 b 158 792 211 807 188 792 b 82 867 114 792 82 819 b 251 986 82 933 151 986 b 464 822 378 986 464 938 b 460 613 464 735 460 671 b 522 533 460 558 481 533 b 551 544 532 533 543 539 m 361 758 b 303 747 361 758 303 747 b 167 633 211 729 167 696 b 246 551 167 574 201 551 b 360 683 300 551 357 599 b 361 758 360 683 361 758 m 90 367 b 90 394 90 367 90 394 b 485 394 90 394 485 394 b 485 367 485 394 485 367 b 90 367 485 367 90 367 "},"«":{"ha":614,"x_min":0,"x_max":0,"o":"m 19 338 b 19 340 19 338 19 340 b 353 590 135 403 260 490 b 358 590 353 590 358 590 b 185 339 306 486 238 401 b 358 88 238 276 306 192 b 353 88 358 88 353 88 b 19 338 260 188 135 275 m 256 338 b 256 340 256 338 256 340 b 589 590 371 403 496 490 b 594 590 589 590 594 590 b 421 339 542 486 474 401 b 594 88 474 276 542 192 b 589 88 594 88 589 88 b 256 338 496 188 371 275 "},"®":{"ha":668,"x_min":0,"x_max":0,"o":"m 606 714 b 335 443 606 557 485 443 b 63 714 183 443 63 557 b 335 986 63 872 183 986 b 606 714 485 986 606 872 m 583 714 b 335 965 583 861 474 965 b 85 714 196 965 85 861 b 335 464 85 568 196 464 b 583 714 474 464 583 568 m 283 856 b 283 721 283 856 283 721 b 325 721 283 721 325 721 b 394 786 368 721 394 738 b 325 856 394 832 371 856 b 283 856 325 856 283 856 m 194 871 b 346 871 194 871 346 871 b 463 788 411 871 463 847 b 360 711 463 733 411 711 b 442 653 407 708 431 688 b 454 617 442 653 454 617 b 503 567 465 585 476 578 b 503 561 503 567 503 561 b 413 561 503 561 413 561 b 389 610 403 572 394 589 b 374 658 389 610 374 658 b 318 707 365 686 353 707 b 283 707 318 707 283 707 b 283 617 283 707 283 617 b 308 567 283 588 288 578 b 308 561 308 567 308 561 b 194 561 308 561 194 561 b 194 567 194 561 194 567 b 219 617 215 578 219 588 b 219 815 219 617 219 815 b 194 865 219 844 215 854 b 194 871 194 865 194 871 "},"¯":{"ha":694,"x_min":0,"x_max":0,"o":"m 539 833 b 156 833 539 833 156 833 b 156 882 156 833 156 882 b 539 882 156 882 539 882 b 539 833 539 882 539 833 "},"°":{"ha":364,"x_min":0,"x_max":0,"o":"m 336 831 b 182 676 336 746 267 676 b 28 831 97 676 28 746 b 182 985 28 915 97 985 b 336 831 267 985 336 915 m 304 831 b 182 953 304 899 250 953 b 60 831 114 953 60 899 b 182 708 60 763 114 708 b 304 831 250 708 304 763 "},"±":{"ha":665,"x_min":0,"x_max":0,"o":"m 604 503 b 350 503 604 503 350 503 b 350 310 350 503 350 310 b 314 310 350 310 314 310 b 314 503 314 310 314 503 b 61 503 314 503 61 503 b 61 539 61 503 61 539 b 314 539 61 539 314 539 b 314 731 314 539 314 731 b 350 731 314 731 350 731 b 350 539 350 731 350 539 b 604 539 350 539 604 539 b 604 503 604 539 604 503 m 61 186 b 61 221 61 186 61 221 b 604 221 61 221 604 221 b 604 186 604 221 604 186 b 61 186 604 186 61 186 "},"²":{"ha":369,"x_min":0,"x_max":0,"o":"m 167 957 b 100 893 124 957 100 925 b 146 836 100 857 119 836 b 171 843 158 836 164 838 b 172 843 171 843 172 843 b 110 800 163 814 139 800 b 38 875 68 800 38 829 b 167 978 38 936 90 978 b 321 864 251 978 321 943 b 115 639 321 782 256 729 b 208 639 115 639 208 639 b 324 690 274 640 294 644 b 329 690 324 690 329 690 b 313 569 329 690 313 569 b 24 569 313 569 24 569 b 24 571 24 569 24 571 b 233 879 194 733 233 794 b 167 957 233 917 215 957 "},"³":{"ha":367,"x_min":0,"x_max":0,"o":"m 168 585 b 240 681 213 585 240 631 b 147 779 240 749 208 779 b 147 792 147 779 147 792 b 225 885 208 794 225 829 b 171 958 225 922 208 958 b 117 906 135 958 117 931 b 147 863 117 881 128 863 b 160 865 153 863 157 864 b 163 865 160 865 163 865 b 108 836 154 847 135 836 b 50 893 74 836 50 858 b 171 978 50 944 103 978 b 313 882 256 978 313 942 b 204 789 313 825 267 796 b 331 681 275 785 331 746 b 168 564 331 603 258 564 b 28 658 94 564 28 596 b 94 724 28 700 57 724 b 149 693 124 724 142 711 b 146 693 149 693 146 693 b 133 696 142 696 139 696 b 103 649 114 696 103 678 b 168 585 103 611 128 585 "},"´":{"ha":694,"x_min":0,"x_max":0,"o":"m 325 1040 b 467 1040 325 1040 467 1040 b 232 779 411 949 339 865 b 226 779 232 779 226 779 b 325 1040 283 876 315 950 "},"¶":{"ha":721,"x_min":0,"x_max":0,"o":"m 569 825 b 569 -71 569 825 569 -71 b 353 -326 569 -210 490 -326 b 142 -161 242 -326 142 -271 b 240 -61 142 -100 190 -61 b 325 -118 279 -61 313 -79 b 324 -118 325 -118 324 -118 b 285 -107 314 -111 300 -107 b 233 -172 253 -107 233 -135 b 363 -294 233 -244 283 -294 b 538 -71 468 -294 538 -199 b 538 940 538 -71 538 940 b 483 940 538 940 483 940 b 483 178 483 940 483 178 b 451 178 483 178 451 178 b 451 406 451 178 451 406 b 42 689 232 406 42 499 b 451 972 42 879 232 972 b 653 972 451 972 653 972 b 653 969 653 972 653 969 b 569 825 588 933 569 917 "},"·":{"ha":283,"x_min":0,"x_max":0,"o":"m 236 374 b 142 279 236 321 193 279 b 47 374 89 279 47 321 b 142 469 47 428 89 469 b 236 374 193 469 236 428 "},"¸":{"ha":694,"x_min":0,"x_max":0,"o":"m 193 -235 b 204 -222 193 -235 204 -222 b 317 -276 235 -262 278 -276 b 400 -192 365 -276 400 -246 b 275 -111 400 -129 354 -114 b 333 14 275 -111 333 14 b 357 14 333 14 357 14 b 311 -89 357 14 311 -89 b 503 -194 408 -89 503 -119 b 344 -310 503 -268 432 -310 b 193 -235 274 -310 217 -278 "},"¹":{"ha":269,"x_min":0,"x_max":0,"o":"m 92 913 b 18 964 92 946 76 954 b 18 972 18 964 18 972 b 182 972 18 972 182 972 b 182 629 182 972 182 629 b 253 578 182 596 194 588 b 253 569 253 578 253 569 b 21 569 253 569 21 569 b 21 578 21 569 21 578 b 92 629 79 588 92 596 b 92 913 92 629 92 913 "},"º":{"ha":574,"x_min":0,"x_max":0,"o":"m 286 494 b 42 740 147 494 42 599 b 286 986 42 882 147 986 b 532 740 425 986 532 882 b 286 494 532 599 425 494 m 286 521 b 422 740 379 521 422 614 b 286 960 422 867 379 960 b 150 740 193 960 150 867 b 286 521 150 614 193 521 m 90 367 b 90 394 90 367 90 394 b 483 394 90 394 483 394 b 483 367 483 394 483 367 b 90 367 483 367 90 367 "},"»":{"ha":614,"x_min":0,"x_max":0,"o":"m 375 340 b 375 338 375 340 375 338 b 42 88 260 275 135 188 b 36 88 42 88 36 88 b 210 339 89 192 157 276 b 36 590 157 401 89 486 b 42 590 36 590 42 590 b 375 340 135 490 260 403 m 611 340 b 611 338 611 340 611 338 b 278 88 496 275 371 188 b 272 88 278 88 272 88 b 446 339 325 192 393 276 b 272 590 393 401 325 486 b 278 590 272 590 278 590 b 611 340 371 490 496 403 "},"¼":{"ha":563,"x_min":0,"x_max":0,"o":"m 246 913 b 172 964 246 946 231 954 b 172 972 172 964 172 972 b 336 972 172 972 336 972 b 336 629 336 972 336 629 b 407 578 336 596 349 588 b 407 569 407 578 407 569 b 175 569 407 569 175 569 b 175 578 175 569 175 578 b 246 629 233 588 246 596 b 246 913 246 629 246 913 m 28 497 b 535 497 28 497 535 497 b 535 475 535 497 535 475 b 28 475 535 475 28 475 b 28 497 28 475 28 497 m 281 128 b 281 340 281 128 281 340 b 135 128 281 340 135 128 b 281 128 135 128 281 128 m 281 71 b 281 106 281 71 281 106 b 94 106 281 106 94 106 b 94 107 94 106 94 107 b 301 407 94 107 301 407 b 369 407 301 407 369 407 b 369 128 369 407 369 128 b 403 128 369 128 403 128 b 457 167 438 128 442 135 b 461 167 457 167 461 167 b 461 67 461 167 461 67 b 457 67 461 67 457 67 b 403 106 442 99 438 106 b 369 106 403 106 369 106 b 369 71 369 106 369 71 b 401 6 369 33 375 21 b 401 0 401 6 401 0 b 249 0 401 0 249 0 b 249 6 249 0 249 6 b 281 71 275 21 281 33 "},"½":{"ha":563,"x_min":0,"x_max":0,"o":"m 246 913 b 172 964 246 946 231 954 b 172 972 172 964 172 972 b 336 972 172 972 336 972 b 336 629 336 972 336 629 b 407 578 336 596 349 588 b 407 569 407 578 407 569 b 175 569 407 569 175 569 b 175 578 175 569 175 578 b 246 629 233 588 246 596 b 246 913 246 629 246 913 m 28 497 b 535 497 28 497 535 497 b 535 475 535 497 535 475 b 28 475 535 475 28 475 b 28 497 28 475 28 497 m 279 388 b 213 324 236 388 213 356 b 258 267 213 288 232 267 b 283 274 271 267 276 268 b 285 274 283 274 285 274 b 222 231 275 244 251 231 b 150 306 181 231 150 260 b 279 408 150 367 203 408 b 433 294 364 408 433 374 b 228 69 433 213 368 160 b 321 69 228 69 321 69 b 436 121 386 71 407 75 b 442 121 436 121 442 121 b 425 0 442 121 425 0 b 136 0 425 0 136 0 b 136 1 136 0 136 1 b 346 310 307 164 346 225 b 279 388 346 347 328 388 "},"¾":{"ha":563,"x_min":0,"x_max":0,"o":"m 281 585 b 353 681 325 585 353 631 b 260 779 353 749 321 779 b 260 792 260 779 260 792 b 338 885 321 794 338 829 b 283 958 338 922 321 958 b 229 906 247 958 229 931 b 260 863 229 881 240 863 b 272 865 265 863 269 864 b 275 865 272 865 275 865 b 221 836 267 847 247 836 b 163 893 186 836 163 858 b 283 978 163 944 215 978 b 425 882 368 978 425 942 b 317 789 425 825 379 796 b 443 681 388 785 443 746 b 281 564 443 603 371 564 b 140 658 207 564 140 596 b 207 724 140 700 169 724 b 261 693 236 724 254 711 b 258 693 261 693 258 693 b 246 696 254 696 251 696 b 215 649 226 696 215 678 b 281 585 215 611 240 585 m 28 497 b 535 497 28 497 535 497 b 535 475 535 497 535 475 b 28 475 535 475 28 475 b 28 497 28 475 28 497 m 281 128 b 281 340 281 128 281 340 b 135 128 281 340 135 128 b 281 128 135 128 281 128 m 281 71 b 281 106 281 71 281 106 b 94 106 281 106 94 106 b 94 107 94 106 94 107 b 301 407 94 107 301 407 b 369 407 301 407 369 407 b 369 128 369 407 369 128 b 403 128 369 128 403 128 b 457 167 438 128 442 135 b 461 167 457 167 461 167 b 461 67 461 167 461 67 b 457 67 461 67 457 67 b 403 106 442 99 438 106 b 369 106 403 106 369 106 b 369 71 369 106 369 71 b 401 6 369 33 375 21 b 401 0 401 6 401 0 b 249 0 401 0 249 0 b 249 6 249 0 249 6 b 281 71 275 21 281 33 "},"¿":{"ha":682,"x_min":0,"x_max":0,"o":"m 369 588 b 275 683 317 588 275 629 b 369 778 275 736 317 778 b 464 683 421 778 464 736 b 369 588 464 629 421 588 m 351 -192 b 536 -25 467 -192 536 -114 b 447 78 536 35 499 78 b 390 61 433 78 407 74 b 388 61 390 61 388 61 b 510 150 410 119 450 150 b 644 3 585 150 644 93 b 351 -221 644 -119 529 -221 b 38 43 161 -221 38 -101 b 357 382 38 221 190 338 b 357 486 357 382 357 486 b 385 486 357 486 385 486 b 385 256 385 486 385 256 b 151 8 244 226 151 149 b 351 -192 151 -93 221 -192 "},"À":{"ha":971,"x_min":0,"x_max":0,"o":"m 428 1271 b 518 1043 439 1192 461 1128 b 513 1043 518 1043 513 1043 b 275 1271 404 1118 332 1190 b 428 1271 275 1271 428 1271 m 435 801 b 247 361 435 801 247 361 b 632 361 247 361 632 361 b 435 801 632 361 435 801 m 218 3 b 218 0 218 3 218 0 b -1 0 218 0 -1 0 b -1 3 -1 0 -1 3 b 129 188 53 31 89 96 b 478 986 129 188 478 986 b 482 986 478 986 482 986 b 858 156 482 986 858 156 b 971 3 900 65 917 31 b 971 0 971 3 971 0 b 682 0 971 0 682 0 b 682 3 682 0 682 3 b 746 76 722 19 746 43 b 722 160 746 99 738 126 b 649 325 722 160 649 325 b 232 325 649 325 232 325 b 175 192 232 325 175 192 b 151 96 163 163 151 131 b 218 3 151 54 179 19 "},"Á":{"ha":971,"x_min":0,"x_max":0,"o":"m 501 1271 b 654 1271 501 1271 654 1271 b 417 1043 597 1190 525 1118 b 411 1043 417 1043 411 1043 b 501 1271 468 1128 490 1192 m 435 801 b 247 361 435 801 247 361 b 632 361 247 361 632 361 b 435 801 632 361 435 801 m 218 3 b 218 0 218 3 218 0 b -1 0 218 0 -1 0 b -1 3 -1 0 -1 3 b 129 188 53 31 89 96 b 478 986 129 188 478 986 b 482 986 478 986 482 986 b 858 156 482 986 858 156 b 971 3 900 65 917 31 b 971 0 971 3 971 0 b 682 0 971 0 682 0 b 682 3 682 0 682 3 b 746 76 722 19 746 43 b 722 160 746 99 738 126 b 649 325 722 160 649 325 b 232 325 649 325 232 325 b 175 192 232 325 175 192 b 151 96 163 163 151 131 b 218 3 151 54 179 19 "},"Â":{"ha":971,"x_min":0,"x_max":0,"o":"m 676 1031 b 485 1150 604 1065 529 1190 b 293 1031 440 1110 365 1065 b 282 1031 293 1031 282 1031 b 482 1292 358 1101 442 1203 b 488 1292 482 1292 488 1292 b 688 1031 528 1203 611 1101 b 676 1031 688 1031 676 1031 m 435 801 b 247 361 435 801 247 361 b 632 361 247 361 632 361 b 435 801 632 361 435 801 m 218 3 b 218 0 218 3 218 0 b -1 0 218 0 -1 0 b -1 3 -1 0 -1 3 b 129 188 53 31 89 96 b 478 986 129 188 478 986 b 482 986 478 986 482 986 b 858 156 482 986 858 156 b 971 3 900 65 917 31 b 971 0 971 3 971 0 b 682 0 971 0 682 0 b 682 3 682 0 682 3 b 746 76 722 19 746 43 b 722 160 746 99 738 126 b 649 325 722 160 649 325 b 232 325 649 325 232 325 b 175 192 232 325 175 192 b 151 96 163 163 151 131 b 218 3 151 54 179 19 "},"Ã":{"ha":971,"x_min":0,"x_max":0,"o":"m 732 1261 b 581 1072 697 1140 647 1072 b 372 1161 507 1072 432 1161 b 251 1067 317 1161 278 1124 b 238 1067 251 1067 238 1067 b 389 1256 272 1188 322 1256 b 597 1167 463 1256 538 1167 b 718 1261 653 1167 692 1204 b 732 1261 718 1261 732 1261 m 435 801 b 247 361 435 801 247 361 b 632 361 247 361 632 361 b 435 801 632 361 435 801 m 218 3 b 218 0 218 3 218 0 b -1 0 218 0 -1 0 b -1 3 -1 0 -1 3 b 129 188 53 31 89 96 b 478 986 129 188 478 986 b 482 986 478 986 482 986 b 858 156 482 986 858 156 b 971 3 900 65 917 31 b 971 0 971 3 971 0 b 682 0 971 0 682 0 b 682 3 682 0 682 3 b 746 76 722 19 746 43 b 722 160 746 99 738 126 b 649 325 722 160 649 325 b 232 325 649 325 232 325 b 175 192 232 325 175 192 b 151 96 163 163 151 131 b 218 3 151 54 179 19 "},"Ä":{"ha":971,"x_min":0,"x_max":0,"o":"m 360 1069 b 278 1153 313 1069 278 1107 b 360 1235 278 1197 313 1235 b 442 1153 406 1235 442 1197 b 360 1069 442 1107 406 1069 m 610 1069 b 526 1153 564 1069 526 1107 b 610 1235 526 1197 564 1235 b 692 1153 656 1235 692 1197 b 610 1069 692 1107 656 1069 m 435 801 b 247 361 435 801 247 361 b 632 361 247 361 632 361 b 435 801 632 361 435 801 m 218 3 b 218 0 218 3 218 0 b -1 0 218 0 -1 0 b -1 3 -1 0 -1 3 b 129 188 53 31 89 96 b 478 986 129 188 478 986 b 482 986 478 986 482 986 b 858 156 482 986 858 156 b 971 3 900 65 917 31 b 971 0 971 3 971 0 b 682 0 971 0 682 0 b 682 3 682 0 682 3 b 746 76 722 19 746 43 b 722 160 746 99 738 126 b 649 325 722 160 649 325 b 232 325 649 325 232 325 b 175 192 232 325 175 192 b 151 96 163 163 151 131 b 218 3 151 54 179 19 "},"Å":{"ha":971,"x_min":0,"x_max":0,"o":"m 485 1315 b 618 1185 557 1315 618 1256 b 485 1053 618 1111 557 1053 b 351 1185 413 1053 351 1111 b 485 1315 351 1256 413 1315 m 485 1086 b 585 1185 539 1086 585 1129 b 485 1282 585 1238 539 1282 b 385 1185 431 1282 385 1238 b 485 1086 385 1129 431 1086 m 435 801 b 247 361 435 801 247 361 b 632 361 247 361 632 361 b 435 801 632 361 435 801 m 218 3 b 218 0 218 3 218 0 b -1 0 218 0 -1 0 b -1 3 -1 0 -1 3 b 129 188 53 31 89 96 b 478 986 129 188 478 986 b 482 986 478 986 482 986 b 858 156 482 986 858 156 b 971 3 900 65 917 31 b 971 0 971 3 971 0 b 682 0 971 0 682 0 b 682 3 682 0 682 3 b 746 76 722 19 746 43 b 722 160 746 99 738 126 b 649 325 722 160 649 325 b 232 325 649 325 232 325 b 175 192 232 325 175 192 b 151 96 163 163 151 131 b 218 3 151 54 179 19 "},"Æ":{"ha":1456,"x_min":0,"x_max":0,"o":"m 708 931 b 365 417 708 931 365 417 b 708 417 365 417 708 417 b 708 931 708 417 708 931 m 226 3 b 226 0 226 3 226 0 b 0 0 226 0 0 0 b 0 3 0 0 0 3 b 140 156 54 31 86 75 b 606 849 140 156 606 849 b 621 893 617 865 621 881 b 544 969 621 922 597 938 b 544 972 544 969 544 972 b 1260 972 544 972 1260 972 b 1326 982 1285 972 1311 974 b 1374 742 1326 982 1374 742 b 1371 742 1374 742 1371 742 b 1064 936 1299 874 1219 936 b 833 936 1064 936 833 936 b 833 511 833 936 833 511 b 1028 511 833 511 1028 511 b 1222 665 1140 511 1175 536 b 1225 665 1222 665 1225 665 b 1225 342 1225 665 1225 342 b 1222 342 1225 342 1222 342 b 1028 475 1175 469 1140 475 b 833 475 1028 475 833 475 b 833 36 833 475 833 36 b 1093 36 833 36 1093 36 b 1413 256 1249 36 1339 108 b 1415 256 1413 256 1415 256 b 1371 0 1415 256 1371 0 b 629 0 1371 0 629 0 b 629 3 629 0 629 3 b 708 178 696 31 708 86 b 708 381 708 178 708 381 b 340 381 708 381 340 381 b 199 168 340 381 199 168 b 164 78 174 131 164 104 b 226 3 164 42 186 19 "},"Ç":{"ha":944,"x_min":0,"x_max":0,"o":"m 503 -310 b 351 -235 432 -310 375 -278 b 363 -222 351 -235 363 -222 b 475 -276 393 -262 436 -276 b 558 -192 524 -276 558 -246 b 433 -111 558 -129 513 -114 b 479 -12 433 -111 479 -12 b 50 486 232 10 50 204 b 546 986 50 772 272 986 b 775 938 657 986 732 938 b 865 986 821 938 847 965 b 876 681 865 986 876 681 b 874 681 876 681 874 681 b 546 954 817 840 700 954 b 194 486 322 954 194 756 b 547 49 194 211 358 49 b 893 281 707 49 824 113 b 901 278 893 281 901 278 b 526 -14 868 100 729 -14 b 503 -14 526 -14 503 -14 b 469 -89 503 -14 469 -89 b 661 -194 567 -89 661 -119 b 503 -310 661 -268 590 -310 "},"È":{"ha":892,"x_min":0,"x_max":0,"o":"m 407 1271 b 497 1043 418 1192 440 1128 b 492 1043 497 1043 492 1043 b 254 1271 383 1118 311 1190 b 407 1271 254 1271 407 1271 m 64 972 b 696 972 64 972 696 972 b 763 982 721 972 747 974 b 810 742 763 982 810 742 b 807 742 810 742 807 742 b 500 936 735 874 656 936 b 268 936 500 936 268 936 b 268 511 268 936 268 511 b 464 511 268 511 464 511 b 658 665 576 511 611 536 b 661 665 658 665 661 665 b 661 342 661 665 661 342 b 658 342 661 342 658 342 b 464 475 611 469 576 475 b 268 475 464 475 268 475 b 268 36 268 475 268 36 b 529 36 268 36 529 36 b 849 256 685 36 775 108 b 851 256 849 256 851 256 b 807 0 851 256 807 0 b 64 0 807 0 64 0 b 64 3 64 0 64 3 b 143 178 131 31 143 86 b 143 794 143 178 143 794 b 64 969 143 886 131 942 b 64 972 64 969 64 972 "},"É":{"ha":892,"x_min":0,"x_max":0,"o":"m 481 1271 b 633 1271 481 1271 633 1271 b 396 1043 576 1190 504 1118 b 390 1043 396 1043 390 1043 b 481 1271 447 1128 469 1192 m 64 972 b 696 972 64 972 696 972 b 763 982 721 972 747 974 b 810 742 763 982 810 742 b 807 742 810 742 807 742 b 500 936 735 874 656 936 b 268 936 500 936 268 936 b 268 511 268 936 268 511 b 464 511 268 511 464 511 b 658 665 576 511 611 536 b 661 665 658 665 661 665 b 661 342 661 665 661 342 b 658 342 661 342 658 342 b 464 475 611 469 576 475 b 268 475 464 475 268 475 b 268 36 268 475 268 36 b 529 36 268 36 529 36 b 849 256 685 36 775 108 b 851 256 849 256 851 256 b 807 0 851 256 807 0 b 64 0 807 0 64 0 b 64 3 64 0 64 3 b 143 178 131 31 143 86 b 143 794 143 178 143 794 b 64 969 143 886 131 942 b 64 972 64 969 64 972 "},"Ê":{"ha":892,"x_min":0,"x_max":0,"o":"m 644 1031 b 453 1150 572 1065 497 1190 b 261 1031 408 1110 333 1065 b 250 1031 261 1031 250 1031 b 450 1292 326 1101 410 1203 b 456 1292 450 1292 456 1292 b 656 1031 496 1203 579 1101 b 644 1031 656 1031 644 1031 m 64 972 b 696 972 64 972 696 972 b 763 982 721 972 747 974 b 810 742 763 982 810 742 b 807 742 810 742 807 742 b 500 936 735 874 656 936 b 268 936 500 936 268 936 b 268 511 268 936 268 511 b 464 511 268 511 464 511 b 658 665 576 511 611 536 b 661 665 658 665 661 665 b 661 342 661 665 661 342 b 658 342 661 342 658 342 b 464 475 611 469 576 475 b 268 475 464 475 268 475 b 268 36 268 475 268 36 b 529 36 268 36 529 36 b 849 256 685 36 775 108 b 851 256 849 256 851 256 b 807 0 851 256 807 0 b 64 0 807 0 64 0 b 64 3 64 0 64 3 b 143 178 131 31 143 86 b 143 794 143 178 143 794 b 64 969 143 886 131 942 b 64 972 64 969 64 972 "},"Ë":{"ha":892,"x_min":0,"x_max":0,"o":"m 329 1069 b 247 1153 282 1069 247 1107 b 329 1235 247 1197 282 1235 b 411 1153 375 1235 411 1197 b 329 1069 411 1107 375 1069 m 579 1069 b 496 1153 533 1069 496 1107 b 579 1235 496 1197 533 1235 b 661 1153 625 1235 661 1197 b 579 1069 661 1107 625 1069 m 64 972 b 696 972 64 972 696 972 b 763 982 721 972 747 974 b 810 742 763 982 810 742 b 807 742 810 742 807 742 b 500 936 735 874 656 936 b 268 936 500 936 268 936 b 268 511 268 936 268 511 b 464 511 268 511 464 511 b 658 665 576 511 611 536 b 661 665 658 665 661 665 b 661 342 661 665 661 342 b 658 342 661 342 658 342 b 464 475 611 469 576 475 b 268 475 464 475 268 475 b 268 36 268 475 268 36 b 529 36 268 36 529 36 b 849 256 685 36 775 108 b 851 256 849 256 851 256 b 807 0 851 256 807 0 b 64 0 807 0 64 0 b 64 3 64 0 64 3 b 143 178 131 31 143 86 b 143 794 143 178 143 794 b 64 969 143 886 131 942 b 64 972 64 969 64 972 "},"Ì":{"ha":411,"x_min":0,"x_max":0,"o":"m 149 1271 b 239 1043 160 1192 182 1128 b 233 1043 239 1043 233 1043 b -4 1271 125 1118 53 1190 b 149 1271 -4 1271 149 1271 m 268 178 b 347 3 268 86 281 31 b 347 0 347 3 347 0 b 64 0 347 0 64 0 b 64 3 64 0 64 3 b 143 178 131 31 143 86 b 143 794 143 178 143 794 b 64 969 143 886 131 942 b 64 972 64 969 64 972 b 347 972 64 972 347 972 b 347 969 347 972 347 969 b 268 794 281 942 268 886 b 268 178 268 794 268 178 "},"Í":{"ha":411,"x_min":0,"x_max":0,"o":"m 222 1271 b 375 1271 222 1271 375 1271 b 138 1043 318 1190 246 1118 b 132 1043 138 1043 132 1043 b 222 1271 189 1128 211 1192 m 268 178 b 347 3 268 86 281 31 b 347 0 347 3 347 0 b 64 0 347 0 64 0 b 64 3 64 0 64 3 b 143 178 131 31 143 86 b 143 794 143 178 143 794 b 64 969 143 886 131 942 b 64 972 64 969 64 972 b 347 972 64 972 347 972 b 347 969 347 972 347 969 b 268 794 281 942 268 886 b 268 178 268 794 268 178 "},"Î":{"ha":411,"x_min":0,"x_max":0,"o":"m 397 1031 b 206 1150 325 1065 250 1190 b 14 1031 161 1110 86 1065 b 3 1031 14 1031 3 1031 b 203 1292 79 1101 163 1203 b 208 1292 203 1292 208 1292 b 408 1031 249 1203 332 1101 b 397 1031 408 1031 397 1031 m 268 178 b 347 3 268 86 281 31 b 347 0 347 3 347 0 b 64 0 347 0 64 0 b 64 3 64 0 64 3 b 143 178 131 31 143 86 b 143 794 143 178 143 794 b 64 969 143 886 131 942 b 64 972 64 969 64 972 b 347 972 64 972 347 972 b 347 969 347 972 347 969 b 268 794 281 942 268 886 b 268 178 268 794 268 178 "},"Ï":{"ha":411,"x_min":0,"x_max":0,"o":"m 81 1069 b -1 1153 33 1069 -1 1107 b 81 1235 -1 1197 33 1235 b 163 1153 126 1235 163 1197 b 81 1069 163 1107 126 1069 m 331 1069 b 247 1153 285 1069 247 1107 b 331 1235 247 1197 285 1235 b 413 1153 376 1235 413 1197 b 331 1069 413 1107 376 1069 m 268 178 b 347 3 268 86 281 31 b 347 0 347 3 347 0 b 64 0 347 0 64 0 b 64 3 64 0 64 3 b 143 178 131 31 143 86 b 143 794 143 178 143 794 b 64 969 143 886 131 942 b 64 972 64 969 64 972 b 347 972 64 972 347 972 b 347 969 347 972 347 969 b 268 794 281 942 268 886 b 268 178 268 794 268 178 "},"Ð":{"ha":1022,"x_min":0,"x_max":0,"o":"m 435 0 b 64 0 435 0 64 0 b 64 3 64 0 64 3 b 143 178 131 31 143 86 b 143 476 143 178 143 476 b 64 476 143 476 64 476 b 64 513 64 476 64 513 b 143 513 64 513 143 513 b 143 794 143 513 143 794 b 64 969 143 886 131 942 b 64 972 64 969 64 972 b 401 972 64 972 401 972 b 972 497 736 972 972 811 b 435 0 972 160 726 0 m 268 36 b 410 36 268 36 410 36 b 835 497 639 36 835 160 b 389 936 835 790 640 936 b 268 936 389 936 268 936 b 268 513 268 936 268 513 b 476 513 268 513 476 513 b 476 476 476 513 476 476 b 268 476 476 476 268 476 b 268 36 268 476 268 36 "},"Ñ":{"ha":1019,"x_min":0,"x_max":0,"o":"m 775 1261 b 624 1072 740 1140 690 1072 b 415 1161 550 1072 475 1161 b 294 1067 360 1161 321 1124 b 281 1067 294 1067 281 1067 b 432 1256 315 1188 365 1256 b 640 1167 506 1256 581 1167 b 761 1261 696 1167 735 1204 b 775 1261 761 1261 775 1261 m 990 969 b 886 774 924 942 886 879 b 886 -12 886 774 886 -12 b 883 -12 886 -12 883 -12 b 182 879 883 -12 182 879 b 182 199 182 879 182 199 b 286 3 182 93 219 31 b 286 0 286 3 286 0 b 39 0 286 0 39 0 b 39 3 39 0 39 3 b 143 199 106 31 143 93 b 143 794 143 199 143 794 b 64 969 143 886 131 942 b 64 972 64 969 64 972 b 269 972 64 972 269 972 b 847 228 269 972 847 228 b 847 774 847 228 847 774 b 743 969 847 879 810 942 b 743 972 743 969 743 972 b 990 972 743 972 990 972 b 990 969 990 972 990 969 "},"Ò":{"ha":1053,"x_min":0,"x_max":0,"o":"m 469 1271 b 560 1043 481 1192 503 1128 b 554 1043 560 1043 554 1043 b 317 1271 446 1118 374 1190 b 469 1271 317 1271 469 1271 m 1003 486 b 526 -14 1003 194 785 -14 b 50 486 268 -14 50 194 b 526 986 50 778 268 986 b 1003 486 785 986 1003 778 m 858 486 b 526 954 858 753 744 954 b 194 486 308 954 194 753 b 526 18 194 219 308 18 b 858 486 744 18 858 219 "},"Ó":{"ha":1053,"x_min":0,"x_max":0,"o":"m 543 1271 b 696 1271 543 1271 696 1271 b 458 1043 639 1190 567 1118 b 453 1043 458 1043 453 1043 b 543 1271 510 1128 532 1192 m 1003 486 b 526 -14 1003 194 785 -14 b 50 486 268 -14 50 194 b 526 986 50 778 268 986 b 1003 486 785 986 1003 778 m 858 486 b 526 954 858 753 744 954 b 194 486 308 954 194 753 b 526 18 194 219 308 18 b 858 486 744 18 858 219 "},"Ô":{"ha":1053,"x_min":0,"x_max":0,"o":"m 718 1031 b 526 1150 646 1065 571 1190 b 335 1031 482 1110 407 1065 b 324 1031 335 1031 324 1031 b 524 1292 400 1101 483 1203 b 529 1292 524 1292 529 1292 b 729 1031 569 1203 653 1101 b 718 1031 729 1031 718 1031 m 1003 486 b 526 -14 1003 194 785 -14 b 50 486 268 -14 50 194 b 526 986 50 778 268 986 b 1003 486 785 986 1003 778 m 858 486 b 526 954 858 753 744 954 b 194 486 308 954 194 753 b 526 18 194 219 308 18 b 858 486 744 18 858 219 "},"Õ":{"ha":1053,"x_min":0,"x_max":0,"o":"m 774 1261 b 622 1072 739 1140 689 1072 b 414 1161 549 1072 474 1161 b 293 1067 358 1161 319 1124 b 279 1067 293 1067 279 1067 b 431 1256 314 1188 364 1256 b 639 1167 504 1256 579 1167 b 760 1261 694 1167 733 1204 b 774 1261 760 1261 774 1261 m 1003 486 b 526 -14 1003 194 785 -14 b 50 486 268 -14 50 194 b 526 986 50 778 268 986 b 1003 486 785 986 1003 778 m 858 486 b 526 954 858 753 744 954 b 194 486 308 954 194 753 b 526 18 194 219 308 18 b 858 486 744 18 858 219 "},"Ö":{"ha":1053,"x_min":0,"x_max":0,"o":"m 401 1069 b 319 1153 354 1069 319 1107 b 401 1235 319 1197 354 1235 b 483 1153 447 1235 483 1197 b 401 1069 483 1107 447 1069 m 651 1069 b 568 1153 606 1069 568 1107 b 651 1235 568 1197 606 1235 b 733 1153 697 1235 733 1197 b 651 1069 733 1107 697 1069 m 1003 486 b 526 -14 1003 194 785 -14 b 50 486 268 -14 50 194 b 526 986 50 778 268 986 b 1003 486 785 986 1003 778 m 858 486 b 526 954 858 753 744 954 b 194 486 308 954 194 753 b 526 18 194 219 308 18 b 858 486 744 18 858 219 "},"×":{"ha":553,"x_min":0,"x_max":0,"o":"m 253 450 b 68 636 253 450 68 636 b 93 661 68 636 93 661 b 276 475 93 661 276 475 b 460 661 276 475 460 661 b 485 636 460 661 485 636 b 300 450 485 636 300 450 b 485 264 300 450 485 264 b 460 239 485 264 460 239 b 276 425 460 239 276 425 b 93 239 276 425 93 239 b 68 264 93 239 68 264 b 253 450 68 264 253 450 "},"Ø":{"ha":1053,"x_min":0,"x_max":0,"o":"m 194 486 b 250 203 194 378 214 281 b 793 789 250 203 793 789 b 526 954 738 892 649 954 b 194 486 308 954 194 753 m 526 18 b 858 486 744 18 858 219 b 807 760 858 590 842 685 b 265 174 807 760 265 174 b 526 18 321 78 408 18 m 526 -14 b 207 111 406 -14 293 32 b 90 -15 207 111 90 -15 b 67 4 90 -15 67 4 b 186 133 67 4 186 133 b 50 486 103 221 50 343 b 526 986 50 778 268 986 b 853 854 651 986 767 938 b 965 976 853 854 965 976 b 989 957 965 976 989 957 b 874 832 989 957 874 832 b 1003 486 953 744 1003 625 b 526 -14 1003 194 785 -14 "},"Ù":{"ha":1019,"x_min":0,"x_max":0,"o":"m 483 1271 b 574 1043 494 1192 517 1128 b 568 1043 574 1043 568 1043 b 331 1271 460 1118 388 1190 b 483 1271 331 1271 483 1271 m 883 774 b 883 372 883 774 883 372 b 517 -14 883 124 725 -14 b 122 375 264 -14 122 121 b 122 794 122 375 122 794 b 43 969 122 886 110 942 b 43 972 43 969 43 972 b 326 972 43 972 326 972 b 326 969 326 972 326 969 b 247 794 260 942 247 886 b 247 388 247 794 247 388 b 528 44 247 174 333 44 b 844 381 711 44 844 163 b 844 774 844 381 844 774 b 740 969 844 879 807 942 b 740 972 740 969 740 972 b 988 972 740 972 988 972 b 988 969 988 972 988 969 b 883 774 921 942 883 879 "},"Ú":{"ha":1019,"x_min":0,"x_max":0,"o":"m 557 1271 b 710 1271 557 1271 710 1271 b 472 1043 653 1190 581 1118 b 467 1043 472 1043 467 1043 b 557 1271 524 1128 546 1192 m 883 774 b 883 372 883 774 883 372 b 517 -14 883 124 725 -14 b 122 375 264 -14 122 121 b 122 794 122 375 122 794 b 43 969 122 886 110 942 b 43 972 43 969 43 972 b 326 972 43 972 326 972 b 326 969 326 972 326 969 b 247 794 260 942 247 886 b 247 388 247 794 247 388 b 528 44 247 174 333 44 b 844 381 711 44 844 163 b 844 774 844 381 844 774 b 740 969 844 879 807 942 b 740 972 740 969 740 972 b 988 972 740 972 988 972 b 988 969 988 972 988 969 b 883 774 921 942 883 879 "},"Û":{"ha":1019,"x_min":0,"x_max":0,"o":"m 732 1031 b 540 1150 660 1065 585 1190 b 349 1031 496 1110 421 1065 b 338 1031 349 1031 338 1031 b 538 1292 414 1101 497 1203 b 543 1292 538 1292 543 1292 b 743 1031 583 1203 667 1101 b 732 1031 743 1031 732 1031 m 883 774 b 883 372 883 774 883 372 b 517 -14 883 124 725 -14 b 122 375 264 -14 122 121 b 122 794 122 375 122 794 b 43 969 122 886 110 942 b 43 972 43 969 43 972 b 326 972 43 972 326 972 b 326 969 326 972 326 969 b 247 794 260 942 247 886 b 247 388 247 794 247 388 b 528 44 247 174 333 44 b 844 381 711 44 844 163 b 844 774 844 381 844 774 b 740 969 844 879 807 942 b 740 972 740 969 740 972 b 988 972 740 972 988 972 b 988 969 988 972 988 969 b 883 774 921 942 883 879 "},"Ü":{"ha":1019,"x_min":0,"x_max":0,"o":"m 415 1069 b 333 1153 368 1069 333 1107 b 415 1235 333 1197 368 1235 b 497 1153 461 1235 497 1197 b 415 1069 497 1107 461 1069 m 665 1069 b 582 1153 619 1069 582 1107 b 665 1235 582 1197 619 1235 b 747 1153 711 1235 747 1197 b 665 1069 747 1107 711 1069 m 883 774 b 883 372 883 774 883 372 b 517 -14 883 124 725 -14 b 122 375 264 -14 122 121 b 122 794 122 375 122 794 b 43 969 122 886 110 942 b 43 972 43 969 43 972 b 326 972 43 972 326 972 b 326 969 326 972 326 969 b 247 794 260 942 247 886 b 247 388 247 794 247 388 b 528 44 247 174 333 44 b 844 381 711 44 844 163 b 844 774 844 381 844 774 b 740 969 844 879 807 942 b 740 972 740 969 740 972 b 988 972 740 972 988 972 b 988 969 988 972 988 969 b 883 774 921 942 883 879 "},"Ý":{"ha":904,"x_min":0,"x_max":0,"o":"m 496 1271 b 649 1271 496 1271 649 1271 b 411 1043 592 1190 519 1118 b 406 1043 411 1043 406 1043 b 496 1271 463 1128 485 1192 m 500 451 b 726 818 500 451 726 818 b 747 886 740 842 747 865 b 694 969 747 922 728 953 b 694 972 694 969 694 972 b 904 972 694 972 904 972 b 904 969 904 972 904 969 b 774 825 847 935 811 886 b 513 404 774 825 513 404 b 513 167 513 404 513 167 b 599 3 513 75 532 31 b 599 0 599 3 599 0 b 306 0 599 0 306 0 b 306 3 306 0 306 3 b 392 167 372 31 392 75 b 392 404 392 167 392 404 b 122 838 392 404 122 838 b 0 969 85 899 54 933 b 0 972 0 969 0 972 b 293 972 0 972 293 972 b 293 969 293 972 293 969 b 243 894 263 953 243 931 b 264 831 243 878 247 857 b 500 451 264 831 500 451 "},"Þ":{"ha":865,"x_min":0,"x_max":0,"o":"m 268 794 b 268 778 268 794 268 778 b 476 778 268 778 476 778 b 842 493 688 778 842 683 b 476 208 842 303 688 208 b 268 208 476 208 268 208 b 268 167 268 208 268 167 b 382 3 268 79 285 36 b 382 0 382 3 382 0 b 64 0 382 0 64 0 b 64 3 64 0 64 3 b 143 178 131 31 143 86 b 143 794 143 178 143 794 b 64 969 143 886 131 942 b 64 972 64 969 64 972 b 347 972 64 972 347 972 b 347 969 347 972 347 969 b 268 794 281 942 268 886 m 268 244 b 453 244 268 244 453 244 b 707 493 632 244 707 344 b 453 742 707 642 632 742 b 268 742 453 742 268 742 b 268 244 268 742 268 244 "},"ß":{"ha":844,"x_min":0,"x_max":0,"o":"m 247 760 b 247 0 247 760 247 0 b 46 0 247 0 46 0 b 46 3 46 0 46 3 b 125 151 113 31 125 60 b 125 639 125 151 125 639 b 28 639 125 639 28 639 b 28 647 28 639 28 647 b 125 678 28 647 125 678 b 125 726 125 678 125 726 b 443 1044 125 972 308 1044 b 689 878 578 1044 689 989 b 536 681 689 778 603 733 b 453 564 478 635 453 608 b 624 419 453 515 485 481 b 817 192 750 364 817 303 b 582 -14 817 67 711 -14 b 413 22 486 -14 456 22 b 353 -14 386 22 369 6 b 338 250 353 -14 338 250 b 340 250 338 250 340 250 b 582 14 415 90 468 14 b 714 147 665 14 714 76 b 540 322 714 232 653 269 b 376 507 415 381 376 425 b 518 700 376 582 426 624 b 604 871 574 746 604 793 b 443 1022 604 961 551 1022 b 247 760 324 1022 247 929 "},"à":{"ha":718,"x_min":0,"x_max":0,"o":"m 310 1040 b 408 779 319 950 351 876 b 403 779 408 779 403 779 b 168 1040 296 865 224 949 b 310 1040 168 1040 310 1040 m 733 50 b 733 47 733 50 733 47 b 608 -11 710 14 665 -11 b 485 111 533 -11 492 38 b 482 178 485 117 482 163 b 250 -10 467 81 367 -10 b 53 163 140 -10 53 46 b 375 376 53 311 210 346 b 481 396 375 376 481 396 b 481 475 481 396 481 475 b 319 663 481 576 433 663 b 178 549 217 663 178 610 b 242 475 178 506 203 475 b 260 479 247 475 254 476 b 181 417 253 438 221 417 b 79 518 124 417 79 454 b 319 689 79 608 176 689 b 608 454 500 689 608 619 b 604 154 608 331 604 239 b 692 39 604 78 633 39 b 733 50 707 39 722 43 m 481 369 b 388 351 481 369 388 351 b 183 176 250 325 183 275 b 301 51 183 85 235 51 b 478 254 389 51 475 125 b 481 369 478 254 481 369 "},"á":{"ha":718,"x_min":0,"x_max":0,"o":"m 372 1040 b 514 1040 372 1040 514 1040 b 279 779 458 949 386 865 b 274 779 279 779 274 779 b 372 1040 331 876 363 950 m 733 50 b 733 47 733 50 733 47 b 608 -11 710 14 665 -11 b 485 111 533 -11 492 38 b 482 178 485 117 482 163 b 250 -10 467 81 367 -10 b 53 163 140 -10 53 46 b 375 376 53 311 210 346 b 481 396 375 376 481 396 b 481 475 481 396 481 475 b 319 663 481 576 433 663 b 178 549 217 663 178 610 b 242 475 178 506 203 475 b 260 479 247 475 254 476 b 181 417 253 438 221 417 b 79 518 124 417 79 454 b 319 689 79 608 176 689 b 608 454 500 689 608 619 b 604 154 608 331 604 239 b 692 39 604 78 633 39 b 733 50 707 39 722 43 m 481 369 b 388 351 481 369 388 351 b 183 176 250 325 183 275 b 301 51 183 85 235 51 b 478 254 389 51 475 125 b 481 369 478 254 481 369 "},"â":{"ha":718,"x_min":0,"x_max":0,"o":"m 546 767 b 354 901 474 804 399 944 b 163 767 310 858 235 804 b 151 767 163 767 151 767 b 351 1050 228 843 311 953 b 357 1050 351 1050 357 1050 b 557 767 397 953 481 843 b 546 767 557 767 546 767 m 733 50 b 733 47 733 50 733 47 b 608 -11 710 14 665 -11 b 485 111 533 -11 492 38 b 482 178 485 117 482 163 b 250 -10 467 81 367 -10 b 53 163 140 -10 53 46 b 375 376 53 311 210 346 b 481 396 375 376 481 396 b 481 475 481 396 481 475 b 319 663 481 576 433 663 b 178 549 217 663 178 610 b 242 475 178 506 203 475 b 260 479 247 475 254 476 b 181 417 253 438 221 417 b 79 518 124 417 79 454 b 319 689 79 608 176 689 b 608 454 500 689 608 619 b 604 154 608 331 604 239 b 692 39 604 78 633 39 b 733 50 707 39 722 43 m 481 369 b 388 351 481 369 388 351 b 183 176 250 325 183 275 b 301 51 183 85 235 51 b 478 254 389 51 475 125 b 481 369 478 254 481 369 "},"ã":{"ha":718,"x_min":0,"x_max":0,"o":"m 601 997 b 450 808 567 876 517 808 b 242 897 376 808 301 897 b 121 803 186 897 147 860 b 107 803 121 803 107 803 b 258 992 142 924 192 992 b 467 903 332 992 407 903 b 588 997 522 903 561 940 b 601 997 588 997 601 997 m 733 50 b 733 47 733 50 733 47 b 608 -11 710 14 665 -11 b 485 111 533 -11 492 38 b 482 178 485 117 482 163 b 250 -10 467 81 367 -10 b 53 163 140 -10 53 46 b 375 376 53 311 210 346 b 481 396 375 376 481 396 b 481 475 481 396 481 475 b 319 663 481 576 433 663 b 178 549 217 663 178 610 b 242 475 178 506 203 475 b 260 479 247 475 254 476 b 181 417 253 438 221 417 b 79 518 124 417 79 454 b 319 689 79 608 176 689 b 608 454 500 689 608 619 b 604 154 608 331 604 239 b 692 39 604 78 633 39 b 733 50 707 39 722 43 m 481 369 b 388 351 481 369 388 351 b 183 176 250 325 183 275 b 301 51 183 85 235 51 b 478 254 389 51 475 125 b 481 369 478 254 481 369 "},"ä":{"ha":718,"x_min":0,"x_max":0,"o":"m 229 806 b 147 889 182 806 147 843 b 229 971 147 933 182 971 b 311 889 275 971 311 933 b 229 806 311 843 275 806 m 479 806 b 396 889 433 806 396 843 b 479 971 396 933 433 971 b 561 889 525 971 561 933 b 479 806 561 843 525 806 m 733 50 b 733 47 733 50 733 47 b 608 -11 710 14 665 -11 b 485 111 533 -11 492 38 b 482 178 485 117 482 163 b 250 -10 467 81 367 -10 b 53 163 140 -10 53 46 b 375 376 53 311 210 346 b 481 396 375 376 481 396 b 481 475 481 396 481 475 b 319 663 481 576 433 663 b 178 549 217 663 178 610 b 242 475 178 506 203 475 b 260 479 247 475 254 476 b 181 417 253 438 221 417 b 79 518 124 417 79 454 b 319 689 79 608 176 689 b 608 454 500 689 608 619 b 604 154 608 331 604 239 b 692 39 604 78 633 39 b 733 50 707 39 722 43 m 481 369 b 388 351 481 369 388 351 b 183 176 250 325 183 275 b 301 51 183 85 235 51 b 478 254 389 51 475 125 b 481 369 478 254 481 369 "},"å":{"ha":718,"x_min":0,"x_max":0,"o":"m 354 1051 b 488 921 426 1051 488 992 b 354 789 488 847 426 789 b 221 921 282 789 221 847 b 354 1051 221 992 282 1051 m 354 822 b 454 921 408 822 454 865 b 354 1018 454 974 408 1018 b 254 921 300 1018 254 974 b 354 822 254 865 300 822 m 733 50 b 733 47 733 50 733 47 b 608 -11 710 14 665 -11 b 485 111 533 -11 492 38 b 482 178 485 117 482 163 b 250 -10 467 81 367 -10 b 53 163 140 -10 53 46 b 375 376 53 311 210 346 b 481 396 375 376 481 396 b 481 475 481 396 481 475 b 319 663 481 576 433 663 b 178 549 217 663 178 610 b 242 475 178 506 203 475 b 260 479 247 475 254 476 b 181 417 253 438 221 417 b 79 518 124 417 79 454 b 319 689 79 608 176 689 b 608 454 500 689 608 619 b 604 154 608 331 604 239 b 692 39 604 78 633 39 b 733 50 707 39 722 43 m 481 369 b 388 351 481 369 388 351 b 183 176 250 325 183 275 b 301 51 183 85 235 51 b 478 254 389 51 475 125 b 481 369 478 254 481 369 "},"æ":{"ha":1140,"x_min":0,"x_max":0,"o":"m 1099 218 b 811 -14 1072 69 964 -14 b 506 200 674 -14 553 63 b 250 -10 486 99 399 -10 b 53 163 140 -10 53 46 b 375 369 53 311 210 339 b 481 389 375 369 481 389 b 481 475 481 389 481 475 b 319 663 481 576 433 663 b 178 549 217 663 178 610 b 242 475 178 506 203 475 b 260 479 247 475 254 476 b 181 417 253 438 221 417 b 79 518 124 417 79 454 b 319 689 79 608 176 689 b 558 567 443 689 521 642 b 807 689 618 643 708 689 b 1094 365 1007 689 1094 556 b 608 365 1094 365 608 365 b 857 50 608 181 701 50 b 1090 221 961 50 1050 106 b 1099 218 1090 221 1099 218 m 611 394 b 963 394 611 394 963 394 b 806 661 963 536 938 661 b 611 394 707 661 618 558 m 481 363 b 388 344 481 363 388 344 b 183 176 250 318 183 275 b 301 51 183 85 235 51 b 481 267 399 51 481 125 b 481 363 481 267 481 363 "},"ç":{"ha":676,"x_min":0,"x_max":0,"o":"m 361 -310 b 210 -235 290 -310 233 -278 b 221 -222 210 -235 221 -222 b 333 -276 251 -262 294 -276 b 417 -192 382 -276 417 -246 b 292 -111 417 -129 371 -114 b 338 -12 292 -111 338 -12 b 44 325 188 3 44 119 b 396 689 44 551 208 689 b 640 518 546 689 640 608 b 538 414 640 454 594 414 b 453 478 489 414 453 444 b 478 474 461 475 471 474 b 542 549 517 474 542 501 b 396 661 542 610 499 661 b 179 346 265 661 179 528 b 410 49 179 158 281 49 b 647 221 519 49 607 106 b 656 218 647 221 656 218 b 369 -14 629 69 519 -14 b 361 -14 369 -14 361 -14 b 328 -89 361 -14 328 -89 b 519 -194 425 -89 519 -119 b 361 -310 519 -268 449 -310 "},"è":{"ha":701,"x_min":0,"x_max":0,"o":"m 333 1040 b 432 779 343 950 375 876 b 426 779 432 779 426 779 b 192 1040 319 865 247 949 b 333 1040 192 1040 333 1040 m 368 689 b 656 365 568 689 656 556 b 169 365 656 365 169 365 b 418 50 169 181 263 50 b 651 221 522 50 611 106 b 660 218 651 221 660 218 b 372 -14 633 69 525 -14 b 44 338 194 -14 44 115 b 368 689 44 546 193 689 m 172 394 b 524 394 172 394 524 394 b 367 661 524 536 499 661 b 172 394 268 661 179 558 "},"é":{"ha":701,"x_min":0,"x_max":0,"o":"m 396 1040 b 538 1040 396 1040 538 1040 b 303 779 482 949 410 865 b 297 779 303 779 297 779 b 396 1040 354 876 386 950 m 368 689 b 656 365 568 689 656 556 b 169 365 656 365 169 365 b 418 50 169 181 263 50 b 651 221 522 50 611 106 b 660 218 651 221 660 218 b 372 -14 633 69 525 -14 b 44 338 194 -14 44 115 b 368 689 44 546 193 689 m 172 394 b 524 394 172 394 524 394 b 367 661 524 536 499 661 b 172 394 268 661 179 558 "},"ê":{"ha":701,"x_min":0,"x_max":0,"o":"m 569 767 b 378 901 497 804 422 944 b 186 767 333 858 258 804 b 175 767 186 767 175 767 b 375 1050 251 843 335 953 b 381 1050 375 1050 381 1050 b 581 767 421 953 504 843 b 569 767 581 767 569 767 m 368 689 b 656 365 568 689 656 556 b 169 365 656 365 169 365 b 418 50 169 181 263 50 b 651 221 522 50 611 106 b 660 218 651 221 660 218 b 372 -14 633 69 525 -14 b 44 338 194 -14 44 115 b 368 689 44 546 193 689 m 172 394 b 524 394 172 394 524 394 b 367 661 524 536 499 661 b 172 394 268 661 179 558 "},"ë":{"ha":701,"x_min":0,"x_max":0,"o":"m 253 806 b 171 889 206 806 171 843 b 253 971 171 933 206 971 b 335 889 299 971 335 933 b 253 806 335 843 299 806 m 503 806 b 419 889 457 806 419 843 b 503 971 419 933 457 971 b 585 889 549 971 585 933 b 503 806 585 843 549 806 m 368 689 b 656 365 568 689 656 556 b 169 365 656 365 169 365 b 418 50 169 181 263 50 b 651 221 522 50 611 106 b 660 218 651 221 660 218 b 372 -14 633 69 525 -14 b 44 338 194 -14 44 115 b 368 689 44 546 193 689 m 172 394 b 524 394 172 394 524 394 b 367 661 524 536 499 661 b 172 394 268 661 179 558 "},"ì":{"ha":361,"x_min":0,"x_max":0,"o":"m 138 1040 b 236 779 147 950 179 876 b 231 779 236 779 231 779 b -4 1040 124 865 51 949 b 138 1040 -4 1040 138 1040 m 247 675 b 247 151 247 675 247 151 b 326 3 247 60 260 31 b 326 0 326 3 326 0 b 46 0 326 0 46 0 b 46 3 46 0 46 3 b 125 151 113 31 125 60 b 125 524 125 151 125 524 b 39 672 125 603 106 644 b 39 675 39 672 39 675 b 247 675 39 675 247 675 "},"í":{"ha":361,"x_min":0,"x_max":0,"o":"m 200 1040 b 342 1040 200 1040 342 1040 b 107 779 286 949 214 865 b 101 779 107 779 101 779 b 200 1040 158 876 190 950 m 247 675 b 247 151 247 675 247 151 b 326 3 247 60 260 31 b 326 0 326 3 326 0 b 46 0 326 0 46 0 b 46 3 46 0 46 3 b 125 151 113 31 125 60 b 125 524 125 151 125 524 b 39 672 125 603 106 644 b 39 675 39 672 39 675 b 247 675 39 675 247 675 "},"î":{"ha":361,"x_min":0,"x_max":0,"o":"m 374 767 b 182 901 301 804 226 944 b -10 767 138 858 63 804 b -21 767 -10 767 -21 767 b 179 1050 56 843 139 953 b 185 1050 179 1050 185 1050 b 385 767 225 953 308 843 b 374 767 385 767 374 767 m 247 675 b 247 151 247 675 247 151 b 326 3 247 60 260 31 b 326 0 326 3 326 0 b 46 0 326 0 46 0 b 46 3 46 0 46 3 b 125 151 113 31 125 60 b 125 524 125 151 125 524 b 39 672 125 603 106 644 b 39 675 39 672 39 675 b 247 675 39 675 247 675 "},"ï":{"ha":361,"x_min":0,"x_max":0,"o":"m 57 806 b -25 889 10 806 -25 843 b 57 971 -25 933 10 971 b 139 889 103 971 139 933 b 57 806 139 843 103 806 m 307 806 b 224 889 261 806 224 843 b 307 971 224 933 261 971 b 389 889 353 971 389 933 b 307 806 389 843 353 806 m 247 675 b 247 151 247 675 247 151 b 326 3 247 60 260 31 b 326 0 326 3 326 0 b 46 0 326 0 46 0 b 46 3 46 0 46 3 b 125 151 113 31 125 60 b 125 524 125 151 125 524 b 39 672 125 603 106 644 b 39 675 39 672 39 675 b 247 675 39 675 247 675 "},"ð":{"ha":767,"x_min":0,"x_max":0,"o":"m 383 -14 b 44 338 189 -14 44 132 b 381 689 44 543 189 689 b 564 607 443 689 522 663 b 419 890 556 679 514 793 b 228 794 419 890 228 794 b 213 824 228 794 213 824 b 393 914 213 824 393 914 b 142 1043 331 969 249 1017 b 143 1054 142 1043 143 1054 b 446 940 261 1039 363 999 b 582 1008 446 940 582 1008 b 597 979 582 1008 597 979 b 476 918 597 979 476 918 b 722 383 636 793 722 599 b 383 -14 722 138 578 -14 m 383 14 b 586 338 511 14 586 157 b 383 661 586 518 511 661 b 181 338 256 661 181 518 b 383 14 181 157 256 14 "},"ñ":{"ha":822,"x_min":0,"x_max":0,"o":"m 671 997 b 519 808 636 876 586 808 b 311 897 446 808 371 897 b 190 803 256 897 217 860 b 176 803 190 803 176 803 b 328 992 211 924 261 992 b 536 903 401 992 476 903 b 657 997 592 903 631 940 b 671 997 657 997 671 997 m 39 675 b 247 675 39 675 247 675 b 247 482 247 675 247 482 b 492 689 285 613 372 689 b 708 447 619 689 708 607 b 708 151 708 447 708 151 b 788 3 708 60 721 31 b 788 0 788 3 788 0 b 507 0 788 0 507 0 b 507 3 507 0 507 3 b 586 151 574 31 586 60 b 586 436 586 151 586 436 b 439 619 586 535 549 619 b 247 356 328 619 247 514 b 247 151 247 356 247 151 b 326 3 247 60 260 31 b 326 0 326 3 326 0 b 46 0 326 0 46 0 b 46 3 46 0 46 3 b 125 151 113 31 125 60 b 125 524 125 151 125 524 b 39 672 125 603 106 644 b 39 675 39 672 39 675 "},"ò":{"ha":769,"x_min":0,"x_max":0,"o":"m 340 1040 b 439 779 350 950 382 876 b 433 779 439 779 433 779 b 199 1040 326 865 254 949 b 340 1040 199 1040 340 1040 m 385 -14 b 44 338 186 -14 44 135 b 385 689 44 540 186 689 b 725 338 583 689 725 540 b 385 -14 725 135 583 -14 m 385 14 b 588 338 513 14 588 157 b 385 661 588 518 513 661 b 182 338 257 661 182 518 b 385 14 182 157 257 14 "},"ó":{"ha":769,"x_min":0,"x_max":0,"o":"m 403 1040 b 544 1040 403 1040 544 1040 b 310 779 489 949 417 865 b 304 779 310 779 304 779 b 403 1040 361 876 393 950 m 385 -14 b 44 338 186 -14 44 135 b 385 689 44 540 186 689 b 725 338 583 689 725 540 b 385 -14 725 135 583 -14 m 385 14 b 588 338 513 14 588 157 b 385 661 588 518 513 661 b 182 338 257 661 182 518 b 385 14 182 157 257 14 "},"ô":{"ha":769,"x_min":0,"x_max":0,"o":"m 576 767 b 385 901 504 804 429 944 b 193 767 340 858 265 804 b 182 767 193 767 182 767 b 382 1050 258 843 342 953 b 388 1050 382 1050 388 1050 b 588 767 428 953 511 843 b 576 767 588 767 576 767 m 385 -14 b 44 338 186 -14 44 135 b 385 689 44 540 186 689 b 725 338 583 689 725 540 b 385 -14 725 135 583 -14 m 385 14 b 588 338 513 14 588 157 b 385 661 588 518 513 661 b 182 338 257 661 182 518 b 385 14 182 157 257 14 "},"õ":{"ha":769,"x_min":0,"x_max":0,"o":"m 632 997 b 481 808 597 876 547 808 b 272 897 407 808 332 897 b 151 803 217 897 178 860 b 138 803 151 803 138 803 b 289 992 172 924 222 992 b 497 903 363 992 438 903 b 618 997 553 903 592 940 b 632 997 618 997 632 997 m 385 -14 b 44 338 186 -14 44 135 b 385 689 44 540 186 689 b 725 338 583 689 725 540 b 385 -14 725 135 583 -14 m 385 14 b 588 338 513 14 588 157 b 385 661 588 518 513 661 b 182 338 257 661 182 518 b 385 14 182 157 257 14 "},"ö":{"ha":769,"x_min":0,"x_max":0,"o":"m 260 806 b 178 889 213 806 178 843 b 260 971 178 933 213 971 b 342 889 306 971 342 933 b 260 806 342 843 306 806 m 510 806 b 426 889 464 806 426 843 b 510 971 426 933 464 971 b 592 889 556 971 592 933 b 510 806 592 843 556 806 m 385 -14 b 44 338 186 -14 44 135 b 385 689 44 540 186 689 b 725 338 583 689 725 540 b 385 -14 725 135 583 -14 m 385 14 b 588 338 513 14 588 157 b 385 661 588 518 513 661 b 182 338 257 661 182 518 b 385 14 182 157 257 14 "},"÷":{"ha":665,"x_min":0,"x_max":0,"o":"m 288 676 b 332 721 288 701 307 721 b 378 676 357 721 378 701 b 332 631 378 651 357 631 b 288 676 307 631 288 651 m 61 429 b 61 465 61 429 61 465 b 604 465 61 465 604 465 b 604 429 604 465 604 429 b 61 429 604 429 61 429 m 288 218 b 332 264 288 244 307 264 b 378 218 357 264 378 244 b 332 174 378 194 357 174 b 288 218 307 174 288 194 "},"ø":{"ha":769,"x_min":0,"x_max":0,"o":"m 182 338 b 213 157 182 271 192 208 b 554 526 213 157 554 526 b 385 661 521 608 463 661 b 182 338 257 661 182 518 m 385 14 b 588 338 513 14 588 157 b 565 494 588 394 581 449 b 225 126 565 494 225 126 b 385 14 260 57 314 14 m 385 -14 b 165 63 299 -14 224 14 b 89 -21 165 63 89 -21 b 65 -1 89 -21 65 -1 b 143 83 65 -1 143 83 b 44 338 81 146 44 235 b 385 689 44 540 186 689 b 619 599 479 689 561 656 b 700 685 619 599 700 685 b 724 665 700 685 724 665 b 642 576 724 665 642 576 b 725 338 694 515 725 432 b 385 -14 725 135 583 -14 "},"ù":{"ha":797,"x_min":0,"x_max":0,"o":"m 356 1040 b 454 779 365 950 397 876 b 449 779 454 779 449 779 b 214 1040 342 865 269 949 b 356 1040 214 1040 356 1040 m 563 319 b 563 524 563 319 563 524 b 476 672 563 603 543 644 b 476 675 476 672 476 675 b 685 675 476 675 685 675 b 685 138 685 675 685 138 b 785 3 685 51 719 24 b 785 0 785 3 785 0 b 563 0 785 0 563 0 b 563 201 563 0 563 201 b 313 -14 529 64 435 -14 b 101 228 190 -14 101 68 b 101 524 101 228 101 524 b 15 672 101 603 82 644 b 15 675 15 672 15 675 b 224 675 15 675 224 675 b 224 243 224 675 224 243 b 365 58 224 150 261 58 b 563 319 474 58 563 161 "},"ú":{"ha":797,"x_min":0,"x_max":0,"o":"m 418 1040 b 560 1040 418 1040 560 1040 b 325 779 504 949 432 865 b 319 779 325 779 319 779 b 418 1040 376 876 408 950 m 563 319 b 563 524 563 319 563 524 b 476 672 563 603 543 644 b 476 675 476 672 476 675 b 685 675 476 675 685 675 b 685 138 685 675 685 138 b 785 3 685 51 719 24 b 785 0 785 3 785 0 b 563 0 785 0 563 0 b 563 201 563 0 563 201 b 313 -14 529 64 435 -14 b 101 228 190 -14 101 68 b 101 524 101 228 101 524 b 15 672 101 603 82 644 b 15 675 15 672 15 675 b 224 675 15 675 224 675 b 224 243 224 675 224 243 b 365 58 224 150 261 58 b 563 319 474 58 563 161 "},"û":{"ha":797,"x_min":0,"x_max":0,"o":"m 592 767 b 400 901 519 804 444 944 b 208 767 356 858 281 804 b 197 767 208 767 197 767 b 397 1050 274 843 357 953 b 403 1050 397 1050 403 1050 b 603 767 443 953 526 843 b 592 767 603 767 592 767 m 563 319 b 563 524 563 319 563 524 b 476 672 563 603 543 644 b 476 675 476 672 476 675 b 685 675 476 675 685 675 b 685 138 685 675 685 138 b 785 3 685 51 719 24 b 785 0 785 3 785 0 b 563 0 785 0 563 0 b 563 201 563 0 563 201 b 313 -14 529 64 435 -14 b 101 228 190 -14 101 68 b 101 524 101 228 101 524 b 15 672 101 603 82 644 b 15 675 15 672 15 675 b 224 675 15 675 224 675 b 224 243 224 675 224 243 b 365 58 224 150 261 58 b 563 319 474 58 563 161 "},"ü":{"ha":797,"x_min":0,"x_max":0,"o":"m 275 806 b 193 889 228 806 193 843 b 275 971 193 933 228 971 b 357 889 321 971 357 933 b 275 806 357 843 321 806 m 525 806 b 442 889 479 806 442 843 b 525 971 442 933 479 971 b 607 889 571 971 607 933 b 525 806 607 843 571 806 m 563 319 b 563 524 563 319 563 524 b 476 672 563 603 543 644 b 476 675 476 672 476 675 b 685 675 476 675 685 675 b 685 138 685 675 685 138 b 785 3 685 51 719 24 b 785 0 785 3 785 0 b 563 0 785 0 563 0 b 563 201 563 0 563 201 b 313 -14 529 64 435 -14 b 101 228 190 -14 101 68 b 101 524 101 228 101 524 b 15 672 101 603 82 644 b 15 675 15 672 15 675 b 224 675 15 675 224 675 b 224 243 224 675 224 243 b 365 58 224 150 261 58 b 563 319 474 58 563 161 "},"ý":{"ha":706,"x_min":0,"x_max":0,"o":"m 399 1040 b 540 1040 399 1040 540 1040 b 306 779 485 949 413 865 b 300 779 306 779 300 779 b 399 1040 357 876 389 950 m 285 -122 b 344 11 285 -122 344 11 b 99 525 344 11 99 525 b -7 672 53 621 39 640 b -7 675 -7 672 -7 675 b 243 675 -7 675 243 675 b 243 672 243 675 243 672 b 201 611 208 657 201 639 b 225 525 201 590 211 556 b 403 147 225 525 403 147 b 563 518 403 147 563 518 b 579 590 574 543 579 568 b 524 672 579 626 563 657 b 524 675 524 672 524 675 b 713 675 524 675 713 675 b 713 672 713 675 713 672 b 601 511 664 640 644 608 b 319 -135 601 511 319 -135 b 114 -326 264 -262 207 -326 b -14 -217 39 -326 -14 -285 b 81 -122 -14 -157 31 -122 b 132 -133 100 -122 115 -125 b 86 -199 100 -143 86 -165 b 154 -267 86 -239 113 -267 b 285 -122 210 -267 240 -221 "},"þ":{"ha":847,"x_min":0,"x_max":0,"o":"m 453 629 b 242 389 353 629 242 540 b 242 288 242 389 242 288 b 453 46 242 136 353 46 b 668 343 585 46 668 164 b 453 629 668 521 585 629 m 33 1040 b 242 1040 33 1040 242 1040 b 242 488 242 1040 242 488 b 493 689 269 594 363 689 b 803 343 664 689 803 561 b 493 -14 803 126 664 -14 b 242 188 363 -14 269 81 b 242 -161 242 188 242 -161 b 321 -310 242 -253 254 -282 b 321 -312 321 -310 321 -312 b 40 -312 321 -312 40 -312 b 40 -310 40 -312 40 -310 b 119 -161 107 -282 119 -253 b 119 889 119 -161 119 889 b 33 1038 119 968 100 1010 b 33 1040 33 1038 33 1040 "},"ÿ":{"ha":706,"x_min":0,"x_max":0,"o":"m 256 806 b 174 889 208 806 174 843 b 256 971 174 933 208 971 b 338 889 301 971 338 933 b 256 806 338 843 301 806 m 506 806 b 422 889 460 806 422 843 b 506 971 422 933 460 971 b 588 889 551 971 588 933 b 506 806 588 843 551 806 m 285 -122 b 344 11 285 -122 344 11 b 99 525 344 11 99 525 b -7 672 53 621 39 640 b -7 675 -7 672 -7 675 b 243 675 -7 675 243 675 b 243 672 243 675 243 672 b 201 611 208 657 201 639 b 225 525 201 590 211 556 b 403 147 225 525 403 147 b 563 518 403 147 563 518 b 579 590 574 543 579 568 b 524 672 579 626 563 657 b 524 675 524 672 524 675 b 713 675 524 675 713 675 b 713 672 713 675 713 672 b 601 511 664 640 644 608 b 319 -135 601 511 319 -135 b 114 -326 264 -262 207 -326 b -14 -217 39 -326 -14 -285 b 81 -122 -14 -157 31 -122 b 132 -133 100 -122 115 -125 b 86 -199 100 -143 86 -165 b 154 -267 86 -239 113 -267 b 285 -122 210 -267 240 -221 "},"Ā":{"ha":971,"x_min":0,"x_max":0,"o":"m 676 1083 b 293 1083 676 1083 293 1083 b 293 1132 293 1083 293 1132 b 676 1132 293 1132 676 1132 b 676 1083 676 1132 676 1083 m 435 801 b 247 361 435 801 247 361 b 632 361 247 361 632 361 b 435 801 632 361 435 801 m 218 3 b 218 0 218 3 218 0 b -1 0 218 0 -1 0 b -1 3 -1 0 -1 3 b 129 188 53 31 89 96 b 478 986 129 188 478 986 b 482 986 478 986 482 986 b 858 156 482 986 858 156 b 971 3 900 65 917 31 b 971 0 971 3 971 0 b 682 0 971 0 682 0 b 682 3 682 0 682 3 b 746 76 722 19 746 43 b 722 160 746 99 738 126 b 649 325 722 160 649 325 b 232 325 649 325 232 325 b 175 192 232 325 175 192 b 151 96 163 163 151 131 b 218 3 151 54 179 19 "},"ā":{"ha":718,"x_min":0,"x_max":0,"o":"m 546 833 b 163 833 546 833 163 833 b 163 882 163 833 163 882 b 546 882 163 882 546 882 b 546 833 546 882 546 833 m 733 50 b 733 47 733 50 733 47 b 608 -11 710 14 665 -11 b 485 111 533 -11 492 38 b 482 178 485 117 482 163 b 250 -10 467 81 367 -10 b 53 163 140 -10 53 46 b 375 376 53 311 210 346 b 481 396 375 376 481 396 b 481 475 481 396 481 475 b 319 663 481 576 433 663 b 178 549 217 663 178 610 b 242 475 178 506 203 475 b 260 479 247 475 254 476 b 181 417 253 438 221 417 b 79 518 124 417 79 454 b 319 689 79 608 176 689 b 608 454 500 689 608 619 b 604 154 608 331 604 239 b 692 39 604 78 633 39 b 733 50 707 39 722 43 m 481 369 b 388 351 481 369 388 351 b 183 176 250 325 183 275 b 301 51 183 85 235 51 b 478 254 389 51 475 125 b 481 369 478 254 481 369 "},"Ă":{"ha":971,"x_min":0,"x_max":0,"o":"m 676 1274 b 486 1053 675 1139 599 1053 b 294 1274 372 1053 296 1139 b 306 1274 294 1274 306 1274 b 486 1149 314 1188 404 1149 b 665 1274 567 1149 657 1188 b 676 1274 665 1274 676 1274 m 435 801 b 247 361 435 801 247 361 b 632 361 247 361 632 361 b 435 801 632 361 435 801 m 218 3 b 218 0 218 3 218 0 b -1 0 218 0 -1 0 b -1 3 -1 0 -1 3 b 129 188 53 31 89 96 b 478 986 129 188 478 986 b 482 986 478 986 482 986 b 858 156 482 986 858 156 b 971 3 900 65 917 31 b 971 0 971 3 971 0 b 682 0 971 0 682 0 b 682 3 682 0 682 3 b 746 76 722 19 746 43 b 722 160 746 99 738 126 b 649 325 722 160 649 325 b 232 325 649 325 232 325 b 175 192 232 325 175 192 b 151 96 163 163 151 131 b 218 3 151 54 179 19 "},"ă":{"ha":718,"x_min":0,"x_max":0,"o":"m 544 1031 b 354 789 543 883 467 789 b 164 1031 242 789 165 883 b 175 1031 164 1031 175 1031 b 354 886 183 928 274 886 b 533 1031 435 886 525 928 b 544 1031 533 1031 544 1031 m 733 50 b 733 47 733 50 733 47 b 608 -11 710 14 665 -11 b 485 111 533 -11 492 38 b 482 178 485 117 482 163 b 250 -10 467 81 367 -10 b 53 163 140 -10 53 46 b 375 376 53 311 210 346 b 481 396 375 376 481 396 b 481 475 481 396 481 475 b 319 663 481 576 433 663 b 178 549 217 663 178 610 b 242 475 178 506 203 475 b 260 479 247 475 254 476 b 181 417 253 438 221 417 b 79 518 124 417 79 454 b 319 689 79 608 176 689 b 608 454 500 689 608 619 b 604 154 608 331 604 239 b 692 39 604 78 633 39 b 733 50 707 39 722 43 m 481 369 b 388 351 481 369 388 351 b 183 176 250 325 183 275 b 301 51 183 85 235 51 b 478 254 389 51 475 125 b 481 369 478 254 481 369 "},"Ą":{"ha":971,"x_min":0,"x_max":0,"o":"m 817 -193 b 626 -329 789 -260 736 -329 b 497 -208 560 -329 497 -285 b 706 17 497 -101 613 -37 b 746 76 739 36 746 56 b 722 160 746 99 738 126 b 649 325 722 160 649 325 b 232 325 649 325 232 325 b 175 192 232 325 175 192 b 151 96 163 163 151 131 b 218 3 151 54 179 19 b 218 0 218 3 218 0 b -1 0 218 0 -1 0 b -1 3 -1 0 -1 3 b 129 188 53 31 89 96 b 478 986 129 188 478 986 b 482 986 478 986 482 986 b 858 156 482 986 858 156 b 971 3 900 65 917 31 b 971 0 971 3 971 0 b 707 0 971 0 707 0 b 593 -181 629 -61 593 -121 b 679 -267 593 -236 624 -267 b 813 -190 732 -267 778 -243 b 817 -193 813 -190 817 -193 m 435 801 b 247 361 435 801 247 361 b 632 361 247 361 632 361 b 435 801 632 361 435 801 "},"ą":{"ha":718,"x_min":0,"x_max":0,"o":"m 547 -329 b 418 -208 481 -329 418 -285 b 632 -8 418 -118 526 -54 b 608 -11 622 -10 615 -11 b 485 111 533 -11 492 38 b 482 178 485 117 482 163 b 250 -10 467 81 367 -10 b 53 163 140 -10 53 46 b 375 376 53 311 210 346 b 481 396 375 376 481 396 b 481 475 481 396 481 475 b 319 663 481 576 433 663 b 178 549 217 663 178 610 b 242 475 178 506 203 475 b 260 479 247 475 254 476 b 181 417 253 438 221 417 b 79 518 124 417 79 454 b 319 689 79 608 176 689 b 608 454 500 689 608 619 b 604 154 608 331 604 239 b 692 39 604 78 633 39 b 733 50 707 39 722 43 b 733 47 733 50 733 47 b 514 -181 689 -14 514 -54 b 600 -267 514 -236 544 -267 b 733 -190 653 -267 699 -243 b 738 -193 733 -190 738 -193 b 547 -329 710 -260 657 -329 m 481 369 b 388 351 481 369 388 351 b 183 176 250 325 183 275 b 301 51 183 85 235 51 b 478 254 389 51 475 125 b 481 369 478 254 481 369 "},"Ć":{"ha":944,"x_min":0,"x_max":0,"o":"m 558 1271 b 711 1271 558 1271 711 1271 b 474 1043 654 1190 582 1118 b 468 1043 474 1043 468 1043 b 558 1271 525 1128 547 1192 m 865 986 b 876 681 865 986 876 681 b 874 681 876 681 874 681 b 546 954 817 840 700 954 b 194 486 322 954 194 756 b 547 49 194 211 358 49 b 893 281 707 49 824 113 b 901 278 893 281 901 278 b 526 -14 868 100 729 -14 b 50 486 256 -14 50 186 b 546 986 50 772 272 986 b 775 938 657 986 732 938 b 865 986 821 938 847 965 "},"ć":{"ha":676,"x_min":0,"x_max":0,"o":"m 418 1040 b 560 1040 418 1040 560 1040 b 325 779 504 949 432 865 b 319 779 325 779 319 779 b 418 1040 376 876 408 950 m 396 661 b 179 346 265 661 179 528 b 410 49 179 158 281 49 b 647 221 519 49 607 106 b 656 218 647 221 656 218 b 369 -14 629 69 519 -14 b 44 325 208 -14 44 106 b 396 689 44 551 208 689 b 640 518 546 689 640 608 b 538 414 640 454 594 414 b 453 478 489 414 453 444 b 478 474 461 475 471 474 b 542 549 517 474 542 501 b 396 661 542 610 499 661 "},"Ĉ":{"ha":944,"x_min":0,"x_max":0,"o":"m 733 1031 b 542 1150 661 1065 586 1190 b 350 1031 497 1110 422 1065 b 339 1031 350 1031 339 1031 b 539 1292 415 1101 499 1203 b 544 1292 539 1292 544 1292 b 744 1031 585 1203 668 1101 b 733 1031 744 1031 733 1031 m 865 986 b 876 681 865 986 876 681 b 874 681 876 681 874 681 b 546 954 817 840 700 954 b 194 486 322 954 194 756 b 547 49 194 211 358 49 b 893 281 707 49 824 113 b 901 278 893 281 901 278 b 526 -14 868 100 729 -14 b 50 486 256 -14 50 186 b 546 986 50 772 272 986 b 775 938 657 986 732 938 b 865 986 821 938 847 965 "},"ĉ":{"ha":676,"x_min":0,"x_max":0,"o":"m 592 767 b 400 901 519 804 444 944 b 208 767 356 858 281 804 b 197 767 208 767 197 767 b 397 1050 274 843 357 953 b 403 1050 397 1050 403 1050 b 603 767 443 953 526 843 b 592 767 603 767 592 767 m 396 661 b 179 346 265 661 179 528 b 410 49 179 158 281 49 b 647 221 519 49 607 106 b 656 218 647 221 656 218 b 369 -14 629 69 519 -14 b 44 325 208 -14 44 106 b 396 689 44 551 208 689 b 640 518 546 689 640 608 b 538 414 640 454 594 414 b 453 478 489 414 453 444 b 478 474 461 475 471 474 b 542 549 517 474 542 501 b 396 661 542 610 499 661 "},"Ċ":{"ha":944,"x_min":0,"x_max":0,"o":"m 454 1156 b 542 1243 454 1204 493 1243 b 629 1156 590 1243 629 1204 b 542 1069 629 1108 590 1069 b 454 1156 493 1069 454 1108 m 865 986 b 876 681 865 986 876 681 b 874 681 876 681 874 681 b 546 954 817 840 700 954 b 194 486 322 954 194 756 b 547 49 194 211 358 49 b 893 281 707 49 824 113 b 901 278 893 281 901 278 b 526 -14 868 100 729 -14 b 50 486 256 -14 50 186 b 546 986 50 772 272 986 b 775 938 657 986 732 938 b 865 986 821 938 847 965 "},"ċ":{"ha":676,"x_min":0,"x_max":0,"o":"m 313 911 b 400 999 313 960 351 999 b 488 911 449 999 488 960 b 400 825 488 864 449 825 b 313 911 351 825 313 864 m 396 661 b 179 346 265 661 179 528 b 410 49 179 158 281 49 b 647 221 519 49 607 106 b 656 218 647 221 656 218 b 369 -14 629 69 519 -14 b 44 325 208 -14 44 106 b 396 689 44 551 208 689 b 640 518 546 689 640 608 b 538 414 640 454 594 414 b 453 478 489 414 453 444 b 478 474 461 475 471 474 b 542 549 517 474 542 501 b 396 661 542 610 499 661 "},"Č":{"ha":944,"x_min":0,"x_max":0,"o":"m 350 1292 b 542 1172 422 1257 497 1132 b 733 1292 586 1213 661 1257 b 744 1292 733 1292 744 1292 b 544 1031 668 1221 585 1119 b 539 1031 544 1031 539 1031 b 339 1292 499 1119 415 1221 b 350 1292 339 1292 350 1292 m 865 986 b 876 681 865 986 876 681 b 874 681 876 681 874 681 b 546 954 817 840 700 954 b 194 486 322 954 194 756 b 547 49 194 211 358 49 b 893 281 707 49 824 113 b 901 278 893 281 901 278 b 526 -14 868 100 729 -14 b 50 486 256 -14 50 186 b 546 986 50 772 272 986 b 775 938 657 986 732 938 b 865 986 821 938 847 965 "},"č":{"ha":676,"x_min":0,"x_max":0,"o":"m 208 1050 b 400 915 281 1013 356 872 b 592 1050 444 958 519 1013 b 603 1050 592 1050 603 1050 b 403 767 526 974 443 864 b 397 767 403 767 397 767 b 197 1050 357 864 274 974 b 208 1050 197 1050 208 1050 m 396 661 b 179 346 265 661 179 528 b 410 49 179 158 281 49 b 647 221 519 49 607 106 b 656 218 647 221 656 218 b 369 -14 629 69 519 -14 b 44 325 208 -14 44 106 b 396 689 44 551 208 689 b 640 518 546 689 640 608 b 538 414 640 454 594 414 b 453 478 489 414 453 444 b 478 474 461 475 471 474 b 542 549 517 474 542 501 b 396 661 542 610 499 661 "},"Ď":{"ha":1022,"x_min":0,"x_max":0,"o":"m 276 1292 b 468 1172 349 1257 424 1132 b 660 1292 513 1213 588 1257 b 671 1292 660 1292 671 1292 b 471 1031 594 1221 511 1119 b 465 1031 471 1031 465 1031 b 265 1292 425 1119 342 1221 b 276 1292 265 1292 276 1292 m 64 0 b 64 3 64 0 64 3 b 143 178 131 31 143 86 b 143 794 143 178 143 794 b 64 969 143 886 131 942 b 64 972 64 969 64 972 b 401 972 64 972 401 972 b 972 497 736 972 972 811 b 435 0 972 160 726 0 b 64 0 435 0 64 0 m 268 36 b 410 36 268 36 410 36 b 835 497 639 36 835 160 b 389 936 835 790 640 936 b 268 936 389 936 268 936 b 268 36 268 936 268 36 "},"ď":{"ha":849,"x_min":0,"x_max":0,"o":"m 967 1040 b 824 756 947 950 876 818 b 819 756 824 756 819 756 b 844 1040 840 832 851 936 b 967 1040 844 1040 967 1040 m 394 46 b 606 286 494 46 606 135 b 606 388 606 286 606 388 b 394 629 606 539 494 629 b 179 332 263 629 179 511 b 394 46 179 154 263 46 m 606 488 b 606 889 606 488 606 889 b 519 1038 606 968 586 1010 b 519 1040 519 1038 519 1040 b 728 1040 519 1040 728 1040 b 728 151 728 1040 728 151 b 814 3 728 72 747 31 b 814 0 814 3 814 0 b 606 0 814 0 606 0 b 606 188 606 0 606 188 b 354 -14 578 81 485 -14 b 44 332 183 -14 44 114 b 354 689 44 549 183 689 b 606 488 485 689 578 594 "},"Đ":{"ha":1022,"x_min":0,"x_max":0,"o":"m 435 0 b 64 0 435 0 64 0 b 64 3 64 0 64 3 b 143 178 131 31 143 86 b 143 476 143 178 143 476 b 64 476 143 476 64 476 b 64 513 64 476 64 513 b 143 513 64 513 143 513 b 143 794 143 513 143 794 b 64 969 143 886 131 942 b 64 972 64 969 64 972 b 401 972 64 972 401 972 b 972 497 736 972 972 811 b 435 0 972 160 726 0 m 268 36 b 410 36 268 36 410 36 b 835 497 639 36 835 160 b 389 936 835 790 640 936 b 268 936 389 936 268 936 b 268 513 268 936 268 513 b 476 513 268 513 476 513 b 476 476 476 513 476 476 b 268 476 476 476 268 476 b 268 36 268 476 268 36 "},"đ":{"ha":849,"x_min":0,"x_max":0,"o":"m 394 46 b 606 286 494 46 606 135 b 606 388 606 286 606 388 b 394 629 606 539 494 629 b 179 332 263 629 179 511 b 394 46 179 154 263 46 m 606 188 b 354 -14 578 81 485 -14 b 44 332 183 -14 44 114 b 354 689 44 549 183 689 b 606 488 485 689 578 594 b 606 796 606 488 606 796 b 429 796 606 796 429 796 b 429 832 429 796 429 832 b 606 832 429 832 606 832 b 606 889 606 832 606 889 b 519 1038 606 968 586 1010 b 519 1040 519 1038 519 1040 b 728 1040 519 1040 728 1040 b 728 832 728 1040 728 832 b 814 832 728 832 814 832 b 814 796 814 832 814 796 b 728 796 814 796 728 796 b 728 151 728 796 728 151 b 814 3 728 72 747 31 b 814 0 814 3 814 0 b 606 0 814 0 606 0 b 606 188 606 0 606 188 "},"Ē":{"ha":892,"x_min":0,"x_max":0,"o":"m 644 1083 b 261 1083 644 1083 261 1083 b 261 1132 261 1083 261 1132 b 644 1132 261 1132 644 1132 b 644 1083 644 1132 644 1083 m 64 972 b 696 972 64 972 696 972 b 763 982 721 972 747 974 b 810 742 763 982 810 742 b 807 742 810 742 807 742 b 500 936 735 874 656 936 b 268 936 500 936 268 936 b 268 511 268 936 268 511 b 464 511 268 511 464 511 b 658 665 576 511 611 536 b 661 665 658 665 661 665 b 661 342 661 665 661 342 b 658 342 661 342 658 342 b 464 475 611 469 576 475 b 268 475 464 475 268 475 b 268 36 268 475 268 36 b 529 36 268 36 529 36 b 849 256 685 36 775 108 b 851 256 849 256 851 256 b 807 0 851 256 807 0 b 64 0 807 0 64 0 b 64 3 64 0 64 3 b 143 178 131 31 143 86 b 143 794 143 178 143 794 b 64 969 143 886 131 942 b 64 972 64 969 64 972 "},"ē":{"ha":701,"x_min":0,"x_max":0,"o":"m 569 833 b 186 833 569 833 186 833 b 186 882 186 833 186 882 b 569 882 186 882 569 882 b 569 833 569 882 569 833 m 368 689 b 656 365 568 689 656 556 b 169 365 656 365 169 365 b 418 50 169 181 263 50 b 651 221 522 50 611 106 b 660 218 651 221 660 218 b 372 -14 633 69 525 -14 b 44 338 194 -14 44 115 b 368 689 44 546 193 689 m 172 394 b 524 394 172 394 524 394 b 367 661 524 536 499 661 b 172 394 268 661 179 558 "},"Ĕ":{"ha":892,"x_min":0,"x_max":0,"o":"m 644 1274 b 454 1053 643 1139 567 1053 b 263 1274 340 1053 264 1139 b 274 1274 263 1274 274 1274 b 454 1149 282 1188 372 1149 b 633 1274 535 1149 625 1188 b 644 1274 633 1274 644 1274 m 64 972 b 696 972 64 972 696 972 b 763 982 721 972 747 974 b 810 742 763 982 810 742 b 807 742 810 742 807 742 b 500 936 735 874 656 936 b 268 936 500 936 268 936 b 268 511 268 936 268 511 b 464 511 268 511 464 511 b 658 665 576 511 611 536 b 661 665 658 665 661 665 b 661 342 661 665 661 342 b 658 342 661 342 658 342 b 464 475 611 469 576 475 b 268 475 464 475 268 475 b 268 36 268 475 268 36 b 529 36 268 36 529 36 b 849 256 685 36 775 108 b 851 256 849 256 851 256 b 807 0 851 256 807 0 b 64 0 807 0 64 0 b 64 3 64 0 64 3 b 143 178 131 31 143 86 b 143 794 143 178 143 794 b 64 969 143 886 131 942 b 64 972 64 969 64 972 "},"ĕ":{"ha":701,"x_min":0,"x_max":0,"o":"m 568 1031 b 378 789 567 883 490 789 b 188 1031 265 789 189 883 b 199 1031 188 1031 199 1031 b 378 886 207 928 297 886 b 557 1031 458 886 549 928 b 568 1031 557 1031 568 1031 m 368 689 b 656 365 568 689 656 556 b 169 365 656 365 169 365 b 418 50 169 181 263 50 b 651 221 522 50 611 106 b 660 218 651 221 660 218 b 372 -14 633 69 525 -14 b 44 338 194 -14 44 115 b 368 689 44 546 193 689 m 172 394 b 524 394 172 394 524 394 b 367 661 524 536 499 661 b 172 394 268 661 179 558 "},"Ė":{"ha":892,"x_min":0,"x_max":0,"o":"m 369 1156 b 457 1243 369 1204 408 1243 b 544 1156 506 1243 544 1204 b 457 1069 544 1108 506 1069 b 369 1156 408 1069 369 1108 m 64 972 b 696 972 64 972 696 972 b 763 982 721 972 747 974 b 810 742 763 982 810 742 b 807 742 810 742 807 742 b 500 936 735 874 656 936 b 268 936 500 936 268 936 b 268 511 268 936 268 511 b 464 511 268 511 464 511 b 658 665 576 511 611 536 b 661 665 658 665 661 665 b 661 342 661 665 661 342 b 658 342 661 342 658 342 b 464 475 611 469 576 475 b 268 475 464 475 268 475 b 268 36 268 475 268 36 b 529 36 268 36 529 36 b 849 256 685 36 775 108 b 851 256 849 256 851 256 b 807 0 851 256 807 0 b 64 0 807 0 64 0 b 64 3 64 0 64 3 b 143 178 131 31 143 86 b 143 794 143 178 143 794 b 64 969 143 886 131 942 b 64 972 64 969 64 972 "},"ė":{"ha":701,"x_min":0,"x_max":0,"o":"m 290 911 b 378 999 290 960 329 999 b 465 911 426 999 465 960 b 378 825 465 864 426 825 b 290 911 329 825 290 864 m 368 689 b 656 365 568 689 656 556 b 169 365 656 365 169 365 b 418 50 169 181 263 50 b 651 221 522 50 611 106 b 660 218 651 221 660 218 b 372 -14 633 69 525 -14 b 44 338 194 -14 44 115 b 368 689 44 546 193 689 m 172 394 b 524 394 172 394 524 394 b 367 661 524 536 499 661 b 172 394 268 661 179 558 "},"Ę":{"ha":892,"x_min":0,"x_max":0,"o":"m 783 -193 b 593 -329 756 -260 703 -329 b 464 -208 526 -329 464 -285 b 643 0 464 -117 547 -56 b 64 0 643 0 64 0 b 64 3 64 0 64 3 b 143 178 131 31 143 86 b 143 794 143 178 143 794 b 64 969 143 886 131 942 b 64 972 64 969 64 972 b 696 972 64 972 696 972 b 763 982 721 972 747 974 b 810 742 763 982 810 742 b 807 742 810 742 807 742 b 500 936 735 874 656 936 b 268 936 500 936 268 936 b 268 511 268 936 268 511 b 464 511 268 511 464 511 b 658 665 576 511 611 536 b 661 665 658 665 661 665 b 661 342 661 665 661 342 b 658 342 661 342 658 342 b 464 475 611 469 576 475 b 268 475 464 475 268 475 b 268 36 268 475 268 36 b 529 36 268 36 529 36 b 849 256 685 36 775 108 b 851 256 849 256 851 256 b 807 0 851 256 807 0 b 674 0 807 0 674 0 b 560 -181 596 -61 560 -121 b 646 -267 560 -236 590 -267 b 779 -190 699 -267 744 -243 b 783 -193 779 -190 783 -193 "},"ę":{"ha":701,"x_min":0,"x_max":0,"o":"m 414 -329 b 285 -208 347 -329 285 -285 b 467 -4 285 -119 375 -57 b 372 -14 442 -11 401 -14 b 44 338 194 -14 44 115 b 368 689 44 546 193 689 b 656 365 568 689 656 556 b 169 365 656 365 169 365 b 418 50 169 181 263 50 b 651 221 522 50 611 106 b 660 218 651 221 660 218 b 513 8 643 122 585 64 b 381 -181 424 -61 381 -115 b 467 -267 381 -236 411 -267 b 600 -190 519 -267 565 -243 b 604 -193 600 -190 604 -193 b 414 -329 576 -260 524 -329 m 172 394 b 524 394 172 394 524 394 b 367 661 524 536 499 661 b 172 394 268 661 179 558 "},"Ě":{"ha":892,"x_min":0,"x_max":0,"o":"m 261 1292 b 453 1172 333 1257 408 1132 b 644 1292 497 1213 572 1257 b 656 1292 644 1292 656 1292 b 456 1031 579 1221 496 1119 b 450 1031 456 1031 450 1031 b 250 1292 410 1119 326 1221 b 261 1292 250 1292 261 1292 m 64 972 b 696 972 64 972 696 972 b 763 982 721 972 747 974 b 810 742 763 982 810 742 b 807 742 810 742 807 742 b 500 936 735 874 656 936 b 268 936 500 936 268 936 b 268 511 268 936 268 511 b 464 511 268 511 464 511 b 658 665 576 511 611 536 b 661 665 658 665 661 665 b 661 342 661 665 661 342 b 658 342 661 342 658 342 b 464 475 611 469 576 475 b 268 475 464 475 268 475 b 268 36 268 475 268 36 b 529 36 268 36 529 36 b 849 256 685 36 775 108 b 851 256 849 256 851 256 b 807 0 851 256 807 0 b 64 0 807 0 64 0 b 64 3 64 0 64 3 b 143 178 131 31 143 86 b 143 794 143 178 143 794 b 64 969 143 886 131 942 b 64 972 64 969 64 972 "},"ě":{"ha":701,"x_min":0,"x_max":0,"o":"m 186 1050 b 378 915 258 1013 333 872 b 569 1050 422 958 497 1013 b 581 1050 569 1050 581 1050 b 381 767 504 974 421 864 b 375 767 381 767 375 767 b 175 1050 335 864 251 974 b 186 1050 175 1050 186 1050 m 368 689 b 656 365 568 689 656 556 b 169 365 656 365 169 365 b 418 50 169 181 263 50 b 651 221 522 50 611 106 b 660 218 651 221 660 218 b 372 -14 633 69 525 -14 b 44 338 194 -14 44 115 b 368 689 44 546 193 689 m 172 394 b 524 394 172 394 524 394 b 367 661 524 536 499 661 b 172 394 268 661 179 558 "},"Ĝ":{"ha":1032,"x_min":0,"x_max":0,"o":"m 744 1031 b 553 1150 672 1065 597 1190 b 361 1031 508 1110 433 1065 b 350 1031 361 1031 350 1031 b 550 1292 426 1101 510 1203 b 556 1292 550 1292 556 1292 b 756 1031 596 1203 679 1101 b 744 1031 756 1031 744 1031 m 547 954 b 194 472 322 954 194 758 b 543 39 194 210 338 39 b 796 264 692 39 796 119 b 796 279 796 264 796 279 b 717 454 796 371 783 426 b 717 457 717 454 717 457 b 1000 457 717 457 1000 457 b 1000 454 1000 457 1000 454 b 921 279 933 426 921 371 b 921 -14 921 279 921 -14 b 918 -14 921 -14 918 -14 b 807 163 918 -14 807 163 b 526 -14 775 75 674 -14 b 50 474 251 -14 50 192 b 547 986 50 775 272 986 b 776 938 658 986 733 938 b 867 986 822 938 849 965 b 878 681 867 986 878 681 b 875 681 878 681 875 681 b 547 954 818 840 701 954 "},"ĝ":{"ha":760,"x_min":0,"x_max":0,"o":"m 536 767 b 344 901 464 804 389 944 b 153 767 300 858 225 804 b 142 767 153 767 142 767 b 342 1050 218 843 301 953 b 347 1050 342 1050 347 1050 b 547 767 388 953 471 843 b 536 767 547 767 536 767 m 343 665 b 203 463 249 665 203 572 b 343 260 203 353 249 260 b 485 463 439 260 485 353 b 343 665 485 572 439 665 m 725 -75 b 338 -326 725 -231 550 -326 b 8 -149 188 -326 8 -275 b 207 1 8 -65 89 -12 b 56 136 129 10 56 51 b 190 269 56 206 122 251 b 74 463 114 311 74 385 b 343 689 74 588 169 689 b 567 599 442 689 519 656 b 697 706 593 642 633 706 b 788 626 756 706 788 675 b 674 535 788 557 725 535 b 674 538 674 535 674 538 b 699 588 692 550 699 564 b 649 632 699 614 681 632 b 575 588 617 632 590 607 b 614 463 601 551 614 508 b 343 236 614 338 518 236 b 210 260 290 236 247 244 b 135 181 174 247 135 219 b 243 114 135 133 172 114 b 464 114 243 114 464 114 b 725 -75 632 114 725 44 m 336 -300 b 618 -132 511 -300 618 -233 b 450 0 618 -39 560 0 b 297 0 450 0 297 0 b 119 -140 186 0 119 -46 b 336 -300 119 -239 213 -300 "},"Ğ":{"ha":1032,"x_min":0,"x_max":0,"o":"m 744 1274 b 554 1053 743 1139 667 1053 b 363 1274 440 1053 364 1139 b 374 1274 363 1274 374 1274 b 554 1149 382 1188 472 1149 b 733 1274 635 1149 725 1188 b 744 1274 733 1274 744 1274 m 547 954 b 194 472 322 954 194 758 b 543 39 194 210 338 39 b 796 264 692 39 796 119 b 796 279 796 264 796 279 b 717 454 796 371 783 426 b 717 457 717 454 717 457 b 1000 457 717 457 1000 457 b 1000 454 1000 457 1000 454 b 921 279 933 426 921 371 b 921 -14 921 279 921 -14 b 918 -14 921 -14 918 -14 b 807 163 918 -14 807 163 b 526 -14 775 75 674 -14 b 50 474 251 -14 50 192 b 547 986 50 775 272 986 b 776 938 658 986 733 938 b 867 986 822 938 849 965 b 878 681 867 986 878 681 b 875 681 878 681 875 681 b 547 954 818 840 701 954 "},"ğ":{"ha":760,"x_min":0,"x_max":0,"o":"m 535 1031 b 344 789 533 883 457 789 b 154 1031 232 789 156 883 b 165 1031 154 1031 165 1031 b 344 886 174 928 264 886 b 524 1031 425 886 515 928 b 535 1031 524 1031 535 1031 m 343 665 b 203 463 249 665 203 572 b 343 260 203 353 249 260 b 485 463 439 260 485 353 b 343 665 485 572 439 665 m 725 -75 b 338 -326 725 -231 550 -326 b 8 -149 188 -326 8 -275 b 207 1 8 -65 89 -12 b 56 136 129 10 56 51 b 190 269 56 206 122 251 b 74 463 114 311 74 385 b 343 689 74 588 169 689 b 567 599 442 689 519 656 b 697 706 593 642 633 706 b 788 626 756 706 788 675 b 674 535 788 557 725 535 b 674 538 674 535 674 538 b 699 588 692 550 699 564 b 649 632 699 614 681 632 b 575 588 617 632 590 607 b 614 463 601 551 614 508 b 343 236 614 338 518 236 b 210 260 290 236 247 244 b 135 181 174 247 135 219 b 243 114 135 133 172 114 b 464 114 243 114 464 114 b 725 -75 632 114 725 44 m 336 -300 b 618 -132 511 -300 618 -233 b 450 0 618 -39 560 0 b 297 0 450 0 297 0 b 119 -140 186 0 119 -46 b 336 -300 119 -239 213 -300 "},"Ġ":{"ha":1032,"x_min":0,"x_max":0,"o":"m 465 1156 b 553 1243 465 1204 504 1243 b 640 1156 601 1243 640 1204 b 553 1069 640 1108 601 1069 b 465 1156 504 1069 465 1108 m 547 954 b 194 472 322 954 194 758 b 543 39 194 210 338 39 b 796 264 692 39 796 119 b 796 279 796 264 796 279 b 717 454 796 371 783 426 b 717 457 717 454 717 457 b 1000 457 717 457 1000 457 b 1000 454 1000 457 1000 454 b 921 279 933 426 921 371 b 921 -14 921 279 921 -14 b 918 -14 921 -14 918 -14 b 807 163 918 -14 807 163 b 526 -14 775 75 674 -14 b 50 474 251 -14 50 192 b 547 986 50 775 272 986 b 776 938 658 986 733 938 b 867 986 822 938 849 965 b 878 681 867 986 878 681 b 875 681 878 681 875 681 b 547 954 818 840 701 954 "},"ġ":{"ha":760,"x_min":0,"x_max":0,"o":"m 257 911 b 344 999 257 960 296 999 b 432 911 393 999 432 960 b 344 825 432 864 393 825 b 257 911 296 825 257 864 m 343 665 b 203 463 249 665 203 572 b 343 260 203 353 249 260 b 485 463 439 260 485 353 b 343 665 485 572 439 665 m 725 -75 b 338 -326 725 -231 550 -326 b 8 -149 188 -326 8 -275 b 207 1 8 -65 89 -12 b 56 136 129 10 56 51 b 190 269 56 206 122 251 b 74 463 114 311 74 385 b 343 689 74 588 169 689 b 567 599 442 689 519 656 b 697 706 593 642 633 706 b 788 626 756 706 788 675 b 674 535 788 557 725 535 b 674 538 674 535 674 538 b 699 588 692 550 699 564 b 649 632 699 614 681 632 b 575 588 617 632 590 607 b 614 463 601 551 614 508 b 343 236 614 338 518 236 b 210 260 290 236 247 244 b 135 181 174 247 135 219 b 243 114 135 133 172 114 b 464 114 243 114 464 114 b 725 -75 632 114 725 44 m 336 -300 b 618 -132 511 -300 618 -233 b 450 0 618 -39 560 0 b 297 0 450 0 297 0 b 119 -140 186 0 119 -46 b 336 -300 119 -239 213 -300 "},"Ģ":{"ha":1032,"x_min":0,"x_max":0,"o":"m 547 954 b 194 472 322 954 194 758 b 543 39 194 210 338 39 b 796 264 692 39 796 119 b 796 279 796 264 796 279 b 717 454 796 371 783 426 b 717 457 717 454 717 457 b 1000 457 717 457 1000 457 b 1000 454 1000 457 1000 454 b 921 279 933 426 921 371 b 921 -14 921 279 921 -14 b 918 -14 921 -14 918 -14 b 807 163 918 -14 807 163 b 526 -14 775 75 674 -14 b 50 474 251 -14 50 192 b 547 986 50 775 272 986 b 776 938 658 986 733 938 b 867 986 822 938 849 965 b 878 681 867 986 878 681 b 875 681 878 681 875 681 b 547 954 818 840 701 954 m 650 -196 b 456 -353 650 -275 586 -349 b 456 -333 456 -353 456 -333 b 593 -207 558 -321 593 -276 b 539 -224 581 -217 558 -224 b 468 -156 499 -224 468 -192 b 549 -79 468 -111 501 -79 b 650 -196 607 -79 650 -124 "},"ģ":{"ha":760,"x_min":0,"x_max":0,"o":"m 247 903 b 442 1060 247 982 311 1056 b 442 1040 442 1060 442 1040 b 304 914 339 1028 304 983 b 358 931 317 924 339 931 b 429 863 399 931 429 899 b 349 786 429 818 396 786 b 247 903 290 786 247 831 m 343 665 b 203 463 249 665 203 572 b 343 260 203 353 249 260 b 485 463 439 260 485 353 b 343 665 485 572 439 665 m 725 -75 b 338 -326 725 -231 550 -326 b 8 -149 188 -326 8 -275 b 207 1 8 -65 89 -12 b 56 136 129 10 56 51 b 190 269 56 206 122 251 b 74 463 114 311 74 385 b 343 689 74 588 169 689 b 567 599 442 689 519 656 b 697 706 593 642 633 706 b 788 626 756 706 788 675 b 674 535 788 557 725 535 b 674 538 674 535 674 538 b 699 588 692 550 699 564 b 649 632 699 614 681 632 b 575 588 617 632 590 607 b 614 463 601 551 614 508 b 343 236 614 338 518 236 b 210 260 290 236 247 244 b 135 181 174 247 135 219 b 243 114 135 133 172 114 b 464 114 243 114 464 114 b 725 -75 632 114 725 44 m 336 -300 b 618 -132 511 -300 618 -233 b 450 0 618 -39 560 0 b 297 0 450 0 297 0 b 119 -140 186 0 119 -46 b 336 -300 119 -239 213 -300 "},"Ĥ":{"ha":1101,"x_min":0,"x_max":0,"o":"m 743 1031 b 551 1150 671 1065 596 1190 b 360 1031 507 1110 432 1065 b 349 1031 360 1031 349 1031 b 549 1292 425 1101 508 1203 b 554 1292 549 1292 554 1292 b 754 1031 594 1203 678 1101 b 743 1031 754 1031 743 1031 m 143 178 b 143 794 143 178 143 794 b 64 969 143 886 131 942 b 64 972 64 969 64 972 b 347 972 64 972 347 972 b 347 969 347 972 347 969 b 268 794 281 942 268 886 b 268 513 268 794 268 513 b 833 513 268 513 833 513 b 833 794 833 513 833 794 b 754 969 833 886 821 942 b 754 972 754 969 754 972 b 1038 972 754 972 1038 972 b 1038 969 1038 972 1038 969 b 958 794 971 942 958 886 b 958 178 958 794 958 178 b 1038 3 958 86 971 31 b 1038 0 1038 3 1038 0 b 754 0 1038 0 754 0 b 754 3 754 0 754 3 b 833 178 821 31 833 86 b 833 476 833 178 833 476 b 268 476 833 476 268 476 b 268 178 268 476 268 178 b 347 3 268 86 281 31 b 347 0 347 3 347 0 b 64 0 347 0 64 0 b 64 3 64 0 64 3 b 143 178 131 31 143 86 "},"ĥ":{"ha":818,"x_min":0,"x_max":0,"o":"m 600 1086 b 408 1206 528 1121 453 1246 b 217 1086 364 1165 289 1121 b 206 1086 217 1086 206 1086 b 406 1347 282 1157 365 1258 b 411 1347 406 1347 411 1347 b 611 1086 451 1258 535 1157 b 600 1086 611 1086 600 1086 m 35 1040 b 243 1040 35 1040 243 1040 b 243 482 243 1040 243 482 b 488 689 281 613 368 689 b 704 447 615 689 704 607 b 704 151 704 447 704 151 b 783 3 704 60 717 31 b 783 0 783 3 783 0 b 503 0 783 0 503 0 b 503 3 503 0 503 3 b 582 151 569 31 582 60 b 582 436 582 151 582 436 b 435 619 582 535 544 619 b 243 356 324 619 243 514 b 243 151 243 356 243 151 b 322 3 243 60 256 31 b 322 0 322 3 322 0 b 42 0 322 0 42 0 b 42 3 42 0 42 3 b 121 151 108 31 121 60 b 121 889 121 151 121 889 b 35 1038 121 968 101 1010 b 35 1040 35 1038 35 1040 "},"Ħ":{"ha":1101,"x_min":0,"x_max":0,"o":"m 833 485 b 833 657 833 485 833 657 b 268 657 833 657 268 657 b 268 485 268 657 268 485 b 833 485 268 485 833 485 m 347 0 b 64 0 347 0 64 0 b 64 3 64 0 64 3 b 143 178 131 31 143 86 b 143 657 143 178 143 657 b 64 657 143 657 64 657 b 64 693 64 657 64 693 b 143 693 64 693 143 693 b 143 794 143 693 143 794 b 64 969 143 886 131 942 b 64 972 64 969 64 972 b 347 972 64 972 347 972 b 347 969 347 972 347 969 b 268 794 281 942 268 886 b 268 693 268 794 268 693 b 833 693 268 693 833 693 b 833 794 833 693 833 794 b 754 969 833 886 821 942 b 754 972 754 969 754 972 b 1038 972 754 972 1038 972 b 1038 969 1038 972 1038 969 b 958 794 971 942 958 886 b 958 693 958 794 958 693 b 1038 693 958 693 1038 693 b 1038 657 1038 693 1038 657 b 958 657 1038 657 958 657 b 958 178 958 657 958 178 b 1038 3 958 86 971 31 b 1038 0 1038 3 1038 0 b 754 0 1038 0 754 0 b 754 3 754 0 754 3 b 833 178 821 31 833 86 b 833 449 833 178 833 449 b 268 449 833 449 268 449 b 268 178 268 449 268 178 b 347 3 268 86 281 31 b 347 0 347 3 347 0 "},"ħ":{"ha":818,"x_min":0,"x_max":0,"o":"m 322 3 b 322 0 322 3 322 0 b 42 0 322 0 42 0 b 42 3 42 0 42 3 b 121 151 108 31 121 60 b 121 796 121 151 121 796 b 32 796 121 796 32 796 b 32 832 32 796 32 832 b 121 832 32 832 121 832 b 121 889 121 832 121 889 b 35 1038 121 968 101 1010 b 35 1040 35 1038 35 1040 b 243 1040 35 1040 243 1040 b 243 832 243 1040 243 832 b 417 832 243 832 417 832 b 417 796 417 832 417 796 b 243 796 417 796 243 796 b 243 482 243 796 243 482 b 488 689 281 613 368 689 b 704 447 615 689 704 607 b 704 151 704 447 704 151 b 783 3 704 60 717 31 b 783 0 783 3 783 0 b 503 0 783 0 503 0 b 503 3 503 0 503 3 b 582 151 569 31 582 60 b 582 436 582 151 582 436 b 435 619 582 535 544 619 b 243 356 324 619 243 514 b 243 151 243 356 243 151 b 322 3 243 60 256 31 "},"Ĩ":{"ha":411,"x_min":0,"x_max":0,"o":"m 453 1261 b 301 1072 418 1140 368 1072 b 93 1161 228 1072 153 1161 b -28 1067 38 1161 -1 1124 b -42 1067 -28 1067 -42 1067 b 110 1256 -7 1188 43 1256 b 318 1167 183 1256 258 1167 b 439 1261 374 1167 413 1204 b 453 1261 439 1261 453 1261 m 268 178 b 347 3 268 86 281 31 b 347 0 347 3 347 0 b 64 0 347 0 64 0 b 64 3 64 0 64 3 b 143 178 131 31 143 86 b 143 794 143 178 143 794 b 64 969 143 886 131 942 b 64 972 64 969 64 972 b 347 972 64 972 347 972 b 347 969 347 972 347 969 b 268 794 281 942 268 886 b 268 178 268 794 268 178 "},"ĩ":{"ha":361,"x_min":0,"x_max":0,"o":"m 382 997 b 260 808 360 876 314 808 b 90 893 200 808 139 893 b -4 803 46 893 11 860 b -18 803 -4 803 -18 803 b 104 992 4 924 51 992 b 274 907 164 992 225 907 b 368 997 318 907 353 940 b 382 997 368 997 382 997 m 247 675 b 247 151 247 675 247 151 b 326 3 247 60 260 31 b 326 0 326 3 326 0 b 46 0 326 0 46 0 b 46 3 46 0 46 3 b 125 151 113 31 125 60 b 125 524 125 151 125 524 b 39 672 125 603 106 644 b 39 675 39 672 39 675 b 247 675 39 675 247 675 "},"Ī":{"ha":411,"x_min":0,"x_max":0,"o":"m 397 1083 b 14 1083 397 1083 14 1083 b 14 1132 14 1083 14 1132 b 397 1132 14 1132 397 1132 b 397 1083 397 1132 397 1083 m 268 178 b 347 3 268 86 281 31 b 347 0 347 3 347 0 b 64 0 347 0 64 0 b 64 3 64 0 64 3 b 143 178 131 31 143 86 b 143 794 143 178 143 794 b 64 969 143 886 131 942 b 64 972 64 969 64 972 b 347 972 64 972 347 972 b 347 969 347 972 347 969 b 268 794 281 942 268 886 b 268 178 268 794 268 178 "},"ī":{"ha":361,"x_min":0,"x_max":0,"o":"m 318 833 b 18 833 318 833 18 833 b 18 882 18 833 18 882 b 318 882 18 882 318 882 b 318 833 318 882 318 833 m 247 675 b 247 151 247 675 247 151 b 326 3 247 60 260 31 b 326 0 326 3 326 0 b 46 0 326 0 46 0 b 46 3 46 0 46 3 b 125 151 113 31 125 60 b 125 524 125 151 125 524 b 39 672 125 603 106 644 b 39 675 39 672 39 675 b 247 675 39 675 247 675 "},"Ĭ":{"ha":411,"x_min":0,"x_max":0,"o":"m 397 1274 b 207 1053 396 1139 319 1053 b 15 1274 93 1053 17 1139 b 26 1274 15 1274 26 1274 b 207 1149 35 1188 125 1149 b 386 1274 288 1149 378 1188 b 397 1274 386 1274 397 1274 m 268 178 b 347 3 268 86 281 31 b 347 0 347 3 347 0 b 64 0 347 0 64 0 b 64 3 64 0 64 3 b 143 178 131 31 143 86 b 143 794 143 178 143 794 b 64 969 143 886 131 942 b 64 972 64 969 64 972 b 347 972 64 972 347 972 b 347 969 347 972 347 969 b 268 794 281 942 268 886 b 268 178 268 794 268 178 "},"ĭ":{"ha":361,"x_min":0,"x_max":0,"o":"m 346 1031 b 179 788 344 872 278 788 b 13 1031 81 788 14 872 b 22 1031 13 1031 22 1031 b 179 886 29 928 108 886 b 336 1031 250 886 329 928 b 346 1031 336 1031 346 1031 m 247 675 b 247 151 247 675 247 151 b 326 3 247 60 260 31 b 326 0 326 3 326 0 b 46 0 326 0 46 0 b 46 3 46 0 46 3 b 125 151 113 31 125 60 b 125 524 125 151 125 524 b 39 672 125 603 106 644 b 39 675 39 672 39 675 b 247 675 39 675 247 675 "},"Į":{"ha":411,"x_min":0,"x_max":0,"o":"m 364 -193 b 174 -329 336 -260 283 -329 b 44 -208 107 -329 44 -285 b 224 0 44 -117 128 -56 b 64 0 224 0 64 0 b 64 3 64 0 64 3 b 143 178 131 31 143 86 b 143 794 143 178 143 794 b 64 969 143 886 131 942 b 64 972 64 969 64 972 b 347 972 64 972 347 972 b 347 969 347 972 347 969 b 268 794 281 942 268 886 b 268 178 268 794 268 178 b 347 3 268 86 281 31 b 347 0 347 3 347 0 b 254 0 347 0 254 0 b 140 -181 176 -61 140 -121 b 226 -267 140 -236 171 -267 b 360 -190 279 -267 325 -243 b 364 -193 360 -190 364 -193 "},"į":{"ha":361,"x_min":0,"x_max":0,"o":"m 90 913 b 178 999 90 961 128 999 b 265 913 228 999 265 961 b 178 826 265 864 228 826 b 90 913 128 826 90 864 m 340 -193 b 150 -329 313 -260 260 -329 b 21 -208 83 -329 21 -285 b 200 0 21 -117 104 -56 b 46 0 200 0 46 0 b 46 3 46 0 46 3 b 125 151 113 31 125 60 b 125 524 125 151 125 524 b 39 672 125 603 106 644 b 39 675 39 672 39 675 b 247 675 39 675 247 675 b 247 151 247 675 247 151 b 326 3 247 60 260 31 b 326 0 326 3 326 0 b 231 0 326 0 231 0 b 117 -181 153 -61 117 -121 b 203 -267 117 -236 147 -267 b 336 -190 256 -267 301 -243 b 340 -193 336 -190 340 -193 "},"İ":{"ha":411,"x_min":0,"x_max":0,"o":"m 118 1156 b 206 1243 118 1204 157 1243 b 293 1156 254 1243 293 1204 b 206 1069 293 1108 254 1069 b 118 1156 157 1069 118 1108 m 268 178 b 347 3 268 86 281 31 b 347 0 347 3 347 0 b 64 0 347 0 64 0 b 64 3 64 0 64 3 b 143 178 131 31 143 86 b 143 794 143 178 143 794 b 64 969 143 886 131 942 b 64 972 64 969 64 972 b 347 972 64 972 347 972 b 347 969 347 972 347 969 b 268 794 281 942 268 886 b 268 178 268 794 268 178 "},"ı":{"ha":361,"x_min":0,"x_max":0,"o":"m 247 675 b 247 151 247 675 247 151 b 326 3 247 60 260 31 b 326 0 326 3 326 0 b 46 0 326 0 46 0 b 46 3 46 0 46 3 b 125 151 113 31 125 60 b 125 524 125 151 125 524 b 39 672 125 603 106 644 b 39 675 39 672 39 675 b 247 675 39 675 247 675 "},"Ĵ":{"ha":738,"x_min":0,"x_max":0,"o":"m 747 1031 b 556 1150 675 1065 600 1190 b 364 1031 511 1110 436 1065 b 353 1031 364 1031 353 1031 b 553 1292 429 1101 513 1203 b 558 1292 553 1292 558 1292 b 758 1031 599 1203 682 1101 b 747 1031 758 1031 747 1031 m 490 253 b 490 794 490 253 490 794 b 411 969 490 886 478 942 b 411 972 411 969 411 972 b 694 972 411 972 694 972 b 694 969 694 972 694 969 b 615 794 628 942 615 886 b 615 261 615 794 615 261 b 315 -14 615 83 486 -14 b 29 192 147 -14 29 69 b 158 318 29 269 81 318 b 240 290 189 318 219 308 b 156 182 182 283 156 242 b 315 13 156 88 214 13 b 490 253 443 13 490 111 "},"ĵ":{"ha":325,"x_min":0,"x_max":0,"o":"m 353 767 b 161 901 281 804 206 944 b -31 767 117 858 42 804 b -42 767 -31 767 -42 767 b 158 1050 35 843 118 953 b 164 1050 158 1050 164 1050 b 364 767 204 953 288 843 b 353 767 364 767 353 767 m 229 -75 b -17 -326 229 -257 119 -326 b -207 -201 -126 -326 -207 -278 b -118 -122 -207 -156 -174 -122 b -53 -144 -93 -122 -68 -131 b -103 -212 -82 -153 -103 -175 b -10 -304 -103 -272 -69 -304 b 107 -85 76 -304 107 -235 b 107 524 107 -85 107 524 b 21 672 107 603 88 644 b 21 675 21 672 21 675 b 229 675 21 675 229 675 b 229 -75 229 675 229 -75 "},"Ķ":{"ha":964,"x_min":0,"x_max":0,"o":"m 347 0 b 64 0 347 0 64 0 b 64 3 64 0 64 3 b 143 178 131 31 143 86 b 143 794 143 178 143 794 b 64 969 143 886 131 942 b 64 972 64 969 64 972 b 347 972 64 972 347 972 b 347 969 347 972 347 969 b 268 794 281 942 268 886 b 268 461 268 794 268 461 b 658 836 268 461 658 836 b 699 907 683 860 699 885 b 649 969 699 933 681 956 b 649 972 649 969 649 972 b 921 972 649 972 921 972 b 921 969 921 972 921 969 b 704 831 821 932 769 890 b 439 579 704 831 439 579 b 792 156 439 579 792 156 b 971 3 851 86 915 26 b 971 0 971 3 971 0 b 656 0 971 0 656 0 b 656 3 656 0 656 3 b 692 57 682 17 692 29 b 654 132 692 83 678 103 b 356 499 654 132 356 499 b 268 415 356 499 268 415 b 268 178 268 415 268 178 b 347 3 268 86 281 31 b 347 0 347 3 347 0 m 564 -196 b 369 -353 564 -275 500 -349 b 369 -333 369 -353 369 -333 b 507 -207 472 -321 507 -276 b 453 -224 494 -217 472 -224 b 382 -156 413 -224 382 -192 b 463 -79 382 -111 415 -79 b 564 -196 521 -79 564 -124 "},"ķ":{"ha":753,"x_min":0,"x_max":0,"o":"m 243 389 b 285 389 243 389 285 389 b 396 438 326 389 356 396 b 511 563 396 438 511 563 b 536 618 528 581 536 597 b 490 672 536 640 521 661 b 490 675 490 672 490 675 b 744 675 490 675 744 675 b 744 672 744 675 744 672 b 553 556 664 653 611 617 b 410 403 553 556 410 403 b 621 128 410 403 621 128 b 789 3 674 58 721 24 b 789 0 789 3 789 0 b 550 0 789 0 550 0 b 494 100 542 36 519 68 b 322 329 494 100 322 329 b 269 358 306 351 293 358 b 243 358 269 358 243 358 b 243 151 243 358 243 151 b 322 3 243 60 256 31 b 322 0 322 3 322 0 b 42 0 322 0 42 0 b 42 3 42 0 42 3 b 121 151 108 31 121 60 b 121 889 121 151 121 889 b 35 1038 121 968 101 1010 b 35 1040 35 1038 35 1040 b 243 1040 35 1040 243 1040 b 243 389 243 1040 243 389 m 486 -196 b 292 -353 486 -275 422 -349 b 292 -333 292 -353 292 -333 b 429 -207 394 -321 429 -276 b 375 -224 417 -217 394 -224 b 304 -156 335 -224 304 -192 b 385 -79 304 -111 338 -79 b 486 -196 443 -79 486 -124 "},"ĸ":{"ha":757,"x_min":0,"x_max":0,"o":"m 247 389 b 289 389 247 389 289 389 b 400 438 331 389 360 396 b 515 563 400 438 515 563 b 540 618 532 581 540 597 b 494 672 540 640 525 661 b 494 675 494 672 494 675 b 749 675 494 675 749 675 b 749 672 749 675 749 672 b 557 556 668 653 615 617 b 414 403 557 556 414 403 b 625 128 414 403 625 128 b 793 3 678 58 725 24 b 793 0 793 3 793 0 b 554 0 793 0 554 0 b 499 100 546 36 524 68 b 326 329 499 100 326 329 b 274 358 310 351 297 358 b 247 358 274 358 247 358 b 247 151 247 358 247 151 b 326 3 247 60 260 31 b 326 0 326 3 326 0 b 46 0 326 0 46 0 b 46 3 46 0 46 3 b 125 151 113 31 125 60 b 125 524 125 151 125 524 b 39 672 125 603 106 644 b 39 675 39 672 39 675 b 247 675 39 675 247 675 b 247 389 247 675 247 389 "},"Ĺ":{"ha":843,"x_min":0,"x_max":0,"o":"m 272 1271 b 425 1271 272 1271 425 1271 b 188 1043 368 1190 296 1118 b 182 1043 188 1043 182 1043 b 272 1271 239 1128 261 1192 m 64 972 b 347 972 64 972 347 972 b 347 969 347 972 347 969 b 268 794 281 942 268 886 b 268 36 268 794 268 36 b 493 36 268 36 493 36 b 813 269 649 36 739 122 b 815 269 813 269 815 269 b 771 0 815 269 771 0 b 64 0 771 0 64 0 b 64 3 64 0 64 3 b 143 178 131 31 143 86 b 143 794 143 178 143 794 b 64 969 143 886 131 942 b 64 972 64 969 64 972 "},"ĺ":{"ha":357,"x_min":0,"x_max":0,"o":"m 194 1313 b 347 1313 194 1313 347 1313 b 110 1085 290 1232 218 1160 b 104 1085 110 1085 104 1085 b 194 1313 161 1169 183 1233 m 243 1040 b 243 151 243 1040 243 151 b 322 3 243 60 256 31 b 322 0 322 3 322 0 b 42 0 322 0 42 0 b 42 3 42 0 42 3 b 121 151 108 31 121 60 b 121 889 121 151 121 889 b 35 1038 121 968 101 1010 b 35 1040 35 1038 35 1040 b 243 1040 35 1040 243 1040 "},"Ļ":{"ha":843,"x_min":0,"x_max":0,"o":"m 64 972 b 347 972 64 972 347 972 b 347 969 347 972 347 969 b 268 794 281 942 268 886 b 268 36 268 794 268 36 b 493 36 268 36 493 36 b 813 269 649 36 739 122 b 815 269 813 269 815 269 b 771 0 815 269 771 0 b 64 0 771 0 64 0 b 64 3 64 0 64 3 b 143 178 131 31 143 86 b 143 794 143 178 143 794 b 64 969 143 886 131 942 b 64 972 64 969 64 972 m 531 -196 b 336 -353 531 -275 467 -349 b 336 -333 336 -353 336 -333 b 474 -207 439 -321 474 -276 b 419 -224 461 -217 439 -224 b 349 -156 379 -224 349 -192 b 429 -79 349 -111 382 -79 b 531 -196 488 -79 531 -124 "},"ļ":{"ha":357,"x_min":0,"x_max":0,"o":"m 243 1040 b 243 151 243 1040 243 151 b 322 3 243 60 256 31 b 322 0 322 3 322 0 b 42 0 322 0 42 0 b 42 3 42 0 42 3 b 121 151 108 31 121 60 b 121 889 121 151 121 889 b 35 1038 121 968 101 1010 b 35 1040 35 1038 35 1040 b 243 1040 35 1040 243 1040 m 275 -196 b 81 -353 275 -275 211 -349 b 81 -333 81 -353 81 -333 b 218 -207 183 -321 218 -276 b 164 -224 206 -217 183 -224 b 93 -156 124 -224 93 -192 b 174 -79 93 -111 126 -79 b 275 -196 232 -79 275 -124 "},"Ľ":{"ha":843,"x_min":0,"x_max":0,"o":"m 701 972 b 558 688 682 882 611 750 b 554 688 558 688 554 688 b 579 972 575 764 586 868 b 701 972 579 972 701 972 m 64 972 b 347 972 64 972 347 972 b 347 969 347 972 347 969 b 268 794 281 942 268 886 b 268 36 268 794 268 36 b 493 36 268 36 493 36 b 813 269 649 36 739 122 b 815 269 813 269 815 269 b 771 0 815 269 771 0 b 64 0 771 0 64 0 b 64 3 64 0 64 3 b 143 178 131 31 143 86 b 143 794 143 178 143 794 b 64 969 143 886 131 942 b 64 972 64 969 64 972 "},"ľ":{"ha":357,"x_min":0,"x_max":0,"o":"m 474 1040 b 331 756 454 950 383 818 b 326 756 331 756 326 756 b 351 1040 347 832 358 936 b 474 1040 351 1040 474 1040 m 243 1040 b 243 151 243 1040 243 151 b 322 3 243 60 256 31 b 322 0 322 3 322 0 b 42 0 322 0 42 0 b 42 3 42 0 42 3 b 121 151 108 31 121 60 b 121 889 121 151 121 889 b 35 1038 121 968 101 1010 b 35 1040 35 1038 35 1040 b 243 1040 35 1040 243 1040 "},"Ŀ":{"ha":843,"x_min":0,"x_max":0,"o":"m 64 972 b 347 972 64 972 347 972 b 347 969 347 972 347 969 b 268 794 281 942 268 886 b 268 36 268 794 268 36 b 493 36 268 36 493 36 b 813 269 649 36 739 122 b 815 269 813 269 815 269 b 771 0 815 269 771 0 b 64 0 771 0 64 0 b 64 3 64 0 64 3 b 143 178 131 31 143 86 b 143 794 143 178 143 794 b 64 969 143 886 131 942 b 64 972 64 969 64 972 m 626 525 b 714 613 626 574 665 613 b 801 525 763 613 801 574 b 714 439 801 478 763 439 b 626 525 665 439 626 478 "},"ŀ":{"ha":485,"x_min":0,"x_max":0,"o":"m 243 1040 b 243 151 243 1040 243 151 b 322 3 243 60 256 31 b 322 0 322 3 322 0 b 42 0 322 0 42 0 b 42 3 42 0 42 3 b 121 151 108 31 121 60 b 121 889 121 151 121 889 b 35 1038 121 968 101 1010 b 35 1040 35 1038 35 1040 b 243 1040 35 1040 243 1040 m 336 518 b 424 606 336 567 375 606 b 511 518 472 606 511 567 b 424 432 511 471 472 432 b 336 518 375 432 336 471 "},"Ł":{"ha":843,"x_min":0,"x_max":0,"o":"m 771 0 b 64 0 771 0 64 0 b 64 3 64 0 64 3 b 143 178 131 31 143 86 b 143 433 143 178 143 433 b 64 401 143 433 64 401 b 64 440 64 401 64 440 b 143 472 64 440 143 472 b 143 794 143 472 143 794 b 64 969 143 886 131 942 b 64 972 64 969 64 972 b 347 972 64 972 347 972 b 347 969 347 972 347 969 b 268 794 281 942 268 886 b 268 514 268 794 268 514 b 476 599 268 514 476 599 b 476 560 476 599 476 560 b 268 476 476 560 268 476 b 268 36 268 476 268 36 b 493 36 268 36 493 36 b 813 269 649 36 739 122 b 815 269 813 269 815 269 b 771 0 815 269 771 0 "},"ł":{"ha":378,"x_min":0,"x_max":0,"o":"m 329 0 b 49 0 329 0 49 0 b 49 3 49 0 49 3 b 128 151 115 31 128 60 b 128 536 128 151 128 536 b 19 471 128 536 19 471 b 19 510 19 471 19 510 b 128 576 19 510 128 576 b 128 889 128 576 128 889 b 42 1038 128 968 108 1010 b 42 1040 42 1038 42 1040 b 250 1040 42 1040 250 1040 b 250 640 250 1040 250 640 b 358 707 250 640 358 707 b 358 668 358 707 358 668 b 250 601 358 668 250 601 b 250 151 250 601 250 151 b 329 3 250 60 263 31 b 329 0 329 3 329 0 "},"Ń":{"ha":1019,"x_min":0,"x_max":0,"o":"m 544 1271 b 697 1271 544 1271 697 1271 b 460 1043 640 1190 568 1118 b 454 1043 460 1043 454 1043 b 544 1271 511 1128 533 1192 m 990 969 b 886 774 924 942 886 879 b 886 -12 886 774 886 -12 b 883 -12 886 -12 883 -12 b 182 879 883 -12 182 879 b 182 199 182 879 182 199 b 286 3 182 93 219 31 b 286 0 286 3 286 0 b 39 0 286 0 39 0 b 39 3 39 0 39 3 b 143 199 106 31 143 93 b 143 794 143 199 143 794 b 64 969 143 886 131 942 b 64 972 64 969 64 972 b 269 972 64 972 269 972 b 847 228 269 972 847 228 b 847 774 847 228 847 774 b 743 969 847 879 810 942 b 743 972 743 969 743 972 b 990 972 743 972 990 972 b 990 969 990 972 990 969 "},"ń":{"ha":822,"x_min":0,"x_max":0,"o":"m 442 1040 b 583 1040 442 1040 583 1040 b 349 779 528 949 456 865 b 343 779 349 779 343 779 b 442 1040 400 876 432 950 m 39 675 b 247 675 39 675 247 675 b 247 482 247 675 247 482 b 492 689 285 613 372 689 b 708 447 619 689 708 607 b 708 151 708 447 708 151 b 788 3 708 60 721 31 b 788 0 788 3 788 0 b 507 0 788 0 507 0 b 507 3 507 0 507 3 b 586 151 574 31 586 60 b 586 436 586 151 586 436 b 439 619 586 535 549 619 b 247 356 328 619 247 514 b 247 151 247 356 247 151 b 326 3 247 60 260 31 b 326 0 326 3 326 0 b 46 0 326 0 46 0 b 46 3 46 0 46 3 b 125 151 113 31 125 60 b 125 524 125 151 125 524 b 39 672 125 603 106 644 b 39 675 39 672 39 675 "},"Ņ":{"ha":1019,"x_min":0,"x_max":0,"o":"m 990 969 b 886 774 924 942 886 879 b 886 -12 886 774 886 -12 b 883 -12 886 -12 883 -12 b 182 879 883 -12 182 879 b 182 199 182 879 182 199 b 286 3 182 93 219 31 b 286 0 286 3 286 0 b 39 0 286 0 39 0 b 39 3 39 0 39 3 b 143 199 106 31 143 93 b 143 794 143 199 143 794 b 64 969 143 886 131 942 b 64 972 64 969 64 972 b 269 972 64 972 269 972 b 847 228 269 972 847 228 b 847 774 847 228 847 774 b 743 969 847 879 810 942 b 743 972 743 969 743 972 b 990 972 743 972 990 972 b 990 969 990 972 990 969 m 625 -196 b 431 -353 625 -275 561 -349 b 431 -333 431 -353 431 -333 b 568 -207 533 -321 568 -276 b 514 -224 556 -217 533 -224 b 443 -156 474 -224 443 -192 b 524 -79 443 -111 476 -79 b 625 -196 582 -79 625 -124 "},"ņ":{"ha":822,"x_min":0,"x_max":0,"o":"m 39 675 b 247 675 39 675 247 675 b 247 482 247 675 247 482 b 492 689 285 613 372 689 b 708 447 619 689 708 607 b 708 151 708 447 708 151 b 788 3 708 60 721 31 b 788 0 788 3 788 0 b 507 0 788 0 507 0 b 507 3 507 0 507 3 b 586 151 574 31 586 60 b 586 436 586 151 586 436 b 439 619 586 535 549 619 b 247 356 328 619 247 514 b 247 151 247 356 247 151 b 326 3 247 60 260 31 b 326 0 326 3 326 0 b 46 0 326 0 46 0 b 46 3 46 0 46 3 b 125 151 113 31 125 60 b 125 524 125 151 125 524 b 39 672 125 603 106 644 b 39 675 39 672 39 675 m 521 -196 b 326 -353 521 -275 457 -349 b 326 -333 326 -353 326 -333 b 464 -207 429 -321 464 -276 b 410 -224 451 -217 429 -224 b 339 -156 369 -224 339 -192 b 419 -79 339 -111 372 -79 b 521 -196 478 -79 521 -124 "},"Ň":{"ha":1019,"x_min":0,"x_max":0,"o":"m 336 1292 b 528 1172 408 1257 483 1132 b 719 1292 572 1213 647 1257 b 731 1292 719 1292 731 1292 b 531 1031 654 1221 571 1119 b 525 1031 531 1031 525 1031 b 325 1292 485 1119 401 1221 b 336 1292 325 1292 336 1292 m 990 969 b 886 774 924 942 886 879 b 886 -12 886 774 886 -12 b 883 -12 886 -12 883 -12 b 182 879 883 -12 182 879 b 182 199 182 879 182 199 b 286 3 182 93 219 31 b 286 0 286 3 286 0 b 39 0 286 0 39 0 b 39 3 39 0 39 3 b 143 199 106 31 143 93 b 143 794 143 199 143 794 b 64 969 143 886 131 942 b 64 972 64 969 64 972 b 269 972 64 972 269 972 b 847 228 269 972 847 228 b 847 774 847 228 847 774 b 743 969 847 879 810 942 b 743 972 743 969 743 972 b 990 972 743 972 990 972 b 990 969 990 972 990 969 "},"ň":{"ha":822,"x_min":0,"x_max":0,"o":"m 232 1050 b 424 915 304 1013 379 872 b 615 1050 468 958 543 1013 b 626 1050 615 1050 626 1050 b 426 767 550 974 467 864 b 421 767 426 767 421 767 b 221 1050 381 864 297 974 b 232 1050 221 1050 232 1050 m 39 675 b 247 675 39 675 247 675 b 247 482 247 675 247 482 b 492 689 285 613 372 689 b 708 447 619 689 708 607 b 708 151 708 447 708 151 b 788 3 708 60 721 31 b 788 0 788 3 788 0 b 507 0 788 0 507 0 b 507 3 507 0 507 3 b 586 151 574 31 586 60 b 586 436 586 151 586 436 b 439 619 586 535 549 619 b 247 356 328 619 247 514 b 247 151 247 356 247 151 b 326 3 247 60 260 31 b 326 0 326 3 326 0 b 46 0 326 0 46 0 b 46 3 46 0 46 3 b 125 151 113 31 125 60 b 125 524 125 151 125 524 b 39 672 125 603 106 644 b 39 675 39 672 39 675 "},"Ŋ":{"ha":1019,"x_min":0,"x_max":0,"o":"m 847 -82 b 847 33 847 -82 847 33 b 182 879 847 33 182 879 b 182 199 182 879 182 199 b 286 3 182 93 219 31 b 286 0 286 3 286 0 b 39 0 286 0 39 0 b 39 3 39 0 39 3 b 143 199 106 31 143 93 b 143 794 143 199 143 794 b 64 969 143 886 131 942 b 64 972 64 969 64 972 b 269 972 64 972 269 972 b 847 228 269 972 847 228 b 847 774 847 228 847 774 b 743 969 847 879 810 942 b 743 972 743 969 743 972 b 990 972 743 972 990 972 b 990 969 990 972 990 969 b 886 774 924 942 886 879 b 886 -72 886 774 886 -72 b 704 -326 886 -235 831 -326 b 517 -196 594 -326 517 -272 b 606 -111 517 -150 550 -111 b 671 -133 631 -111 656 -119 b 621 -201 642 -142 621 -164 b 704 -296 621 -261 651 -296 b 847 -82 796 -296 847 -232 "},"ŋ":{"ha":822,"x_min":0,"x_max":0,"o":"m 463 -326 b 272 -201 353 -326 272 -278 b 361 -122 272 -156 306 -122 b 426 -144 386 -122 411 -131 b 376 -212 397 -153 376 -175 b 469 -304 376 -272 410 -304 b 586 -85 556 -304 586 -235 b 586 436 586 -85 586 436 b 439 619 586 535 549 619 b 247 356 328 619 247 514 b 247 151 247 356 247 151 b 326 3 247 60 260 31 b 326 0 326 3 326 0 b 46 0 326 0 46 0 b 46 3 46 0 46 3 b 125 151 113 31 125 60 b 125 524 125 151 125 524 b 39 672 125 603 106 644 b 39 675 39 672 39 675 b 247 675 39 675 247 675 b 247 482 247 675 247 482 b 492 689 285 613 372 689 b 708 447 619 689 708 607 b 708 -75 708 447 708 -75 b 463 -326 708 -257 599 -326 "},"Ō":{"ha":1053,"x_min":0,"x_max":0,"o":"m 718 1083 b 335 1083 718 1083 335 1083 b 335 1132 335 1083 335 1132 b 718 1132 335 1132 718 1132 b 718 1083 718 1132 718 1083 m 1003 486 b 526 -14 1003 194 785 -14 b 50 486 268 -14 50 194 b 526 986 50 778 268 986 b 1003 486 785 986 1003 778 m 858 486 b 526 954 858 753 744 954 b 194 486 308 954 194 753 b 526 18 194 219 308 18 b 858 486 744 18 858 219 "},"ō":{"ha":769,"x_min":0,"x_max":0,"o":"m 576 833 b 193 833 576 833 193 833 b 193 882 193 833 193 882 b 576 882 193 882 576 882 b 576 833 576 882 576 833 m 385 -14 b 44 338 186 -14 44 135 b 385 689 44 540 186 689 b 725 338 583 689 725 540 b 385 -14 725 135 583 -14 m 385 14 b 588 338 513 14 588 157 b 385 661 588 518 513 661 b 182 338 257 661 182 518 b 385 14 182 157 257 14 "},"Ŏ":{"ha":1053,"x_min":0,"x_max":0,"o":"m 718 1274 b 528 1053 717 1139 640 1053 b 336 1274 414 1053 338 1139 b 347 1274 336 1274 347 1274 b 528 1149 356 1188 446 1149 b 707 1274 608 1149 699 1188 b 718 1274 707 1274 718 1274 m 1003 486 b 526 -14 1003 194 785 -14 b 50 486 268 -14 50 194 b 526 986 50 778 268 986 b 1003 486 785 986 1003 778 m 858 486 b 526 954 858 753 744 954 b 194 486 308 954 194 753 b 526 18 194 219 308 18 b 858 486 744 18 858 219 "},"ŏ":{"ha":769,"x_min":0,"x_max":0,"o":"m 575 1031 b 385 789 574 883 497 789 b 194 1031 272 789 196 883 b 206 1031 194 1031 206 1031 b 385 886 214 928 304 886 b 564 1031 465 886 556 928 b 575 1031 564 1031 575 1031 m 385 -14 b 44 338 186 -14 44 135 b 385 689 44 540 186 689 b 725 338 583 689 725 540 b 385 -14 725 135 583 -14 m 385 14 b 588 338 513 14 588 157 b 385 661 588 518 513 661 b 182 338 257 661 182 518 b 385 14 182 157 257 14 "},"Ő":{"ha":1053,"x_min":0,"x_max":0,"o":"m 486 1271 b 639 1271 486 1271 639 1271 b 401 1043 582 1190 510 1118 b 396 1043 401 1043 396 1043 b 486 1271 453 1128 475 1192 m 694 1271 b 847 1271 694 1271 847 1271 b 610 1043 790 1190 718 1118 b 604 1043 610 1043 604 1043 b 694 1271 661 1128 683 1192 m 1003 486 b 526 -14 1003 194 785 -14 b 50 486 268 -14 50 194 b 526 986 50 778 268 986 b 1003 486 785 986 1003 778 m 858 486 b 526 954 858 753 744 954 b 194 486 308 954 194 753 b 526 18 194 219 308 18 b 858 486 744 18 858 219 "},"ő":{"ha":769,"x_min":0,"x_max":0,"o":"m 356 1040 b 493 1040 356 1040 493 1040 b 258 779 438 949 365 865 b 253 779 258 779 253 779 b 356 1040 310 876 346 950 m 540 1040 b 678 1040 540 1040 678 1040 b 443 779 622 949 550 865 b 438 779 443 779 438 779 b 540 1040 494 876 531 950 m 385 -14 b 44 338 186 -14 44 135 b 385 689 44 540 186 689 b 725 338 583 689 725 540 b 385 -14 725 135 583 -14 m 385 14 b 588 338 513 14 588 157 b 385 661 588 518 513 661 b 182 338 257 661 182 518 b 385 14 182 157 257 14 "},"Œ":{"ha":1501,"x_min":0,"x_max":0,"o":"m 754 36 b 754 936 754 36 754 936 b 613 936 754 936 613 936 b 188 475 383 936 188 813 b 633 36 188 182 382 36 b 754 36 633 36 754 36 m 1461 256 b 1417 0 1461 256 1417 0 b 621 0 1417 0 621 0 b 50 475 286 0 50 161 b 588 972 50 813 296 972 b 1306 972 588 972 1306 972 b 1372 982 1331 972 1357 974 b 1419 742 1372 982 1419 742 b 1417 742 1419 742 1417 742 b 1110 936 1344 874 1265 936 b 879 936 1110 936 879 936 b 879 511 879 936 879 511 b 1074 511 879 511 1074 511 b 1268 665 1186 511 1221 536 b 1271 665 1268 665 1271 665 b 1271 342 1271 665 1271 342 b 1268 342 1271 342 1268 342 b 1074 475 1221 469 1186 475 b 879 475 1074 475 879 475 b 879 36 879 475 879 36 b 1139 36 879 36 1139 36 b 1458 256 1294 36 1385 108 b 1461 256 1458 256 1461 256 "},"œ":{"ha":1244,"x_min":0,"x_max":0,"o":"m 1203 218 b 915 -14 1176 69 1068 -14 b 654 128 810 -14 707 42 b 385 -14 597 46 499 -14 b 44 338 186 -14 44 135 b 385 689 44 540 186 689 b 656 544 500 689 603 629 b 911 689 714 631 810 689 b 1199 365 1111 689 1199 556 b 713 365 1199 365 713 365 b 961 50 713 181 806 50 b 1194 221 1065 50 1154 106 b 1203 218 1194 221 1203 218 m 588 338 b 385 661 588 518 513 661 b 182 338 257 661 182 518 b 385 14 182 157 257 14 b 588 338 513 14 588 157 m 715 394 b 1067 394 715 394 1067 394 b 910 661 1067 536 1042 661 b 715 394 811 661 722 558 "},"Ŕ":{"ha":957,"x_min":0,"x_max":0,"o":"m 481 1271 b 633 1271 481 1271 633 1271 b 396 1043 576 1190 504 1118 b 390 1043 396 1043 390 1043 b 481 1271 447 1128 469 1192 m 268 936 b 268 493 268 936 268 493 b 461 493 268 493 461 493 b 704 710 604 493 704 546 b 461 936 704 864 617 936 b 268 936 461 936 268 936 m 64 972 b 479 972 64 972 479 972 b 842 717 679 972 842 906 b 522 469 842 539 678 475 b 767 290 664 458 733 389 b 806 174 767 290 806 174 b 969 3 842 65 885 33 b 969 0 969 3 969 0 b 757 0 969 0 757 0 b 678 150 728 24 701 83 b 635 275 678 150 635 275 b 436 457 600 374 557 457 b 268 457 436 457 268 457 b 268 178 268 457 268 178 b 347 3 268 86 281 31 b 347 0 347 3 347 0 b 64 0 347 0 64 0 b 64 3 64 0 64 3 b 143 178 131 31 143 86 b 143 794 143 178 143 794 b 64 969 143 886 131 942 b 64 972 64 969 64 972 "},"ŕ":{"ha":617,"x_min":0,"x_max":0,"o":"m 339 1040 b 481 1040 339 1040 481 1040 b 246 779 425 949 353 865 b 240 779 246 779 240 779 b 339 1040 297 876 329 950 m 457 486 b 499 549 482 496 499 518 b 424 613 499 586 471 613 b 247 313 329 613 247 475 b 247 151 247 313 247 151 b 368 3 247 60 289 26 b 368 0 368 3 368 0 b 46 0 368 0 46 0 b 46 3 46 0 46 3 b 125 151 113 31 125 60 b 125 524 125 151 125 524 b 39 672 125 603 106 644 b 39 675 39 672 39 675 b 247 675 39 675 247 675 b 247 442 247 675 247 442 b 474 689 278 572 350 689 b 603 578 547 689 603 644 b 503 468 603 501 547 468 b 457 486 482 468 464 476 "},"Ŗ":{"ha":957,"x_min":0,"x_max":0,"o":"m 268 936 b 268 493 268 936 268 493 b 461 493 268 493 461 493 b 704 710 604 493 704 546 b 461 936 704 864 617 936 b 268 936 461 936 268 936 m 64 972 b 479 972 64 972 479 972 b 842 717 679 972 842 906 b 522 469 842 539 678 475 b 767 290 664 458 733 389 b 806 174 767 290 806 174 b 969 3 842 65 885 33 b 969 0 969 3 969 0 b 757 0 969 0 757 0 b 678 150 728 24 701 83 b 635 275 678 150 635 275 b 436 457 600 374 557 457 b 268 457 436 457 268 457 b 268 178 268 457 268 178 b 347 3 268 86 281 31 b 347 0 347 3 347 0 b 64 0 347 0 64 0 b 64 3 64 0 64 3 b 143 178 131 31 143 86 b 143 794 143 178 143 794 b 64 969 143 886 131 942 b 64 972 64 969 64 972 m 561 -196 b 367 -353 561 -275 497 -349 b 367 -333 367 -353 367 -333 b 504 -207 469 -321 504 -276 b 450 -224 492 -217 469 -224 b 379 -156 410 -224 379 -192 b 460 -79 379 -111 413 -79 b 561 -196 518 -79 561 -124 "},"ŗ":{"ha":617,"x_min":0,"x_max":0,"o":"m 457 486 b 499 549 482 496 499 518 b 424 613 499 586 471 613 b 247 313 329 613 247 475 b 247 151 247 313 247 151 b 368 3 247 60 289 26 b 368 0 368 3 368 0 b 46 0 368 0 46 0 b 46 3 46 0 46 3 b 125 151 113 31 125 60 b 125 524 125 151 125 524 b 39 672 125 603 106 644 b 39 675 39 672 39 675 b 247 675 39 675 247 675 b 247 442 247 675 247 442 b 474 689 278 572 350 689 b 603 578 547 689 603 644 b 503 468 603 501 547 468 b 457 486 482 468 464 476 m 279 -196 b 85 -353 279 -275 215 -349 b 85 -333 85 -353 85 -333 b 222 -207 188 -321 222 -276 b 168 -224 210 -217 188 -224 b 97 -156 128 -224 97 -192 b 178 -79 97 -111 131 -79 b 279 -196 236 -79 279 -124 "},"Ř":{"ha":957,"x_min":0,"x_max":0,"o":"m 272 1292 b 464 1172 344 1257 419 1132 b 656 1292 508 1213 583 1257 b 667 1292 656 1292 667 1292 b 467 1031 590 1221 507 1119 b 461 1031 467 1031 461 1031 b 261 1292 421 1119 338 1221 b 272 1292 261 1292 272 1292 m 268 936 b 268 493 268 936 268 493 b 461 493 268 493 461 493 b 704 710 604 493 704 546 b 461 936 704 864 617 936 b 268 936 461 936 268 936 m 64 972 b 479 972 64 972 479 972 b 842 717 679 972 842 906 b 522 469 842 539 678 475 b 767 290 664 458 733 389 b 806 174 767 290 806 174 b 969 3 842 65 885 33 b 969 0 969 3 969 0 b 757 0 969 0 757 0 b 678 150 728 24 701 83 b 635 275 678 150 635 275 b 436 457 600 374 557 457 b 268 457 436 457 268 457 b 268 178 268 457 268 178 b 347 3 268 86 281 31 b 347 0 347 3 347 0 b 64 0 347 0 64 0 b 64 3 64 0 64 3 b 143 178 131 31 143 86 b 143 794 143 178 143 794 b 64 969 143 886 131 942 b 64 972 64 969 64 972 "},"ř":{"ha":617,"x_min":0,"x_max":0,"o":"m 129 1050 b 321 915 201 1013 276 872 b 513 1050 365 958 440 1013 b 524 1050 513 1050 524 1050 b 324 767 447 974 364 864 b 318 767 324 767 318 767 b 118 1050 278 864 194 974 b 129 1050 118 1050 129 1050 m 457 486 b 499 549 482 496 499 518 b 424 613 499 586 471 613 b 247 313 329 613 247 475 b 247 151 247 313 247 151 b 368 3 247 60 289 26 b 368 0 368 3 368 0 b 46 0 368 0 46 0 b 46 3 46 0 46 3 b 125 151 113 31 125 60 b 125 524 125 151 125 524 b 39 672 125 603 106 644 b 39 675 39 672 39 675 b 247 675 39 675 247 675 b 247 442 247 675 247 442 b 474 689 278 572 350 689 b 603 578 547 689 603 644 b 503 468 603 501 547 468 b 457 486 482 468 464 476 "},"Ś":{"ha":793,"x_min":0,"x_max":0,"o":"m 406 1271 b 558 1271 406 1271 558 1271 b 321 1043 501 1190 429 1118 b 315 1043 321 1043 315 1043 b 406 1271 372 1128 394 1192 m 372 954 b 174 760 269 954 174 892 b 397 558 174 633 278 592 b 735 261 554 515 735 475 b 403 -14 735 69 569 -14 b 161 38 292 -14 215 38 b 74 -14 122 38 100 14 b 58 292 74 -14 58 292 b 61 292 58 292 61 292 b 403 18 138 117 263 18 b 624 226 525 18 624 92 b 363 439 624 365 496 400 b 69 718 219 481 69 528 b 372 986 69 882 208 986 b 599 938 483 986 556 938 b 681 986 644 938 663 965 b 686 704 681 986 686 704 b 683 704 686 704 683 704 b 372 954 621 842 522 954 "},"ś":{"ha":638,"x_min":0,"x_max":0,"o":"m 338 1040 b 479 1040 338 1040 479 1040 b 244 779 424 949 351 865 b 239 779 244 779 239 779 b 338 1040 296 876 328 950 m 296 661 b 164 542 210 661 164 606 b 332 407 164 474 190 440 b 581 190 517 364 581 301 b 329 -14 581 53 458 -14 b 132 22 233 -14 175 22 b 72 -14 106 22 89 6 b 57 250 72 -14 57 250 b 60 250 57 250 60 250 b 329 14 119 106 201 14 b 481 153 413 14 481 65 b 285 292 481 235 406 264 b 68 500 125 329 68 396 b 296 689 68 622 176 689 b 472 651 382 689 425 651 b 542 689 499 651 518 668 b 542 460 542 689 542 460 b 539 460 542 460 539 460 b 296 661 489 571 407 661 "},"Ŝ":{"ha":793,"x_min":0,"x_max":0,"o":"m 581 1031 b 389 1150 508 1065 433 1190 b 197 1031 344 1110 269 1065 b 186 1031 197 1031 186 1031 b 386 1292 263 1101 346 1203 b 392 1292 386 1292 392 1292 b 592 1031 432 1203 515 1101 b 581 1031 592 1031 581 1031 m 372 954 b 174 760 269 954 174 892 b 397 558 174 633 278 592 b 735 261 554 515 735 475 b 403 -14 735 69 569 -14 b 161 38 292 -14 215 38 b 74 -14 122 38 100 14 b 58 292 74 -14 58 292 b 61 292 58 292 61 292 b 403 18 138 117 263 18 b 624 226 525 18 624 92 b 363 439 624 365 496 400 b 69 718 219 481 69 528 b 372 986 69 882 208 986 b 599 938 483 986 556 938 b 681 986 644 938 663 965 b 686 704 681 986 686 704 b 683 704 686 704 683 704 b 372 954 621 842 522 954 "},"ŝ":{"ha":638,"x_min":0,"x_max":0,"o":"m 511 767 b 319 901 439 804 364 944 b 128 767 275 858 200 804 b 117 767 128 767 117 767 b 317 1050 193 843 276 953 b 322 1050 317 1050 322 1050 b 522 767 363 953 446 843 b 511 767 522 767 511 767 m 296 661 b 164 542 210 661 164 606 b 332 407 164 474 190 440 b 581 190 517 364 581 301 b 329 -14 581 53 458 -14 b 132 22 233 -14 175 22 b 72 -14 106 22 89 6 b 57 250 72 -14 57 250 b 60 250 57 250 60 250 b 329 14 119 106 201 14 b 481 153 413 14 481 65 b 285 292 481 235 406 264 b 68 500 125 329 68 396 b 296 689 68 622 176 689 b 472 651 382 689 425 651 b 542 689 499 651 518 668 b 542 460 542 689 542 460 b 539 460 542 460 539 460 b 296 661 489 571 407 661 "},"Ş":{"ha":793,"x_min":0,"x_max":0,"o":"m 350 -310 b 199 -235 279 -310 222 -278 b 210 -222 199 -235 210 -222 b 322 -276 240 -262 283 -276 b 406 -192 371 -276 406 -246 b 281 -111 406 -129 360 -114 b 329 -7 281 -111 329 -7 b 161 38 257 7 203 38 b 74 -14 122 38 100 14 b 58 292 74 -14 58 292 b 61 292 58 292 61 292 b 403 18 138 117 263 18 b 624 226 525 18 624 92 b 363 439 624 365 496 400 b 69 718 219 481 69 528 b 372 986 69 882 208 986 b 599 938 483 986 556 938 b 681 986 644 938 663 965 b 686 704 681 986 686 704 b 683 704 686 704 683 704 b 372 954 621 842 522 954 b 174 760 269 954 174 892 b 397 558 174 633 278 592 b 735 261 554 515 735 475 b 403 -14 735 69 569 -14 b 351 -10 385 -14 368 -12 b 317 -89 351 -10 317 -89 b 508 -194 414 -89 508 -119 b 350 -310 508 -268 438 -310 "},"ş":{"ha":638,"x_min":0,"x_max":0,"o":"m 281 -310 b 129 -235 210 -310 153 -278 b 140 -222 129 -235 140 -222 b 253 -276 171 -262 214 -276 b 336 -192 301 -276 336 -246 b 211 -111 336 -129 290 -114 b 260 -7 211 -111 260 -7 b 132 22 203 3 164 22 b 72 -14 106 22 89 6 b 57 250 72 -14 57 250 b 60 250 57 250 60 250 b 329 14 119 106 201 14 b 481 153 413 14 481 65 b 285 292 481 235 406 264 b 68 500 125 329 68 396 b 296 689 68 622 176 689 b 472 651 382 689 425 651 b 542 689 499 651 518 668 b 542 460 542 689 542 460 b 539 460 542 460 539 460 b 296 661 489 571 407 661 b 164 542 210 661 164 606 b 332 407 164 474 190 440 b 581 190 517 364 581 301 b 329 -14 581 53 458 -14 b 282 -11 313 -14 297 -12 b 247 -89 282 -11 247 -89 b 439 -194 344 -89 439 -119 b 281 -310 439 -268 368 -310 "},"Š":{"ha":793,"x_min":0,"x_max":0,"o":"m 197 1292 b 389 1172 269 1257 344 1132 b 581 1292 433 1213 508 1257 b 592 1292 581 1292 592 1292 b 392 1031 515 1221 432 1119 b 386 1031 392 1031 386 1031 b 186 1292 346 1119 263 1221 b 197 1292 186 1292 197 1292 m 372 954 b 174 760 269 954 174 892 b 397 558 174 633 278 592 b 735 261 554 515 735 475 b 403 -14 735 69 569 -14 b 161 38 292 -14 215 38 b 74 -14 122 38 100 14 b 58 292 74 -14 58 292 b 61 292 58 292 61 292 b 403 18 138 117 263 18 b 624 226 525 18 624 92 b 363 439 624 365 496 400 b 69 718 219 481 69 528 b 372 986 69 882 208 986 b 599 938 483 986 556 938 b 681 986 644 938 663 965 b 686 704 681 986 686 704 b 683 704 686 704 683 704 b 372 954 621 842 522 954 "},"š":{"ha":638,"x_min":0,"x_max":0,"o":"m 128 1050 b 319 915 200 1013 275 872 b 511 1050 364 958 439 1013 b 522 1050 511 1050 522 1050 b 322 767 446 974 363 864 b 317 767 322 767 317 767 b 117 1050 276 864 193 974 b 128 1050 117 1050 128 1050 m 296 661 b 164 542 210 661 164 606 b 332 407 164 474 190 440 b 581 190 517 364 581 301 b 329 -14 581 53 458 -14 b 132 22 233 -14 175 22 b 72 -14 106 22 89 6 b 57 250 72 -14 57 250 b 60 250 57 250 60 250 b 329 14 119 106 201 14 b 481 153 413 14 481 65 b 285 292 481 235 406 264 b 68 500 125 329 68 396 b 296 689 68 622 176 689 b 472 651 382 689 425 651 b 542 689 499 651 518 668 b 542 460 542 689 542 460 b 539 460 542 460 539 460 b 296 661 489 571 407 661 "},"Ţ":{"ha":994,"x_min":0,"x_max":0,"o":"m 497 -310 b 346 -235 426 -310 369 -278 b 357 -222 346 -235 357 -222 b 469 -276 388 -262 431 -276 b 553 -192 518 -276 553 -246 b 428 -111 553 -129 507 -114 b 479 0 428 -111 479 0 b 349 0 479 0 349 0 b 349 3 349 0 349 3 b 435 167 415 31 435 75 b 435 938 435 167 435 938 b 319 938 435 938 319 938 b 26 700 164 938 115 856 b 24 700 26 700 24 700 b 71 982 24 700 71 982 b 138 972 86 974 113 972 b 857 972 138 972 857 972 b 924 982 882 972 908 974 b 971 700 924 982 971 700 b 968 700 971 700 968 700 b 675 938 879 856 831 938 b 560 938 675 938 560 938 b 560 167 560 938 560 167 b 646 3 560 75 579 31 b 646 0 646 3 646 0 b 504 0 646 0 504 0 b 464 -89 504 0 464 -89 b 656 -194 561 -89 656 -119 b 497 -310 656 -268 585 -310 "},"ţ":{"ha":500,"x_min":0,"x_max":0,"o":"m 275 -310 b 124 -235 204 -310 147 -278 b 135 -222 124 -235 135 -222 b 247 -276 165 -262 208 -276 b 331 -192 296 -276 331 -246 b 206 -111 331 -129 285 -114 b 251 -11 206 -111 251 -11 b 108 189 163 1 108 68 b 108 639 108 189 108 639 b 11 639 108 639 11 639 b 11 647 11 639 11 647 b 219 914 128 671 200 776 b 231 914 219 914 231 914 b 231 675 231 914 231 675 b 447 675 231 675 447 675 b 440 639 447 675 440 639 b 231 639 440 639 231 639 b 231 193 231 639 231 193 b 326 57 231 103 264 57 b 460 218 394 57 442 114 b 471 218 460 218 471 218 b 285 -14 460 85 410 -14 b 275 -14 285 -14 275 -14 b 242 -89 275 -14 242 -89 b 433 -194 339 -89 433 -119 b 275 -310 433 -268 363 -310 "},"Ť":{"ha":994,"x_min":0,"x_max":0,"o":"m 306 1292 b 497 1172 378 1257 453 1132 b 689 1292 542 1213 617 1257 b 700 1292 689 1292 700 1292 b 500 1031 624 1221 540 1119 b 494 1031 500 1031 494 1031 b 294 1292 454 1119 371 1221 b 306 1292 294 1292 306 1292 m 138 972 b 857 972 138 972 857 972 b 924 982 882 972 908 974 b 971 700 924 982 971 700 b 968 700 971 700 968 700 b 675 938 879 856 831 938 b 560 938 675 938 560 938 b 560 167 560 938 560 167 b 646 3 560 75 579 31 b 646 0 646 3 646 0 b 349 0 646 0 349 0 b 349 3 349 0 349 3 b 435 167 415 31 435 75 b 435 938 435 167 435 938 b 319 938 435 938 319 938 b 26 700 164 938 115 856 b 24 700 26 700 24 700 b 71 982 24 700 71 982 b 138 972 86 974 113 972 "},"ť":{"ha":500,"x_min":0,"x_max":0,"o":"m 472 1040 b 329 756 453 950 382 818 b 325 756 329 756 325 756 b 350 1040 346 832 357 936 b 472 1040 350 1040 472 1040 m 460 218 b 471 218 460 218 471 218 b 285 -14 460 85 410 -14 b 108 189 176 -14 108 54 b 108 639 108 189 108 639 b 11 639 108 639 11 639 b 11 647 11 639 11 647 b 219 914 128 671 200 776 b 231 914 219 914 231 914 b 231 675 231 914 231 675 b 447 675 231 675 447 675 b 440 639 447 675 440 639 b 231 639 440 639 231 639 b 231 193 231 639 231 193 b 326 57 231 103 264 57 b 460 218 394 57 442 114 "},"Ŧ":{"ha":994,"x_min":0,"x_max":0,"o":"m 646 3 b 646 0 646 3 646 0 b 349 0 646 0 349 0 b 349 3 349 0 349 3 b 435 167 415 31 435 75 b 435 476 435 167 435 476 b 254 476 435 476 254 476 b 254 513 254 476 254 513 b 435 513 254 513 435 513 b 435 938 435 513 435 938 b 319 938 435 938 319 938 b 26 700 164 938 115 856 b 24 700 26 700 24 700 b 71 982 24 700 71 982 b 138 972 86 974 113 972 b 857 972 138 972 857 972 b 924 982 882 972 908 974 b 971 700 924 982 971 700 b 968 700 971 700 968 700 b 675 938 879 856 831 938 b 560 938 675 938 560 938 b 560 513 560 938 560 513 b 740 513 560 513 740 513 b 740 476 740 513 740 476 b 560 476 740 476 560 476 b 560 167 560 476 560 167 b 646 3 560 75 579 31 "},"ŧ":{"ha":517,"x_min":0,"x_max":0,"o":"m 488 218 b 301 -14 476 85 426 -14 b 125 189 193 -14 125 54 b 125 426 125 189 125 426 b 28 426 125 426 28 426 b 28 463 28 426 28 463 b 125 463 28 463 125 463 b 125 639 125 463 125 639 b 28 639 125 639 28 639 b 28 647 28 639 28 647 b 236 914 144 671 217 776 b 247 914 236 914 247 914 b 247 675 247 914 247 675 b 464 675 247 675 464 675 b 457 639 464 675 457 639 b 247 639 457 639 247 639 b 247 463 247 639 247 463 b 449 463 247 463 449 463 b 449 426 449 463 449 426 b 247 426 449 426 247 426 b 247 193 247 426 247 193 b 343 57 247 103 281 57 b 476 218 411 57 458 114 b 488 218 476 218 488 218 "},"Ũ":{"ha":1019,"x_min":0,"x_max":0,"o":"m 788 1261 b 636 1072 753 1140 703 1072 b 428 1161 563 1072 488 1161 b 307 1067 372 1161 333 1124 b 293 1067 307 1067 293 1067 b 444 1256 328 1188 378 1256 b 653 1167 518 1256 593 1167 b 774 1261 708 1167 747 1204 b 788 1261 774 1261 788 1261 m 883 774 b 883 372 883 774 883 372 b 517 -14 883 124 725 -14 b 122 375 264 -14 122 121 b 122 794 122 375 122 794 b 43 969 122 886 110 942 b 43 972 43 969 43 972 b 326 972 43 972 326 972 b 326 969 326 972 326 969 b 247 794 260 942 247 886 b 247 388 247 794 247 388 b 528 44 247 174 333 44 b 844 381 711 44 844 163 b 844 774 844 381 844 774 b 740 969 844 879 807 942 b 740 972 740 969 740 972 b 988 972 740 972 988 972 b 988 969 988 972 988 969 b 883 774 921 942 883 879 "},"ũ":{"ha":797,"x_min":0,"x_max":0,"o":"m 647 997 b 496 808 613 876 563 808 b 288 897 422 808 347 897 b 167 803 232 897 193 860 b 153 803 167 803 153 803 b 304 992 188 924 238 992 b 513 903 378 992 453 903 b 633 997 568 903 607 940 b 647 997 633 997 647 997 m 563 319 b 563 524 563 319 563 524 b 476 672 563 603 543 644 b 476 675 476 672 476 675 b 685 675 476 675 685 675 b 685 138 685 675 685 138 b 785 3 685 51 719 24 b 785 0 785 3 785 0 b 563 0 785 0 563 0 b 563 201 563 0 563 201 b 313 -14 529 64 435 -14 b 101 228 190 -14 101 68 b 101 524 101 228 101 524 b 15 672 101 603 82 644 b 15 675 15 672 15 675 b 224 675 15 675 224 675 b 224 243 224 675 224 243 b 365 58 224 150 261 58 b 563 319 474 58 563 161 "},"Ū":{"ha":1019,"x_min":0,"x_max":0,"o":"m 732 1083 b 349 1083 732 1083 349 1083 b 349 1132 349 1083 349 1132 b 732 1132 349 1132 732 1132 b 732 1083 732 1132 732 1083 m 883 774 b 883 372 883 774 883 372 b 517 -14 883 124 725 -14 b 122 375 264 -14 122 121 b 122 794 122 375 122 794 b 43 969 122 886 110 942 b 43 972 43 969 43 972 b 326 972 43 972 326 972 b 326 969 326 972 326 969 b 247 794 260 942 247 886 b 247 388 247 794 247 388 b 528 44 247 174 333 44 b 844 381 711 44 844 163 b 844 774 844 381 844 774 b 740 969 844 879 807 942 b 740 972 740 969 740 972 b 988 972 740 972 988 972 b 988 969 988 972 988 969 b 883 774 921 942 883 879 "},"ū":{"ha":797,"x_min":0,"x_max":0,"o":"m 592 833 b 208 833 592 833 208 833 b 208 882 208 833 208 882 b 592 882 208 882 592 882 b 592 833 592 882 592 833 m 563 319 b 563 524 563 319 563 524 b 476 672 563 603 543 644 b 476 675 476 672 476 675 b 685 675 476 675 685 675 b 685 138 685 675 685 138 b 785 3 685 51 719 24 b 785 0 785 3 785 0 b 563 0 785 0 563 0 b 563 201 563 0 563 201 b 313 -14 529 64 435 -14 b 101 228 190 -14 101 68 b 101 524 101 228 101 524 b 15 672 101 603 82 644 b 15 675 15 672 15 675 b 224 675 15 675 224 675 b 224 243 224 675 224 243 b 365 58 224 150 261 58 b 563 319 474 58 563 161 "},"Ŭ":{"ha":1019,"x_min":0,"x_max":0,"o":"m 732 1274 b 542 1053 731 1139 654 1053 b 350 1274 428 1053 351 1139 b 361 1274 350 1274 361 1274 b 542 1149 369 1188 460 1149 b 721 1274 622 1149 713 1188 b 732 1274 721 1274 732 1274 m 883 774 b 883 372 883 774 883 372 b 517 -14 883 124 725 -14 b 122 375 264 -14 122 121 b 122 794 122 375 122 794 b 43 969 122 886 110 942 b 43 972 43 969 43 972 b 326 972 43 972 326 972 b 326 969 326 972 326 969 b 247 794 260 942 247 886 b 247 388 247 794 247 388 b 528 44 247 174 333 44 b 844 381 711 44 844 163 b 844 774 844 381 844 774 b 740 969 844 879 807 942 b 740 972 740 969 740 972 b 988 972 740 972 988 972 b 988 969 988 972 988 969 b 883 774 921 942 883 879 "},"ŭ":{"ha":797,"x_min":0,"x_max":0,"o":"m 590 1031 b 400 789 589 883 513 789 b 210 1031 288 789 211 883 b 221 1031 210 1031 221 1031 b 400 886 229 928 319 886 b 579 1031 481 886 571 928 b 590 1031 579 1031 590 1031 m 563 319 b 563 524 563 319 563 524 b 476 672 563 603 543 644 b 476 675 476 672 476 675 b 685 675 476 675 685 675 b 685 138 685 675 685 138 b 785 3 685 51 719 24 b 785 0 785 3 785 0 b 563 0 785 0 563 0 b 563 201 563 0 563 201 b 313 -14 529 64 435 -14 b 101 228 190 -14 101 68 b 101 524 101 228 101 524 b 15 672 101 603 82 644 b 15 675 15 672 15 675 b 224 675 15 675 224 675 b 224 243 224 675 224 243 b 365 58 224 150 261 58 b 563 319 474 58 563 161 "},"Ů":{"ha":1019,"x_min":0,"x_max":0,"o":"m 540 1315 b 674 1185 613 1315 674 1256 b 540 1053 674 1111 613 1053 b 407 1185 468 1053 407 1111 b 540 1315 407 1256 468 1315 m 540 1086 b 640 1185 594 1086 640 1129 b 540 1282 640 1238 594 1282 b 440 1185 486 1282 440 1238 b 540 1086 440 1129 486 1086 m 883 774 b 883 372 883 774 883 372 b 517 -14 883 124 725 -14 b 122 375 264 -14 122 121 b 122 794 122 375 122 794 b 43 969 122 886 110 942 b 43 972 43 969 43 972 b 326 972 43 972 326 972 b 326 969 326 972 326 969 b 247 794 260 942 247 886 b 247 388 247 794 247 388 b 528 44 247 174 333 44 b 844 381 711 44 844 163 b 844 774 844 381 844 774 b 740 969 844 879 807 942 b 740 972 740 969 740 972 b 988 972 740 972 988 972 b 988 969 988 972 988 969 b 883 774 921 942 883 879 "},"ů":{"ha":797,"x_min":0,"x_max":0,"o":"m 400 1051 b 533 921 472 1051 533 992 b 400 789 533 847 472 789 b 267 921 328 789 267 847 b 400 1051 267 992 328 1051 m 400 822 b 500 921 454 822 500 865 b 400 1018 500 974 454 1018 b 300 921 346 1018 300 974 b 400 822 300 865 346 822 m 563 319 b 563 524 563 319 563 524 b 476 672 563 603 543 644 b 476 675 476 672 476 675 b 685 675 476 675 685 675 b 685 138 685 675 685 138 b 785 3 685 51 719 24 b 785 0 785 3 785 0 b 563 0 785 0 563 0 b 563 201 563 0 563 201 b 313 -14 529 64 435 -14 b 101 228 190 -14 101 68 b 101 524 101 228 101 524 b 15 672 101 603 82 644 b 15 675 15 672 15 675 b 224 675 15 675 224 675 b 224 243 224 675 224 243 b 365 58 224 150 261 58 b 563 319 474 58 563 161 "},"Ű":{"ha":1019,"x_min":0,"x_max":0,"o":"m 500 1271 b 653 1271 500 1271 653 1271 b 415 1043 596 1190 524 1118 b 410 1043 415 1043 410 1043 b 500 1271 467 1128 489 1192 m 708 1271 b 861 1271 708 1271 861 1271 b 624 1043 804 1190 732 1118 b 618 1043 624 1043 618 1043 b 708 1271 675 1128 697 1192 m 883 774 b 883 372 883 774 883 372 b 517 -14 883 124 725 -14 b 122 375 264 -14 122 121 b 122 794 122 375 122 794 b 43 969 122 886 110 942 b 43 972 43 969 43 972 b 326 972 43 972 326 972 b 326 969 326 972 326 969 b 247 794 260 942 247 886 b 247 388 247 794 247 388 b 528 44 247 174 333 44 b 844 381 711 44 844 163 b 844 774 844 381 844 774 b 740 969 844 879 807 942 b 740 972 740 969 740 972 b 988 972 740 972 988 972 b 988 969 988 972 988 969 b 883 774 921 942 883 879 "},"ű":{"ha":797,"x_min":0,"x_max":0,"o":"m 343 1040 b 481 1040 343 1040 481 1040 b 246 779 425 949 353 865 b 240 779 246 779 240 779 b 343 1040 297 876 333 950 m 528 1040 b 665 1040 528 1040 665 1040 b 431 779 610 949 538 865 b 425 779 431 779 425 779 b 528 1040 482 876 518 950 m 563 319 b 563 524 563 319 563 524 b 476 672 563 603 543 644 b 476 675 476 672 476 675 b 685 675 476 675 685 675 b 685 138 685 675 685 138 b 785 3 685 51 719 24 b 785 0 785 3 785 0 b 563 0 785 0 563 0 b 563 201 563 0 563 201 b 313 -14 529 64 435 -14 b 101 228 190 -14 101 68 b 101 524 101 228 101 524 b 15 672 101 603 82 644 b 15 675 15 672 15 675 b 224 675 15 675 224 675 b 224 243 224 675 224 243 b 365 58 224 150 261 58 b 563 319 474 58 563 161 "},"Ų":{"ha":1019,"x_min":0,"x_max":0,"o":"m 574 -329 b 444 -208 507 -329 444 -285 b 621 -1 444 -118 526 -57 b 517 -14 589 -10 553 -14 b 122 375 264 -14 122 121 b 122 794 122 375 122 794 b 43 969 122 886 110 942 b 43 972 43 969 43 972 b 326 972 43 972 326 972 b 326 969 326 972 326 969 b 247 794 260 942 247 886 b 247 388 247 794 247 388 b 528 44 247 174 333 44 b 844 381 711 44 844 163 b 844 774 844 381 844 774 b 740 969 844 879 807 942 b 740 972 740 969 740 972 b 988 972 740 972 988 972 b 988 969 988 972 988 969 b 883 774 921 942 883 879 b 883 372 883 774 883 372 b 683 18 883 193 807 83 b 540 -181 582 -35 540 -115 b 626 -267 540 -236 571 -267 b 760 -190 679 -267 725 -243 b 764 -193 760 -190 764 -193 b 574 -329 736 -260 683 -329 "},"ų":{"ha":797,"x_min":0,"x_max":0,"o":"m 703 -193 b 513 -329 675 -260 622 -329 b 383 -208 446 -329 383 -285 b 563 0 383 -117 467 -56 b 563 201 563 0 563 201 b 313 -14 529 64 435 -14 b 101 228 190 -14 101 68 b 101 524 101 228 101 524 b 15 672 101 603 82 644 b 15 675 15 672 15 675 b 224 675 15 675 224 675 b 224 243 224 675 224 243 b 365 58 224 150 261 58 b 563 319 474 58 563 161 b 563 524 563 319 563 524 b 476 672 563 603 543 644 b 476 675 476 672 476 675 b 685 675 476 675 685 675 b 685 138 685 675 685 138 b 785 3 685 51 719 24 b 785 0 785 3 785 0 b 593 0 785 0 593 0 b 479 -181 515 -61 479 -121 b 565 -267 479 -236 510 -267 b 699 -190 618 -267 664 -243 b 703 -193 699 -190 703 -193 "},"Ŵ":{"ha":1303,"x_min":0,"x_max":0,"o":"m 849 1031 b 657 1150 776 1065 701 1190 b 465 1031 613 1110 538 1065 b 454 1031 465 1031 454 1031 b 654 1292 531 1101 614 1203 b 660 1292 654 1292 660 1292 b 860 1031 700 1203 783 1101 b 849 1031 860 1031 849 1031 m 893 -14 b 661 638 893 -14 661 638 b 421 -14 661 638 421 -14 b 417 -14 421 -14 417 -14 b 101 817 417 -14 101 817 b 0 969 67 907 46 942 b 0 972 0 969 0 972 b 274 972 0 972 274 972 b 274 969 274 972 274 969 b 215 896 240 953 215 929 b 235 813 215 874 222 846 b 461 203 235 813 461 203 b 640 697 461 203 640 697 b 597 817 640 697 597 817 b 496 969 563 907 542 942 b 496 972 496 969 496 972 b 765 972 496 972 765 972 b 765 969 765 972 765 969 b 707 896 732 953 707 929 b 726 813 707 874 714 846 b 935 200 726 813 935 200 b 1147 788 935 200 1147 788 b 1160 856 1156 811 1160 835 b 1094 969 1160 904 1138 946 b 1094 972 1094 969 1094 972 b 1311 972 1094 972 1311 972 b 1311 969 1311 972 1311 969 b 1197 803 1264 942 1228 886 b 897 -14 1197 803 897 -14 b 893 -14 897 -14 893 -14 "},"ŵ":{"ha":1036,"x_min":0,"x_max":0,"o":"m 726 767 b 535 901 654 804 579 944 b 343 767 490 858 415 804 b 332 767 343 767 332 767 b 532 1050 408 843 492 953 b 538 1050 532 1050 538 1050 b 738 767 578 953 661 843 b 726 767 738 767 726 767 m 719 -14 b 531 458 719 -14 531 458 b 331 -14 531 458 331 -14 b 328 -14 331 -14 328 -14 b 99 525 328 -14 99 525 b -7 672 57 622 39 640 b -7 675 -7 672 -7 675 b 242 675 -7 675 242 675 b 242 672 242 675 242 672 b 200 611 207 657 200 639 b 224 525 200 590 213 557 b 369 174 224 525 369 174 b 510 508 369 174 510 508 b 503 525 510 508 503 525 b 397 672 461 622 443 640 b 397 675 397 672 397 675 b 642 675 397 675 642 675 b 642 672 642 675 642 672 b 600 611 607 657 600 639 b 624 525 600 590 613 557 b 757 175 624 525 757 175 b 890 515 757 175 890 515 b 906 588 900 540 906 565 b 847 672 906 626 888 658 b 847 675 847 672 847 675 b 1043 675 847 675 1043 675 b 1043 672 1043 675 1043 672 b 936 521 997 640 976 619 b 722 -14 936 521 722 -14 b 719 -14 722 -14 719 -14 "},"Ŷ":{"ha":904,"x_min":0,"x_max":0,"o":"m 671 1031 b 479 1150 599 1065 524 1190 b 288 1031 435 1110 360 1065 b 276 1031 288 1031 276 1031 b 476 1292 353 1101 436 1203 b 482 1292 476 1292 482 1292 b 682 1031 522 1203 606 1101 b 671 1031 682 1031 671 1031 m 500 451 b 726 818 500 451 726 818 b 747 886 740 842 747 865 b 694 969 747 922 728 953 b 694 972 694 969 694 972 b 904 972 694 972 904 972 b 904 969 904 972 904 969 b 774 825 847 935 811 886 b 513 404 774 825 513 404 b 513 167 513 404 513 167 b 599 3 513 75 532 31 b 599 0 599 3 599 0 b 306 0 599 0 306 0 b 306 3 306 0 306 3 b 392 167 372 31 392 75 b 392 404 392 167 392 404 b 122 838 392 404 122 838 b 0 969 85 899 54 933 b 0 972 0 969 0 972 b 293 972 0 972 293 972 b 293 969 293 972 293 969 b 243 894 263 953 243 931 b 264 831 243 878 247 857 b 500 451 264 831 500 451 "},"ŷ":{"ha":706,"x_min":0,"x_max":0,"o":"m 572 767 b 381 901 500 804 425 944 b 189 767 336 858 261 804 b 178 767 189 767 178 767 b 378 1050 254 843 338 953 b 383 1050 378 1050 383 1050 b 583 767 424 953 507 843 b 572 767 583 767 572 767 m 285 -122 b 344 11 285 -122 344 11 b 99 525 344 11 99 525 b -7 672 53 621 39 640 b -7 675 -7 672 -7 675 b 243 675 -7 675 243 675 b 243 672 243 675 243 672 b 201 611 208 657 201 639 b 225 525 201 590 211 556 b 403 147 225 525 403 147 b 563 518 403 147 563 518 b 579 590 574 543 579 568 b 524 672 579 626 563 657 b 524 675 524 672 524 675 b 713 675 524 675 713 675 b 713 672 713 675 713 672 b 601 511 664 640 644 608 b 319 -135 601 511 319 -135 b 114 -326 264 -262 207 -326 b -14 -217 39 -326 -14 -285 b 81 -122 -14 -157 31 -122 b 132 -133 100 -122 115 -125 b 86 -199 100 -143 86 -165 b 154 -267 86 -239 113 -267 b 285 -122 210 -267 240 -221 "},"Ÿ":{"ha":904,"x_min":0,"x_max":0,"o":"m 354 1069 b 272 1153 307 1069 272 1107 b 354 1235 272 1197 307 1235 b 436 1153 400 1235 436 1197 b 354 1069 436 1107 400 1069 m 604 1069 b 521 1153 558 1069 521 1107 b 604 1235 521 1197 558 1235 b 686 1153 650 1235 686 1197 b 604 1069 686 1107 650 1069 m 500 451 b 726 818 500 451 726 818 b 747 886 740 842 747 865 b 694 969 747 922 728 953 b 694 972 694 969 694 972 b 904 972 694 972 904 972 b 904 969 904 972 904 969 b 774 825 847 935 811 886 b 513 404 774 825 513 404 b 513 167 513 404 513 167 b 599 3 513 75 532 31 b 599 0 599 3 599 0 b 306 0 599 0 306 0 b 306 3 306 0 306 3 b 392 167 372 31 392 75 b 392 404 392 167 392 404 b 122 838 392 404 122 838 b 0 969 85 899 54 933 b 0 972 0 969 0 972 b 293 972 0 972 293 972 b 293 969 293 972 293 969 b 243 894 263 953 243 931 b 264 831 243 878 247 857 b 500 451 264 831 500 451 "},"Ź":{"ha":908,"x_min":0,"x_max":0,"o":"m 467 1271 b 619 1271 467 1271 619 1271 b 382 1043 563 1190 490 1118 b 376 1043 382 1043 376 1043 b 467 1271 433 1128 456 1192 m 806 0 b 50 0 806 0 50 0 b 50 3 50 0 50 3 b 668 936 50 3 668 936 b 376 936 668 936 376 936 b 83 714 221 936 156 846 b 81 714 83 714 81 714 b 128 982 81 714 128 982 b 194 972 143 974 169 972 b 832 972 194 972 832 972 b 832 969 832 972 832 969 b 218 36 832 969 218 36 b 542 36 218 36 542 36 b 847 283 697 36 753 99 b 850 283 847 283 850 283 b 806 0 850 283 806 0 "},"ź":{"ha":688,"x_min":0,"x_max":0,"o":"m 368 1040 b 510 1040 368 1040 510 1040 b 275 779 454 949 382 865 b 269 779 275 779 269 779 b 368 1040 326 876 358 950 m 474 643 b 293 643 474 643 293 643 b 63 463 186 643 154 600 b 60 463 63 463 60 463 b 79 683 60 463 79 683 b 163 675 100 679 121 675 b 631 675 163 675 631 675 b 631 672 631 675 631 672 b 190 31 631 672 190 31 b 357 32 190 31 357 32 b 643 235 497 33 551 82 b 646 235 643 235 646 235 b 604 0 646 235 604 0 b 33 0 604 0 33 0 b 33 3 33 0 33 3 b 474 643 33 3 474 643 "},"Ż":{"ha":908,"x_min":0,"x_max":0,"o":"m 363 1156 b 450 1243 363 1204 401 1243 b 538 1156 499 1243 538 1204 b 450 1069 538 1108 499 1069 b 363 1156 401 1069 363 1108 m 806 0 b 50 0 806 0 50 0 b 50 3 50 0 50 3 b 668 936 50 3 668 936 b 376 936 668 936 376 936 b 83 714 221 936 156 846 b 81 714 83 714 81 714 b 128 982 81 714 128 982 b 194 972 143 974 169 972 b 832 972 194 972 832 972 b 832 969 832 972 832 969 b 218 36 832 969 218 36 b 542 36 218 36 542 36 b 847 283 697 36 753 99 b 850 283 847 283 850 283 b 806 0 850 283 806 0 "},"ż":{"ha":688,"x_min":0,"x_max":0,"o":"m 263 911 b 350 999 263 960 301 999 b 438 911 399 999 438 960 b 350 825 438 864 399 825 b 263 911 301 825 263 864 m 474 643 b 293 643 474 643 293 643 b 63 463 186 643 154 600 b 60 463 63 463 60 463 b 79 683 60 463 79 683 b 163 675 100 679 121 675 b 631 675 163 675 631 675 b 631 672 631 675 631 672 b 190 31 631 672 190 31 b 357 32 190 31 357 32 b 643 235 497 33 551 82 b 646 235 643 235 646 235 b 604 0 646 235 604 0 b 33 0 604 0 33 0 b 33 3 33 0 33 3 b 474 643 33 3 474 643 "},"Ž":{"ha":908,"x_min":0,"x_max":0,"o":"m 258 1292 b 450 1172 331 1257 406 1132 b 642 1292 494 1213 569 1257 b 653 1292 642 1292 653 1292 b 453 1031 576 1221 493 1119 b 447 1031 453 1031 447 1031 b 247 1292 407 1119 324 1221 b 258 1292 247 1292 258 1292 m 806 0 b 50 0 806 0 50 0 b 50 3 50 0 50 3 b 668 936 50 3 668 936 b 376 936 668 936 376 936 b 83 714 221 936 156 846 b 81 714 83 714 81 714 b 128 982 81 714 128 982 b 194 972 143 974 169 972 b 832 972 194 972 832 972 b 832 969 832 972 832 969 b 218 36 832 969 218 36 b 542 36 218 36 542 36 b 847 283 697 36 753 99 b 850 283 847 283 850 283 b 806 0 850 283 806 0 "},"ž":{"ha":688,"x_min":0,"x_max":0,"o":"m 158 1050 b 350 915 231 1013 306 872 b 542 1050 394 958 469 1013 b 553 1050 542 1050 553 1050 b 353 767 476 974 393 864 b 347 767 353 767 347 767 b 147 1050 307 864 224 974 b 158 1050 147 1050 158 1050 m 474 643 b 293 643 474 643 293 643 b 63 463 186 643 154 600 b 60 463 63 463 60 463 b 79 683 60 463 79 683 b 163 675 100 679 121 675 b 631 675 163 675 631 675 b 631 672 631 675 631 672 b 190 31 631 672 190 31 b 357 32 190 31 357 32 b 643 235 497 33 551 82 b 646 235 643 235 646 235 b 604 0 646 235 604 0 b 33 0 604 0 33 0 b 33 3 33 0 33 3 b 474 643 33 3 474 643 "},"ƒ":{"ha":735,"x_min":0,"x_max":0,"o":"m 314 -17 b 74 -262 293 -172 203 -262 b -112 -143 -35 -262 -112 -219 b -24 -64 -112 -97 -79 -64 b 53 -89 6 -64 36 -75 b -10 -157 15 -87 -10 -112 b 74 -240 -10 -210 22 -240 b 186 -65 149 -240 174 -158 b 258 476 186 -65 258 476 b 118 476 258 476 118 476 b 122 501 118 476 122 501 b 261 501 122 501 261 501 b 293 740 261 501 293 740 b 533 986 313 896 404 986 b 722 868 642 986 722 944 b 633 789 722 822 689 789 b 557 814 604 789 574 800 b 619 882 594 813 619 838 b 533 964 619 935 585 964 b 421 789 458 964 432 882 b 383 501 421 789 383 501 b 558 501 383 501 558 501 b 554 476 558 501 554 476 b 379 476 554 476 379 476 b 314 -17 379 476 314 -17 "},"Ǽ":{"ha":1456,"x_min":0,"x_max":0,"o":"m 982 1271 b 1135 1271 982 1271 1135 1271 b 897 1043 1078 1190 1006 1118 b 892 1043 897 1043 892 1043 b 982 1271 949 1128 971 1192 m 708 931 b 365 417 708 931 365 417 b 708 417 365 417 708 417 b 708 931 708 417 708 931 m 226 3 b 226 0 226 3 226 0 b 0 0 226 0 0 0 b 0 3 0 0 0 3 b 140 156 54 31 86 75 b 606 849 140 156 606 849 b 621 893 617 865 621 881 b 544 969 621 922 597 938 b 544 972 544 969 544 972 b 1260 972 544 972 1260 972 b 1326 982 1285 972 1311 974 b 1374 742 1326 982 1374 742 b 1371 742 1374 742 1371 742 b 1064 936 1299 874 1219 936 b 833 936 1064 936 833 936 b 833 511 833 936 833 511 b 1028 511 833 511 1028 511 b 1222 665 1140 511 1175 536 b 1225 665 1222 665 1225 665 b 1225 342 1225 665 1225 342 b 1222 342 1225 342 1222 342 b 1028 475 1175 469 1140 475 b 833 475 1028 475 833 475 b 833 36 833 475 833 36 b 1093 36 833 36 1093 36 b 1413 256 1249 36 1339 108 b 1415 256 1413 256 1415 256 b 1371 0 1415 256 1371 0 b 629 0 1371 0 629 0 b 629 3 629 0 629 3 b 708 178 696 31 708 86 b 708 381 708 178 708 381 b 340 381 708 381 340 381 b 199 168 340 381 199 168 b 164 78 174 131 164 104 b 226 3 164 42 186 19 "},"ǽ":{"ha":1140,"x_min":0,"x_max":0,"o":"m 629 1040 b 771 1040 629 1040 771 1040 b 536 779 715 949 643 865 b 531 779 536 779 531 779 b 629 1040 588 876 619 950 m 1099 218 b 811 -14 1072 69 964 -14 b 506 200 674 -14 553 63 b 250 -10 486 99 399 -10 b 53 163 140 -10 53 46 b 375 369 53 311 210 339 b 481 389 375 369 481 389 b 481 475 481 389 481 475 b 319 663 481 576 433 663 b 178 549 217 663 178 610 b 242 475 178 506 203 475 b 260 479 247 475 254 476 b 181 417 253 438 221 417 b 79 518 124 417 79 454 b 319 689 79 608 176 689 b 558 567 443 689 521 642 b 807 689 618 643 708 689 b 1094 365 1007 689 1094 556 b 608 365 1094 365 608 365 b 857 50 608 181 701 50 b 1090 221 961 50 1050 106 b 1099 218 1090 221 1099 218 m 611 394 b 963 394 611 394 963 394 b 806 661 963 536 938 661 b 611 394 707 661 618 558 m 481 363 b 388 344 481 363 388 344 b 183 176 250 318 183 275 b 301 51 183 85 235 51 b 481 267 399 51 481 125 b 481 363 481 267 481 363 "},"Ǿ":{"ha":1053,"x_min":0,"x_max":0,"o":"m 543 1271 b 696 1271 543 1271 696 1271 b 458 1043 639 1190 567 1118 b 453 1043 458 1043 453 1043 b 543 1271 510 1128 532 1192 m 194 486 b 250 203 194 378 214 281 b 793 789 250 203 793 789 b 526 954 738 892 649 954 b 194 486 308 954 194 753 m 526 18 b 858 486 744 18 858 219 b 807 760 858 590 842 685 b 265 174 807 760 265 174 b 526 18 321 78 408 18 m 526 -14 b 207 111 406 -14 293 32 b 90 -15 207 111 90 -15 b 67 4 90 -15 67 4 b 186 133 67 4 186 133 b 50 486 103 221 50 343 b 526 986 50 778 268 986 b 853 854 651 986 767 938 b 965 976 853 854 965 976 b 989 957 965 976 989 957 b 874 832 989 957 874 832 b 1003 486 953 744 1003 625 b 526 -14 1003 194 785 -14 "},"ǿ":{"ha":769,"x_min":0,"x_max":0,"o":"m 403 1040 b 544 1040 403 1040 544 1040 b 310 779 489 949 417 865 b 304 779 310 779 304 779 b 403 1040 361 876 393 950 m 182 338 b 213 157 182 271 192 208 b 554 526 213 157 554 526 b 385 661 521 608 463 661 b 182 338 257 661 182 518 m 385 14 b 588 338 513 14 588 157 b 565 494 588 394 581 449 b 225 126 565 494 225 126 b 385 14 260 57 314 14 m 385 -14 b 165 63 299 -14 224 14 b 89 -21 165 63 89 -21 b 65 -1 89 -21 65 -1 b 143 83 65 -1 143 83 b 44 338 81 146 44 235 b 385 689 44 540 186 689 b 619 599 479 689 561 656 b 700 685 619 599 700 685 b 724 665 700 685 724 665 b 642 576 724 665 642 576 b 725 338 694 515 725 432 b 385 -14 725 135 583 -14 "},"Ș":{"ha":793,"x_min":0,"x_max":0,"o":"m 372 954 b 174 760 269 954 174 892 b 397 558 174 633 278 592 b 735 261 554 515 735 475 b 403 -14 735 69 569 -14 b 161 38 292 -14 215 38 b 74 -14 122 38 100 14 b 58 292 74 -14 58 292 b 61 292 58 292 61 292 b 403 18 138 117 263 18 b 624 226 525 18 624 92 b 363 439 624 365 496 400 b 69 718 219 481 69 528 b 372 986 69 882 208 986 b 599 938 483 986 556 938 b 681 986 644 938 663 965 b 686 704 681 986 686 704 b 683 704 686 704 683 704 b 372 954 621 842 522 954 m 486 -196 b 292 -353 486 -275 422 -349 b 292 -333 292 -353 292 -333 b 429 -207 394 -321 429 -276 b 375 -224 417 -217 394 -224 b 304 -156 335 -224 304 -192 b 385 -79 304 -111 338 -79 b 486 -196 443 -79 486 -124 "},"ș":{"ha":638,"x_min":0,"x_max":0,"o":"m 296 661 b 164 542 210 661 164 606 b 332 407 164 474 190 440 b 581 190 517 364 581 301 b 329 -14 581 53 458 -14 b 132 22 233 -14 175 22 b 72 -14 106 22 89 6 b 57 250 72 -14 57 250 b 60 250 57 250 60 250 b 329 14 119 106 201 14 b 481 153 413 14 481 65 b 285 292 481 235 406 264 b 68 500 125 329 68 396 b 296 689 68 622 176 689 b 472 651 382 689 425 651 b 542 689 499 651 518 668 b 542 460 542 689 542 460 b 539 460 542 460 539 460 b 296 661 489 571 407 661 m 417 -196 b 222 -353 417 -275 353 -349 b 222 -333 222 -353 222 -333 b 360 -207 325 -321 360 -276 b 306 -224 347 -217 325 -224 b 235 -156 265 -224 235 -192 b 315 -79 235 -111 268 -79 b 417 -196 374 -79 417 -124 "},"Ț":{"ha":994,"x_min":0,"x_max":0,"o":"m 138 972 b 857 972 138 972 857 972 b 924 982 882 972 908 974 b 971 700 924 982 971 700 b 968 700 971 700 968 700 b 675 938 879 856 831 938 b 560 938 675 938 560 938 b 560 167 560 938 560 167 b 646 3 560 75 579 31 b 646 0 646 3 646 0 b 349 0 646 0 349 0 b 349 3 349 0 349 3 b 435 167 415 31 435 75 b 435 938 435 167 435 938 b 319 938 435 938 319 938 b 26 700 164 938 115 856 b 24 700 26 700 24 700 b 71 982 24 700 71 982 b 138 972 86 974 113 972 m 594 -196 b 400 -353 594 -275 531 -349 b 400 -333 400 -353 400 -333 b 538 -207 503 -321 538 -276 b 483 -224 525 -217 503 -224 b 413 -156 443 -224 413 -192 b 493 -79 413 -111 446 -79 b 594 -196 551 -79 594 -124 "},"ț":{"ha":500,"x_min":0,"x_max":0,"o":"m 460 218 b 471 218 460 218 471 218 b 285 -14 460 85 410 -14 b 108 189 176 -14 108 54 b 108 639 108 189 108 639 b 11 639 108 639 11 639 b 11 647 11 639 11 647 b 219 914 128 671 200 776 b 231 914 219 914 231 914 b 231 675 231 914 231 675 b 447 675 231 675 447 675 b 440 639 447 675 440 639 b 231 639 440 639 231 639 b 231 193 231 639 231 193 b 326 57 231 103 264 57 b 460 218 394 57 442 114 m 338 -196 b 143 -353 338 -275 274 -349 b 143 -333 143 -353 143 -333 b 281 -207 246 -321 281 -276 b 226 -224 268 -217 246 -224 b 156 -156 186 -224 156 -192 b 236 -79 156 -111 189 -79 b 338 -196 294 -79 338 -124 "},"ȷ":{"ha":325,"x_min":0,"x_max":0,"o":"m 229 -75 b -17 -326 229 -257 119 -326 b -207 -201 -126 -326 -207 -278 b -118 -122 -207 -156 -174 -122 b -53 -144 -93 -122 -68 -131 b -103 -212 -82 -153 -103 -175 b -10 -304 -103 -272 -69 -304 b 107 -85 76 -304 107 -235 b 107 524 107 -85 107 524 b 21 672 107 603 88 644 b 21 675 21 672 21 675 b 229 675 21 675 229 675 b 229 -75 229 675 229 -75 "}}}
